<mxfile host="app.diagrams.net" modified="2022-01-23T16:12:40.762Z" agent="5.0 (Windows NT 10.0; Win64; x64) AppleWebKit/537.36 (KHTML, like Gecko) Chrome/97.0.4692.71 Safari/537.36" etag="bVoKtra51m2Ch-39Qs3V" version="16.4.5" type="github">
  <diagram id="TIDNvAtoOwERm9afyrPE" name="第 1 页">
    <mxGraphModel dx="1108" dy="450" grid="1" gridSize="10" guides="1" tooltips="1" connect="1" arrows="1" fold="1" page="1" pageScale="1" pageWidth="827" pageHeight="1169" math="0" shadow="0">
      <root>
        <mxCell id="0" />
        <mxCell id="1" parent="0" />
        <mxCell id="fNtPRgdTcbA10EcIbhXB-51" value="" style="rounded=0;whiteSpace=wrap;html=1;shadow=1;fillColor=#FFFFFF;" parent="1" vertex="1">
          <mxGeometry x="20" y="1460" width="780" height="700" as="geometry" />
        </mxCell>
        <mxCell id="_Zg9nFOgAWmLeRLxnFvj-1" value="@Configuration" style="rounded=0;whiteSpace=wrap;html=1;" parent="1" vertex="1">
          <mxGeometry x="50" y="40" width="150" height="30" as="geometry" />
        </mxCell>
        <mxCell id="_Zg9nFOgAWmLeRLxnFvj-2" value="声明这是一个配置类：对标xml，用于配置拟放入容器中的对象" style="text;html=1;strokeColor=none;fillColor=none;align=center;verticalAlign=middle;whiteSpace=wrap;rounded=0;" parent="1" vertex="1">
          <mxGeometry x="200" y="40" width="360" height="30" as="geometry" />
        </mxCell>
        <mxCell id="_Zg9nFOgAWmLeRLxnFvj-3" value="@SpringBootApplication" style="rounded=0;whiteSpace=wrap;html=1;" parent="1" vertex="1">
          <mxGeometry x="50" y="100" width="150" height="30" as="geometry" />
        </mxCell>
        <mxCell id="_Zg9nFOgAWmLeRLxnFvj-4" value="声明这是一个启动类=SpringBootConfiguration+EnableAutoConfiguration+ComponentScan" style="text;html=1;strokeColor=none;fillColor=none;align=center;verticalAlign=middle;whiteSpace=wrap;rounded=0;" parent="1" vertex="1">
          <mxGeometry x="208" y="100" width="497" height="30" as="geometry" />
        </mxCell>
        <mxCell id="PTFH8cJ9CnB-YUHSpeQS-1" value="@EnableAutoConfiguration" style="rounded=0;whiteSpace=wrap;html=1;" parent="1" vertex="1">
          <mxGeometry x="50" y="160" width="150" height="30" as="geometry" />
        </mxCell>
        <mxCell id="PTFH8cJ9CnB-YUHSpeQS-2" value="=AutoConfigurationPackage+import({AutoConfigurationImportSelecter.class})" style="text;html=1;strokeColor=none;fillColor=none;align=center;verticalAlign=middle;whiteSpace=wrap;rounded=0;" parent="1" vertex="1">
          <mxGeometry x="210" y="160" width="420" height="30" as="geometry" />
        </mxCell>
        <mxCell id="fNtPRgdTcbA10EcIbhXB-1" value="AutoConfigurationImportSelector" style="rounded=0;whiteSpace=wrap;html=1;" parent="1" vertex="1">
          <mxGeometry x="50" y="220" width="190" height="30" as="geometry" />
        </mxCell>
        <mxCell id="fNtPRgdTcbA10EcIbhXB-2" value="加载META-INF/spring.factories文件中的类，放入容器" style="text;html=1;strokeColor=none;fillColor=none;align=center;verticalAlign=middle;whiteSpace=wrap;rounded=0;" parent="1" vertex="1">
          <mxGeometry x="260" y="220" width="290" height="30" as="geometry" />
        </mxCell>
        <mxCell id="fNtPRgdTcbA10EcIbhXB-3" value="" style="shape=image;verticalLabelPosition=bottom;labelBackgroundColor=default;verticalAlign=top;aspect=fixed;imageAspect=0;image=data:image/png,iVBORw0KGgoAAAANSUhEUgAAAvwAAAD3CAYAAABhAIBlAAAgAElEQVR4nOy9W3Bb15nn+9+kLJAASVAUQYqkCEBukxJlXixRsmxTJahTJaeKjjznVGx3VSJP/DLTNZWHSZ7SD1PuTqcfjs/L6amp9KnxOQ/jsTxn2k5ypqPLJHYqFlSiI0dXkNQ93QTAi0SCorBBAgRkkWseNjaADWLvtcANEAT4/apUJQDca33ruywsfPvba0kHBg+zF5534/bt2yAIgiAIgiAIorKoKrUABEEQBEEQBEEUD1rwEwRBEARBEEQFQwt+giAIgiAIgqhgaMFPEARBEARBEBUMLfgJgiAIgiAIooKhBT9BEARBEARBVDC04CcIgiAIgiCICmZbqQXYSrD6Xqx49kGSJOX1g8+x7a6s/J/Zwb51Aqu4i+rfj6X+hiAIgiAIgiDMILzgZ/tex2rkt6iabgT71gmwe5+hekZ8UaoudhFd34J29fBbWF38IrVALjSs/TWsDnakX2csxgvSPnNi1bMP0vX89EYQBEEQBEEQZhBf8Nc3ABH1VQTSYp49dbQDf/ojqtr2gTWM5X99EWH7XsfKC0DVhU9RtZjMvu97Dav1I6nXpmloAMMMqqYB5GhSkmRIX/5CqbGi7D5BEARBEARRILgLfk3me9c7WB1MfnD8HTwTzIIzZgdra4B0LwAJ+7DS0YiqrFKWzDsGrP01rOyNoPr3Y0DPt7HaZQcASLtex0pXss1HX2PblaC2jbrk9WwaVWdGUCWwcGbMidUXGiBd/0yzuJfufgUJanv67afl/yNw8GVAksCYjCrvb4V/LLB9r6fGmDkujf4y+k9x7dOcd1wy9SdJkvKDBl+jGkfS/WTZbvXwW2C7ktcv3aGyIoIgCIIgiAqBu+CXZr5C1bQd7FtHgKu/hYQ+rHgaUHVmBNWiC8KGTqzaktltLAF7O8HuhIUWlNLdz1F9V7+kJ1X7/jD9Gdv3Ola+1QdJZNHKybzz2k/93cF9qPIqPxrYvtexss+FqitBzWJeAsDefAcr0P5oUMfI9r2OlfocMrx8AqtLf8S2L4NaeWYkMK4Gk3rseh0rS3dQ/evfAg19WPEcweq08qNk9fBbWMUfse2M8kNj9fBbWHk5suaHB0EQBEEQBFF+CO7SYwezLaVLeqKRXGtjfTragdkpJeM+PQXJ1g7WkKekeqg/Ju6E0+/duSveRz3njwTbl65nZPQjS0BdAxhjymL+zGeounAHjE1D+vWnqD7zGbad/UrwDoQdqAOk6YDSjyRDehgB6u0Cg8toJzNrH0nbjzEnWGsEVXcD6bHcvQu07sYqE/05QRAEQRAEQWxWuBl+TanHm++AQclUr5xsECqbySznASRIUhDS7MtYzSjrMUV9Q44fIDKkaANYPQCzzwpw2pciOtcVCEmSwZYA1uECZoIpfeJhnrpbiqTudkhSENVngwAksIYGMDQAx5U7DymYDDTAvP4IgiAIgiCIksJd8Fdd+YWyw84hpGrqV+rvKuUeIiU9DZ1YtQHS4DtYGcx4v04p6zHNYgSwNaR+iCjYwWyCDxZPT0E6+DJYB4CZIrRfIKRdR7By8giAZJ1/oXYQikQgIQLpQq5nDqiGnyAIgiAIotwRK+nJLntZzGOxWd8ARO+iKlnKopa3IFkSI0kyoGawkdy+82D7mmakxQjQ1gmWXWYSmURVtB2rPY2pt9jLL4NFZ4Sy78odB4Ad/DZW69NtK7v0MNPtm0UpuZlJlQJVn/lMU1svqj89lPE3YHWfq+CyEwRBEARBEKVH/OCtZEnIan1DXmUerKMdeHhL+/BsZBJV0X2psh7p7l3A8zJWTh5RHmb13sXqoayG7nyNqrYTWH2zR2k3uZuNJMnA7/8I6eQJrHStb5eZqiu/gLTvdaxmlLWwB59j26IEcNo3W+aevQOPBCWTnx5fEFV/2ofVN7UlN5m7+QjpzwDpj1+g6lsnUncQstsnCIIgCIIgyhfpwOBh9sLzbty+fbvUshA5UA4sa9ds88mYE6snXwboEC+CIAiCIAiCg+AuPUTJyLWLUEMD2HoOPyMIgiAIgiC2HOIlPURJkGa+QnVDVrlRngd7EQRBEARBEFsXWvCXAerBXFnvlkIUgiAIgiAIosygkh6CIAiCIAiCqGBowU8QBEEQBEEQFQwt+AmCIAiCIAiigqEa/iSMSfiLbz2HYazgr3//DAHBPfzz6qO+Gh94qtGWbPvhg6f4q7smN/IvA147vB1vLn6zrrGqdmm7l8B/pC1IS4qR/25E/JQjIv7r2vcc/rZLyb2wR9/gvSurGyli2VDJ/ldK+Xvf+xDH5v4O/3Cezl0hiEqGFvwbBGNV+JGnGg+vJ/BXtHDddJj5UVIJ/fOoZP/NXHCrbOSP8cDdb/CDu4ocP61fXxvqYnhXdH0LRrP+x9q34b8OVqdeF1p/5e5/mzm+xz7/DY6dOoTWcwHMltkPJYIgxKEFfxJJYvj0y6f4VHlR+A4aJLRhFb+eBm2wQ5QfHP8tevwUmXLPrLs7qoA/PcP5tmocaQACG3hGh2vfc/jpC8C5C3F8mtwq2LVvG96p/yb12jQV7n8llX/6Ku7hP8Bz8Jf49MbGdk0QxMYhtOBXbze+Uaee9LqCD898g68kdXJ/Dv8Oz/B/Y1sqU5brdqt6vcr1a3GhMo1c16vXpm+ZPwMObsNBSQJjqzjvfZrx5WMsn9EtdZH2zY6PJx+gZIj+ctda/bP2bfiog+F8XTXeqJNw/do3wMFtOACmkVFz/dKzVBZQySqurFnsZGakzNo/ly2HbVr5+FThnT9XZODpP1s+o8812d1d2/FRV1LOPBeAuvbJUdLB2rfho70Mf/37Z0DPdm7/vPGpbeplWI2uF/FvHrySFKP4+PvpKkP9qD6aV3xk+LdZRPWjZ/80+v4rgtH4GJNwpE3Cw3sr+BrV+HcdVfg0y/bF8j/GqvC/vSDhxvWEZjyBu88QAD/+KtL/8pxf8pW/0PqTpCB+94UP75/4Llqv/5Ky/ARRoXAX/OqEcvDhN/hBxgL5p9/ahumML522ru346dIzvP/rp/A3bMMHnm14Z1qZdIZefg7DS8/wgy9XNe2J1mS7e7alrk+jvfbg4HO4fi2OH8wkF7GHtuFrQflEbqkfOFiN894EfrCYbH9fNT5NTsxG48suF/jLN6vxl1i7KDCSz7XvORyeTuAHV9KL93+b1L8fgLRrG9quxfGfOyz4twercd77DR4eeg5t9QAWk3+PZ/jBmdXU9T99meG9K6vwRxjQJsHF2JoF0sPIKhirMm1/ldRif+kZ3vtydY0NjTg4uD1lX9a+DR95nsPUmW8wAmP5/JzPVdubueVubB/jMfL6F4k/1r4NHx2UNBlW0etV+fT8W8R/efFjNv4BY/8y8u9CYRT/IvbX89+vBBZX3PE1VOGgTcl++8Gwa28VXHfEfvCY9T8/J/O+FfzPyP4i84uR/Gb1J8z1a7j3vWH0dvwSszPilxEEUT7wd+lRv0zupCcP/50V3LBV4UhD+s80WacIw0P1fSZhdx1wY1o5J1aSGL5+yLCrPs8sQmsVXmP6i7HMbHo+8oly43p68eqPMKBOWSTzxhe4+w1+cCaBf33hGR6yFfznX8fxgzMJvHf2mTZDayBf4K72y2lkOisDtPQM/2MamF5kwOwK/jGivN/WUAXGqnC4leH83ZX09XdX8EjV5yLDo+T7rn3P4f/YJ6XGBMC0/dNkLPbXsRDT3C2ZXsUNSNjdICCfoPxm4NnHFALyD3VU4dGfnuXO6AmOX8+/Rf1Xj0LFv/78wvFvQaRdz+Gjk5bUv3/frr1WTz+AmP11/Zc3boHxuTuqsGt2VbHH9GpBfZvrP/USdpm5Pkm5+h9Q+vgHjL6fnHjtrbfw9ttva/699Xov7BnxIUmX4f0SeO31VwsnO0EQmwp+SU+9hF1RhmnNmwwPo1IqgwwAWEpniCVpFf/xrJLBlSSGqSVguKMamFlN3X5+9FD8yzhw9xv8NZ7D375Zo2R31lNvqyOfWQoxPp582btTAMoXkBANEtog4eDxGryR8TZjq8qCI8Lw0FaFDlRhdz3DQ1TBjVUADA8XYdr+Km1dz2GYreL81RUU9CEGnnwQlN8EpuzDgzM+FlEWNA+ndfyZp59IYcTUo+jxwfNvQfuunVPEfbSo9ueMj0UUfd64p8SVJK3iyuw2vJlR1mMKbnyZvL7c/Q+ljX+e/iQpiK9+obP7TtYPpkc3b+LxjwfRy/6AcSrrIYiKg7/gX2R4ZJPQASCQelNCmy25IBREyaAp/2ePvsF7eX4Zqbc91Vuc/+WwQaa4QUIbGK5EsGEPyJodnx6MSfiLQ9XAn9K3dJUaU8EGIgwPwXD9QiJHBjjjdUMV2hZXcKV+G440MLTZkvpDYez/8MFT/CRSjY8824E865cN4fpnYeTXw7R9eAjGX1tDFTCTw+cKFL9mKVZ8CPt3kSi6/Xnja6jCQRvQNliDjwYz5KpTynp4JWVceP4TWcWNg9twuAP4KlcpSIX732aJf335nBh6+2V0ZC3gmXwHX/x2DHLG+9LMr3Dx1oc49oYL47RFJ0FUHPySnsgqrker8GZP+k+HXt6GA9FVfC2QnVFuSa+mbsX+4Ewi50KdsSr8++9sx3/5zjbDW/HqLVkjhvZVp29xFxnR8a0fCW02pZ5e7e9HB8XPS1MyfhKG91Xr/IWSLTq8rwqIrGJkmuHgviq0qVklk/bXyDLzDH/9J2DYsx3v1GfXCovZP9X/7IqyAOLJJyj/9CLDrraqVJlGNvryGdtHzTAe6FD0z+qr8UEO++n2z5E/VaLwQnVuvRXQfuuBFx+i+tGD799pOUT9Kz/yj0+N//Ja542vXsKu6Arez9Dvv77wDI+SJR/F979VXJkFDhzUxrSySw+reP8TtT9vftHFpP6UDP8v8Nlnn2n+/eLzcc1iX2XM58PO3kNoLWiMEASxGeBm+CWJ4R9//wxtJ5/DR13574IhSav4H3+qTpXjqIiW5eTaYUHpf0VzS/JgRoYrn5Kfte1X4aOT4m2YHZ9I+39/fRX/NTk+xlZx/voK2vLIII388Rvs/tZz+Ohkhg6T8ilfeBKGW1fx4R8BYBUPD27DgVnFvhLM2T+bVHnW8Rq0Ce5iBOjbl+efovL77zzD+bbn8LdvblvThxEi9hm5u4I3Pdvw0UlJedjQu4I3D2nb0etfJP6yS96A9C4i3OtNfq/z4kckPkT0Y4SRf4uSmQEGxPeRF41PPf8VmX+MxjfUUYVHD7/RxmJkFdej1TiYLOsptv99deUppvcpMa2WHT188BR/tShVvP+J2l9Pv3z5i6u/NVw/g69O0BadBFGJSAcGD7MXnnfj9u3bRelAqW+swnXNNopV+NHJbcB186enlvok1mKPjyDKGYoPopSQ/+UPO/BDvH/iIT78gLboJIhKovgHb+XaxSFZY399A2s4i0alj48gzEDxQZQS8r+8kW78HD+7gbI8wIwgCH2KnuEH1h5dv56DZ/QodYYfKO74CKLcofggSgn5H0EQxAYt+AmCIAiCIAiCKA35bEdAEARBEARBEESZQQt+giAIgiAIgqhgaMFPEARBEARBEBVMdVt7x9807WhEKBQqtSwlhbEa7DnZg/5uCfP3lvBNEXYoYDtacfi7z6NrYBfc/a1wSDJmZgt0BPsmxuHpw/7GyLrGqtql/eksQmF6yK6UGPnvRsTPZoG5XfAcrclrnOWun3KW3zbQjddOdMDd3wrXjjgCgcSavyn1+Erdv0aWLejflUAlz8+llL/3vQ/xVrsPVx7IG9ZnsSj+tpwEAIAxO14cbkFsZBRX/eUVbFsBh6cPrvADXPXFt2T/PMh/Ny/Kl2EXXI1pu0TH7m9aX8oF29GKw8MtsMpzuHbmEaIF/EKP+u7D61MW/oONBWs2L0od38XUr1kcnj7s78w4VI7FETx/D/4nhZPR7PjN2o+5XTh+1J56Xej4LPf5udTxYcTY57/BsVOH0HouUPbnUtCCP4kkxeE/Owa/8qLwHTTVwIoIAhMAyttniK0Ix3+LHj9lTrH0oy72mycfwHu2eF+WxbZvndMOjAcR7GyFo+kRok8K3oUhpfbfctevGflD3jF4k/9nzI4XT7UWVjiU1r9sA90Y7AUC53ypHzG2ARfcO/yF+1FT4fNzSeWfvop7qIzTp4UW/NkZJMZk3DntR0hSnbcbPQjiDpw41FcDQPsLNlcGCgBCl3y4LfBrNNf16rXqZ9bxIDDkhEOS1mQIePLZBrpT77PJAC565TV9G7Vvdnw8+QBtFiRT/8ztgscVR7C+Ba5GCaFLAWDIiWYkNDJqrg/PprIcStZrVjNm9e/VX9xm7Z/Llk57Is8sTi3c31Fk4Ok/Wz6jzzNtj85uePqScmb5AQ9d+6T8ZzTlC8ztgqc3jmtnHgEv7eX2zxuf2qZeBsnoehH/5mEUP7n6Vwld8uHWRK2hflQfzSs+MvxbFD375fpc6SOelpUTf2bnF2MssNqB2Pgycn3Tl8P8yFgNHJ0WxMbDCKEVPc5a+J/EhdrfCP8F+BlaPf8RmV/yjZ9849dIv7nkBzaPf/P6n8AuHB5uAcbT2WGHpw89uyMaHfH9qzjzM2N2uHotmB8Z1Yw36gsgCv73U0XOz5ssPnhIUhC/+8KH9098F63Xy/v0ae6CP1cGyTbQjcGTuxDL+FK19XVjMDyLqx/fw1LTLhwedsIdVJTacrwLzsUgvGdlTXsii2EAqHvJmbo+jfZax1EXQpd88PqTi9ihXQgJyidyy7d5qBXB86PwJie4wf5G+JOOZzQ+jUMD2P/uQFKvWYtmA/lsA91wBEbh9aYX7z1J/S8BkDpbYb3kw21XP3qGWhE8/wDBoS5Y7QCeJP8eQXhPy6nrB4/HcdErY0lOAJ01sLHwmgVSTF4GY7Wm7a+SWuwvBnHxrLzGhkY4jnan7MvcLniG3Yie9mMOxvItcT5XbW/mliLPPkbw+heJP+Z2wTNk0WSQRK9X5dPzbxH/5cWP2fgHjP3LyL+F2jawX1Ra277yhZe+nhd/ZucXIyRJRmgK2H90APuhn2DYrPMjAKDJjma7kp1c2pOAtdcO281lzXykJ/8S53ORH3288RnFF8DxH4H5xah/s/Erot/N7N+8/iX/LK6cR8pfJ7ALrt0JBM9n/GAX8C89zM7PS5zM+1aYnzd9fIhw/RrufW8YvR2/xOyM+GWbDf4uPWqw3FxOvbV0cxbzdjscTek/02TVFuKIqe+zGtjqgflAGIByayY0mYC10ZKfpLsb4WBM9+PMbHo+8okyP5JevC7JCaC+BjbGuOOL+u7De3oUF87NIspk3P7YB+/pUVz8JKDN0BrIF/Xd1wTfXCCikY2FZxGYAGLhBDA1i4kF5X2rvRaM2eHYnUBwNJy+fnQOMVWfcrov20A3Dg3UpMYEwLT901jSi/18Ai2J5m7JRBjzsMDWJCCfoPxm4NnHFALyt7gaEBsP5s5YCI5fz79F/VePQsW//vzC8W8BjOyXq/1csunFnyh6+hch5B3DhUsyHEcH4DnVj2Me+9q/2aTzI6CUW1inwoo/TYRzxiZPft7nZjCML5Q+/gFj/zHSbzn4N69/6cks7owDziE3XhxqAbJsJeJf64ZnH3sNrGauT1Ku8zOw+eNDBEm6DO+XwGuvv1ow0UsBv6THXgOrnP0FkEBMtqR+4QMAFuOpX8ySJOP2J0oGV5LiiC4CTlcj4JfTt9cm1+6UoEfUdx/X0I1D6q/XPMstjOQzSyHGx5NPfeDIpvmBIJiJbqqBFRY43hiAK+NtxuLKgnkhjpi9EVbUwtaYQAx21EGGYmOYtr+Krc8FK4sjOBJGIfSegicfBOU3gSn78OCMjy0oE3YskLukg6ufhcKIqUfR44Pj3yEB+xrar6kGViQQWsCmfvZG8gfg9as10E4c+47ycCLvDlOKEs2P6uv5cWVeUO5YOOHKUXZSCtQFkW58obTxz4tfrn7LxL95LN0MItjZBSfmcO3mcqrOu+j+xf3+MXl9uc/P2NzxkQ+Pbt7E4x8Popf9AeNlWtbDX/DLccSSv1KjqTctsNqTC0JBpE4XPKeU/7PJAC7mWTqh3tZRb+Ec8xhkikswiZkdnx6M1WDPkFKj6PVl1FX2ci5UWYgjhgTmz+WqWct43WSHNTyLUKMTjqY4rPak/lAY+0fH7uOK3ArP8F6gkDswcP2zMPLrYdo+PATjT8l25fC5AsWvWYoVH8L+rcN67FdntyCnrjcBkiTj1vk5HB62w9H0CEu5vvA20/zYZEezHbAdHYDnaPrvWb1SdpHzB0um/LzPCzQ+vfjaLPGvyzr0u5n9Ww+17PcOnNpyvvX4Vz7w7LMQxvyQE449QMi/jus3iE27fuGxgfqTZn6Fi7c+xLE3XBg/Hyxs4xsEf8G/IGNeboHrpVqEkgZrOe5EszyHawITqnLLMILbH/sNbzGpmalmRNY8MJeJesvJabC9Wkt/C6xTQaFbWmYRHd/60T6Ux5gdLw41ALJYQKoZjR7dmjXl17Cj3wIEHmFOTuBwf2O61Mek/TWy+AO4Zu/GYI5Fv6j9U/1PBXHxiQQwjnwQkz8WTsDaqV/bqS+fsX3WZFB2tOJwDvvp9s/RfyoeelvhuJlDbzz7FRlefIjqRw++f6flWI/9svXH3C4c6qsBC2/snsz5xEed0w6rLOsuiDfV/GivgVWew9WMenslI6j/g0Ujf4678oUcHze+BOdn3vyii9n45eq3tP7NWA32HLcjdEGRr+6lVjTLcl7fLcztwmBvAndOhzEHwHHKif3u5EOmnPFHnxR7flaesekZ2gu3nPmgvAuOoB8TFT4/b/r4SCI6v475fPjfT5TvFp3cBb8kxTFxJgjrqS54+pIBk8cuGJIkIzDemirHUREty8n1BLnSf1izPZMj4xd8PiU/a9tXfumKtmF2fCLt3xqJ4HhyfIzFERyZQyyPX8hzFx7AdrILnlMZOkzKpwS0Bc7dEdy5AABhxIacaJ5SHuKVYM7+2aTKs94YUB7EEnwwSM++PP8UlV+9JXzo3dY1fRghYp+50Tm4hp3wnJKUh6nOz8E1pG1Hr3+R+MsueQPSuyRwrxcvY8wJL35E4kNEP0YY+TcPnv0kKY6JkTk0Dyv6Y+FZXL0EDArGn9n5hdt+ztvla+27WefHFlcDYpOzORdRzc7aVL02T369z3nyi4zPOL7E5me9+ObHj7n45enX/6S0/i1JcUyM2nH4VD9sUjL+T4t/t6i7J4Uu+RCSJEhI22M/fAgJjL/Y83PIO4bYgPKdp5YdRsfu4+oTqeLn580eH5lyhqaA5t0W41LQ62fw1Yny3aJTOjB4mL3wvBu3b98uSgfqr+l5zTZhyq8pjIzm9SR4zvZzbKu1kRR7fARRzlB8lJZynx958pd6fARRztD8nEY5LyHBvYPKDvwQ7594iA8/KL8tOot/8Faup9STNZbz5X9SceWPjyDMQPGxtSH7E8TmheIzfQqzQLkkAEg3fo6f3UBZHmBW9AW/WredeTurGEdnl4pKHx9BmIHiY2tD9ieIzQvFp7Kt69VPZpMvKnvMRS/pIQiCIAiCIAiidPAP3iIIgiAIgiAIomyhBT9BEARBEARBVDAFq+GvkoDhfVZ8a58NruYaAEBgPo7f343if96LYWW1UD0RBEEQBEEQBCFKQRb826uBnw634HBvE2qbtmNbjXLjYFd8Ff37nmJofAF/fX4OT1cK0VtxULd3c2Ju3XvMc/vI2jNb3cu50nF4+uAKP1jXWGnbvc2Dkf9uRPwQhBGV7J+llL/3vQ9xbO7v8A9lerooQRAKBVnwv/VSA14dbIWttQZVlucgVVUrjdtWsL3uG7xqeQ5vzcTx365FCtFdWcKYHS8OtyA2MoqrtHDddJj5UVIJ/fMg/y0uqa3h5OIs6My2b9Y/1QOSVAqd7Ch3/9zM8T/2+W9w7FT5ni5KEIRCQRb83z7gQO1OK6os2yFlnG4mSdtQZalG7c4qfPuAY1Mv+CUpDv/ZMfiVF4XvoKkGVkQQmIDwkeEEsWng+G/R46fCqXPagfEggp2tcDQ9QlTvpMdN2r4RyoE2QOCcL7XVn23ABfcOf+G2/qtw/yyp/NNXcQ/le7ooQRAKQgv+7OONleOv0wcUdLbVo3p7NSwH30Hiyj/CcvgvACD1f/b1/4fOtnp4TvVr2g1d8gmVaaw9Xjl9bbrkIwgMOeGQpDX7yNoGutGDIO7AiUN9yvMFmRkm20B36v3sI8FF2s8lXz7j48kHKBmg/Z1r9c/cLnhccQTrW+BqlBC6FACGnGhGQiOj5vqMo6dtA90YbJxde1R9RsaJZ38R+bP16bQn8tzrtxbu7ygy8PSfLZ/R55m2R2c3PH1JOQWPhs/UV0775ChJYm4XPL1xXDvzCHhpL7d/3vjUNvUyqEbXi/g3D6P4ydW/SuiSD7cmag31o/poXvGRdbS9CHr22wj9MVYDR6cFsfEwQmhFj7MW/idxzedm+jdqv9j+yZgdrl4L5kdGNfqI+gKIYmP0u+n8M8/5J1/5C60/SQrid1/48P6J76L1evmdLkoQhAJ3wa9OGM2TD+A9m14gD57chVhywltekdCwAiQu/3dsH/xXSFz+7wCQ/v8q8HSVwXt6VNOeaE123UtOOBeD8J7NnOi01zqOuhC65IPXn1zEDu1CKONL39bXjcHwLK5+fA9LTbtweNgJd1CZ9KK++/D6kuNqzC1D81ArgudH4X2SbL+/Ef7kxNtyvCslX/b4NBM6gP3vDiT1mrVoNpDPNtANR2AUXm968d6T1P8SAKmzFdZLPtx29aNnqBXB8w8QHOqC1Q7gSfLvEYT3tJy6fvB4HBe9MpbkBNBZAxsLr1kgxeRlMFbLtT9PfpXUYn8xiItn5TU2NMJxtDtlX+Z2wTPsRvS0H3Mwlm+J87lqezO31Hn2MYLXv0j8MbcLniGLJoMqer0qn55/i/gvL36M4kMUI/8y8sf3SMAAACAASURBVG+htg3tx/MvBd78Y0iTHc12JTu9tCcBa68dtpvLim0F7WfYv0H7PMz65xIn874V/NPIv0TmHyP5zepPmOvXcO97w+jt+CVmZ8QvIwhi88DfllP9sri5nHpr6eYs5u12OJqU1/8SforVZ8DqMwYWW8TqM5b1fyAYWgSg3JoMTSZgbbTkJ+nuRjgY0/04M5ueLR+QlfVbiCOWX++YH0kvXpfkBFBfAxtjYKwGtnpgPhAGsHZ8Ud99eE+P4sK5WUSZjNsf++A9PYqLnwS0GVoD+aK++5ovn7mAtjSKhWcRmABi4QQwNYuJBeV9q70WjNnh2J1AcDScvn50DjFVn3K6L9tANw4N1KTGBEDI/mL6taQX+/l80STR3C2ZCGMeFtiaBOQTlN8MPPuYQkD+FlcDYuPB3Bk7wfHr+beo/+rBiw9R9PyL698CGNpPUH+8+ceIOqcd1qmwos+JsPbaAvRv2L5ZePLZa2A1c32ScvVPoPTzA6CvP1Ek6TK8XwKvvf5qwUQnCGJj4Zf02GtglbMXcAnEZEsqg/xPD77BIdczbLNUIXHjC1Q3tQFV1Ujc+AIAsJJYxfU5JdeQur08mRAWMuq7j2voxiE1e5NnuQUAYDGeymhJkozbn+SXYdZDkuKILgJOVyPgl9c1Pp582btPAAALC2aim2pghQWOjKOzAeX4bFsTlC8neyOsqIWtMYEY7KiDDMXGELI/T34AsPW5YGVxBEfCKOhDDDz5ICi/CUzZhwdnfGxBWbDEAsvIqVeefhYKI6YeRY8Pjn+HBOxraL8i60/Vx/y4EheSJCM05YRLLbsx2T+3fbNw48/k9eXunyjt/FBI/T26eROPfzyIXvYHjFNZD0GUHfwFvxxHLJmliabetMBqTy4IAfxhDvjjv8zjyAvNkKoAxGOAVI3VlVWwVeDzf1nGnbpd8JzaBSC5YM+zdEK9ranewjzmMcgUN9XAigRCC9iwB2SlThc8p5T/r2d8ejBWgz1DLcD4A3jVmmy3C55ewQYW4oghgflzuWo2M1432WENzyLU6ISjKQ6rPak/8O0vQnTsPq7IrfAM7wXyqt3nwPXPwsivh2n78BCIP0C5mwPk8DnB64tNseJD2L914NpvPfrLZ/5psqPZDtiODsBzNEOueqXsZsls/7z2OeJx4cm3EMb8kBOOPUDIv47rN4hNO3/z2ED9STO/wsVbH+LYGy6M0xadBFF28Et6FmTMyw1wvVSbeqvluBPNspxcECr87l+eYDWRAFZWweLLYPEYsLKK1UQCXyxHUrdavadHcy7UGbNj//f7cOz7LsNb8eotVyNa+lvSt7CLjFJSwB/f+lEyNTF5OdXfi0MNwlcrGT0LnP06Dycks0GOfjsgL2MukEBzf2M6ayRofyFZ/AFcGwecw3vh3qG1saj9U/1PzSoLPJ58gvLHwglYO+26t7n15TO2j5pBbHYp+mc7WnE4h/10++fInypB6G3NrbcC2m898OJDVD968P07Lcd67Lce/eWaf3T7t9fAKs/haoZ+LpybRUwtyTDbP6f94vunjNAU0DykjXlllx5W8f4pOn/z5h9dCqQ/0fl3zOfDzt5DaM1XToIgSg43wy9JcUycCcJ6qguePv1dMOSnq/i/fN1ZVzsAADfu+1LlOCqiZTm5dlBQ+g9rtidzZGSw8in5Wdu+kukRbUOSZATGW9c9PpH2b41EcDw5PsbiCI7MIZZHhmjuwgPYTnbBcypDh0n5lC80C5y7I7hzAQDCiA050TylPMQrQcz+oqTKs94YUB40FnwwTs++PP8UlX/pZhDBzi4cerd1TR9GiNhnbnQOrmEnPKck5WHC83NwDWnb0etfJP6yS96A9C4h3OtNfm/z4kckPkT0Y4SRf/Pg2U9Uf+udf1pcDYhNzmpjaUHGvNyC5mTZjZn+Rdovtn+GvGOIDSgxr5ZdRcfu4+oTqeL9U3T+1tMvX/7C6C/1w2y3xbgU7voZfHWCtugkiHJEOjB4mL3wvBu3b9823djg4ODaNy21kPbMYV6zTZwdL55yAiPmT08t9UmsSn2mvWjjI4hyptLjo+TzD51EbYpK9898UM5LSKzZ8jcbduCHeP/EQ3z4AW3RSRDlREEO3lJ5/vnnc74/izntG8ka0/kNrNEsGrl2oaik8RGEGSg+iM0M+Wf6FGZEuIt9AJBu/Bw/u4GyPMCMILYyBV3wT0xMoLq6WvPeysoK7nwDze3cfA/+2MxI/gCu2bsrdnwEYQaKD2IzQ/4JSE9mcfWT2eSLrTFmgtiKFLSkZ+/evdi/fz+2bVN+Rzx79gy3bt3C/fv3TbdNEARBEARBEET+bJPYCgDAYsnzIKwc+P1++P1r914rRNsEQRAEQRAA8MEHHwAAfvKTn5RYEoIoD/jbchIEQRAEQRAEUbbQgp8gCIIgCIIgKpiCPrRbzjC2HZ3fdqMDjzH223nEivDwErPvxMCJnbAm247dmcDo+NOC97PZaHqtG7sj/nWNVbVL7Z17eDBJD5SVEiP/3Yj4IfKHFz+i8UX25VPJ8VFK+Xu+/58wFPoA/+/nUxvWJ0FUIrTg3yAYq0f3iZ1Y/voeRmnhuukw86OkEvrnQf5bGtSF1m57xqFi8vymWzTy/FddDNdG1rdgNBsfrLMdr75Sn3pd6GRLucfHZp5/bv/+Cwz9xUG0/HYSc5vI5wmi3KAFfxJJeoqpz+9jSnlR+A4at6MWS5gKAqA5iyg3OP5b9PjZ4qgLVPUHQN/QU3z91eKG9W/WvrbOeuDuQ0y370RT4zxiG7jHvbXXjb59wNTndzElS8n32rHbPp16bZoKj4+Syj9zHffxEwy99E/4/30b2zVBVBJCC/7sLBNji3jw2TQWJHXydOMFzOBPaEd/j7IjT67bmZlZKgB4fPmuUJlGruvVa9O3pB8CR9qwU5LAWALTX0xkTO7G8ll73an32fSM5otUpH2z4+PJBygZmO6Otfpnne14pTOB6bqd2G2X8PjyDHCkDU14qpFRc31GhtDa60Zfw+M1i4fMjI9Z++eyZUeDVj4+Fux+XZGBp/9s+Yw+z7Q9OvbglZ6knFl+wEPXPjlKJlhnO17pSWDst/NA3x5u/7zxqW3qZTCNrhfxbx5G8ZOrf5XHl+/iftBiqB/VR/OKj3VkwAsZX5kyRGExrd9MJOkpFmaeoqN9O6yMpcaoJ38a/fjhfW5kX5H4YWw7mtq3Y/lOBAvYiRc6LZiStb5ZrPhgrB4d+7Zj4et7mvHGxmcQA39+qMj4yHP+y1f+QutPkqbg/XIUP/nzf4WWm/9EWX6CWCfcBb8asE0zflz+PL1A7vt2s+ZL1dqzB33yPEY/nUC0sRkDJ9qxe1IJ6p1DbnQsPcTlzxc17YnWZNv62lPXp9Feu/OVdjy+fBeXJ5OL2CPNWBCULzbux+Xx5LgacsvQdGQnpr+4h8tysv0XGzCVnPiMxqeZUAF0v7MvqdesRbOBfNZeN3ZO3sPlr9Jf7l1J/UcBSB3NqL18F/c796LryE5Mf+HH9BE3ahsAyMm/x0Nc/mwxdb2aIYzKT4GsxYPKspwAYxbT9ldJLfaXHuLrzxfX2NCIna/sSdmXdbbjlRMdiH02jccwli/K+Vy1vZlb2jz7GMHrXyT+WGc7XjmyXZPBFL1elU/Pv0X8lxc/ZuMfMPYvI/8WarvA8aUsyLJ0wJmfRFEXsMt3F9OxJ+B/+vFj/DnPvkLx01iPpgYl+x11PkVtTz2sY2JjNxsfUU7mfSvEh5F/iNjPSH6z+hPm5k08ePvb2Nf+T5h7KH4ZQRBp+Lv0qJP1WCL1VnTsMRYa6tHUmP4zTVYt/BTL6vtsO6x1wMJkBEA6Q1XbkOfe/O31aGJM9+PMbHo+8omy8HV68RqVnwJ1yiKZN77YuB+XP7uHP3w+jxhbxP1P7+LyZ/fw9S9mtBlaA/li49rJ//HkkkY2Js9jOgjEI0+BmceYDCvv19otYKweO9ufYvpWJH39rcdYVvUZSaT6sva60d+7PTUmAKbtn8aSXuyvoxRBc7ckuIgFbIe1UUA+QfnNwLOPKQTk39lZh+W7M7kzZoLj1/NvUf/Vo1Dxrz+/cPxbgELHVy548xMPa88evPL2Xrz6Tjvw9T3NwkzE/3TjR/BzM9g661E7s6j4S3CxoLHH9e8GC2rNXJ+kXOMDKP38BOjrTxRJuoKRi8Ar33q5YKITxFaDX9LTYEFtJIG45s0EliPbUxkuAMDS01TGRpIW8eAXSgZXkp4itgR0dDYAk4vp27szCYgSG/djDG70q9mTPMstjOQzSyHGx5Mve/cHAGCyYPuN21GL7dj5+j7sznibsQSsjcDj8FMsN9SjBhZYG55iGfWwYRHAUyxHYNr+KtaedtSyBKa/jqCgDzHw5IOg/CYwZR8enPGxsLJgWJ5MIKdeefoJF0ZMPYoeHxz/XhCwr/n4eorHYRT12Ry1RKPptW50JXWpUlT/M4lq74U7StxL0iIez7Rhd0ZZjym48W/y+nKPD5R2fiqk/mbHRrHww5fQw/6IO1TWQxB5w1/wRxJYbrCgBkAs9aYFtQ3JBaEgUkc7Xnlb+T+bnsHXeZZOqLcV1VuIR16D/qJ/g76EMzE7Pj0Y247OIzuBu35cVmuyc5QM6BJ+imU8xcLnuWomM1431qM2Mo/HDe1oanyK2oak/lAY+8fuTMAnN+OVE3uAddYv54Trn4WRXw/T9uEhGH+1dgswmcPnChS/ZilWfAj7tw7FsJ/Nvh2AwYLKxPz0+NZj7D7Rhq7OSPoZpmL6n1ka69HUAFhf2Yedr6TfZnVKWQ+v5I0Lz7/Di1g40oadTmBhch3XbxCb9vuDxwbqT3r4a4zc+U8Y+nYn7tAWnQSRN/ySnvAiFiJ12N2XvsW4c6gNTZFFLAj8eldueS+lbnVe/uxezoU6Y/XoeqsbR95qN7wVr97yNGLnizvTt5CLjOj41o8FtQ1KPb3aX/eROs41aZSM2nZ0vKiX7lKyMTtfrAfkBB5PPkXTi/XprI1J+2tkmZzB2F2g48Qe7LZrbSxq/1T/M4+VBR5PPkH545GnqG2v173NrC+fsX3UDF5Tp6J/Zt+JgRz20+2fI3+qBGBfc269FdB+64EXH6L60YPv32k51mM/Lln6ZZ3tmpruXOSan4TnP/kxpmaApp7mpK/kL78mftbxeS50/bfBgtrIY4xm2P8Pn89jOVnyUfz4WMTjGaDpiHbOUXbpYRUfH6L+wZv/dCmQ/kT9//b4KJr2H0RLvnISBMHP8EvSU0z+9iFq33bjlZ78d8GQpEVM392ZKsdRES3L0d+HOqLZHmxnRgYpn5Kfte0rmRbRNsyOT6T9+1/X49Xk+BhLYPrrx1jOI0PzeMQP67fdeOXt9jXyKV8o29HRvoQHIwCwiOUjbWiaUR4KlGDO/tmkyrNe34dawV2MAH378vxTVP7o2Aym293of6d5TR9GiNhHzcq+8na78jDfF4+x+4i2Hb3+ReIvu+QNSJeAcK83+b3Jix+R+BDRjxFG/s3DbHxJ0lNMfv0YTScU/TJ5HqOXgb41D+2ub37KhaKvnehwzuPBpJj8vP71PhedH/X8d2dnHZZnsuaK8CIWIjvRlCzrKXZ8LHx1H2O9ypyjln3F7kxgVJYqPj5E/VtPv3z5C6M/tdSrqX27cSnezf+Jy3+ubNFJEER+SAcPHmR/9md/hn/+538uSgdK/WA9FjTbKNaj++024Gvzp6eW+iTWYo+PIMqZrRgfmdsmprflrMyxEubYivGhh3JewtMcW8pqYQP/Bj/581nsbBsCAPzkJz/ZKBEJoqzhl/SYJdcuCcka1o2skSwalT4+gjADxQdB6EPxAWbfif63uoUW+wAg+f4f/J9//+sNko4gKoein7QrTc5gzK69nWrm4JnNRqWPjyDMQPFBEPpQfCjPpYz+InkiBO2+QxBFo+glPQRBEARBEIXkgw8+AEAlPQQhyjYmVQMAEonNsW8zQRAEQRCEET/60Y9KLQJBlBXFr+EnCIIgCIIgCKJk0IKfIAiCIAiCICqY6rb2jr9p2tGIUChUallKCmM12HOyB/3dEubvLeGbIjw8xHa04vB3n0fXwC64+1vhkGTMzD4reD+bDYenD/sbI+saq2qX9qezCIXpga5SYuS/GxE/xaDU/lXq/s1S7vIXkkqMD5VSyt/73od4q92HKw/0NucnCEKEou/SQygwZseLwy2IjYziqr+8JvutgMPTB1f4Aa764luyfx7kv8aUyn7KQqwLrsaMgwnDs7h25hGieSzKii0/29GKw8MtsMpzectWCPmY24XjR+2p19Gx+wUda7nHx2aef8Y+/w2OnTqE1nMBzJbZDyWC2EzQgj+JJMXhPzsGv/Ki8B001cCKCAITAGjOIsoNjv8WPX4IQ0KXfLjtl1I/AAaPx3HRu3kyonVOOzAeRLCzFY6mR4g+2bi+bQPdGOwFAud88D+Rku+54N7hT702TYXHR0nln76Ke/gP8Bz8JT69sbFdE0QlIbTgz84iMSbjzmk/QpI6eXajB0HcgROH+moAaDMoubJQQPpLKt/+M69VP7OOB4EhJxySBMbiCJ6/lzG5G8tnG+hOvc8mA5ovSpH2zY6PJx+QLIvpXKt/5nbB44ojWN8CV6OE0KUAMOREMxIaGTXXZ2QAbQPdGGycXbM4yMz4mLV/Lls67Vr5+NTC/R1FBp7+s+Uz+jzT9ujshqcvKWeWH/DQtU/Kf0ZTvsDcLnh647h25hHw0l5u/7zxqW3qZTCNrhfxbx5G8ZOrf5XQJR9uTdQa6kf10bziYx0ZbiP/WtP+OvyHn2E27l8USYojNJmAs1H7finlZ6wGjk4LYuNhhNCKHmct/E+0vlms+GDMDlevBfMjoxp9Rn0BRMGfHyoyPvK0f77yF1p/khTE777w4f0T30Xr9V9Slp8g1gl3wa8GbPPkA3jPphfIgyd3IZbxpWrr68ZgeBZXP76HpaZdODzshDuoBHXL8S44F4PwnpU17YkshgGg7iVn6vo02msdR10IXfLB608uYod2ISQoX9R3H15fclxZX5QqzUOtCJ4fhfdJsv3+RviTE5/R+DQTKoD97w4k9Zq1aDaQzzbQDUdgFF5vevHek9T/EgCpsxXWSz7cdvWjZ6gVwfMPEBzqgtUO4Eny7xGE97Scul7NAC7JCaCzBjYWXrNAisnLYKzWtP1VUov9xSAunpXX2NAIx9HulH2Z2wXPsBvR037MwVi+Jc7nqu3N3NLm2ccIXv8i8cfcLniGLJoMpuj1qnx6/i3iv7z4MRv/gLF/Gfm3KHr+pS6K9Owr4j9G9snVf/b8kg/q4np+PAw1vkouf5MdzXYl+720JwFrrx22m8tCP8jMxscSJ/O+FeLDrP2N5DerP2GuX8O97w2jt+OXmJ0Rv4wgiDT8XXrUyfrmcuqtpZuzmLfb4WhK/5kmq7YQR0x9n9XAVg/MB8IA0hkoa6MlP0l3N8LBmO7Hmdn0fOQTZX4kvXhdkhNAfQ1sjHHHF/Xdh/f0KC6cm0WUybj9sQ/e06O4+ElAm6E1kC/qu6+Z/OcC2jPXWXgWgQkgFk4AU7OYWFDet9prwZgdjt0JBEfD6etH5xBT9Smn+7INdOPQQE1qTABM2z+NJb3YX8dCRnO3ZCKMeVhgaxKQT1B+M/DsYwoB+VtcDYiNB3MvxgTHr+ffov6rR6HiX39+4fi3ILr+BfP2NbRPjv4z9S+K4+gAPKf6cfzdbjgXgxp5Sy1/ndMO61RY8ZeJcEFjj+vf9hpYzVyfpFzjAyj9/ATo608USboM75fAa6+/WjDRCWKrwS/psdfAKmcv4BKIyZZUBhkAsBhPZWwkScbtT5QMriTFEV0EnK5GwC+nb+9Oih/0FfXdxzV045CaPcmz3MJIPrMUYnw8+dQH3myaHwiCmeimGlhhgeONAbgy3mYsrixoFuKI2RthRS1sjQnEYEcdZCg2hmn7q9j6XLCyOIIjYRT0IQaefBCU3wSm7MODMz62oCwYYoFl5NQrTz8LhRFTj6LHB8e/QyW2r7qg07VPgchccNsGunHsOzWpBWAp5c++4yBJMkJTTrgyynpMwY1/k9eXe3ygtPNTIfX36OZNPP7xIHrZHzBOZT0EkTf8Bb8cRyyZJYmm3rTAak8uCAWROl3wnFL+zyYDuJhn6YR6W1G9hXjMY5ApbqqBFQmEFrBhD8iaHZ8ejNVgz1ALMP4AXrUm2+2Cp1ewgYU4Ykhg/lyumsmM1012WMOzCDU64WiKw2pP6g+FsX907D6uyK3wDO8F1lmfnBOufxZGfj1M24eHYPxZ7bUAcvhcgeLXLMWKD2H/XieFsq+ufYrAUlBGrFex+VKp5W+yo9kO2I4OwHM0/TarV8p6eCVvXHj+vRDG/JATjj1AyL+O6zeITfv9wWMD9SfN/AoXb32IY2+4MH4+WNjGCWILwC/pWZAxLzfA9VJt6q2W4040y3JyQWiMcss9krrV6T09mnOhzpgd+7/fh2PfdxneildveRrR0t+SvoVcZETHt36UTElMXk719+JQg/DVSkbNAme/zsMJyWyMo98OyMuYCyTQ3N+YztqYtL9GFn8A18YB5/BeuHdobSxq/1T/U7PKAo8nn6D8sXAC1k677m1mffmM7aNm8Jpdiv7ZjlYczmE/3f458qdKAHpbc+utgPZbD7z4ENWPHnz/TsuxLv8SjD89+3HtI0g+8tc57RlZ1xLLb6+BVZ7D1Qz7Xzg3i1iy5KP48SEjNAU0D2nnHGWXHlbx8WHW/lwKpD9R/x7z+bCz9xBaTcQSQWxVuBl+SYpj4kwQ1lNd8PTlvwuGJMkIjLemynFURMty9PeZDmu2B3NkZJDyKflZ276SaRFtw+z4RNq/NRLB8eT4GIsjODKHWB4ZmrkLD2A72QXPqQwdJuVTvlAscO6O4M4FAAgjNuRE85TyEK8Ec/bPJlWe9caA8qCx4INpevbl+aeo/Es3gwh2duHQu61r+jBCxD5zo3NwDTvhOSUpD/Odn4NrSNuOXv8i8Zdd8gakd+ngXm/ye5MXPyLxIaIfI4z8WxR9/xKLPyP/MbJPodDIr/H/0srf4mpAbHJWO1csyJiXW9CcLOspdnyEvGOIDShzjlr2FR27j6tPpIqPD7P+y5e/MPpL/TDbbTEuxbt+Bl+doC06CWI9SAcGD7MXnnfj9u3bRelAqR+0Y16zTZsdL55yAiOjee1EkLP9HNu6bSTFHh9BlDMUHwShD8VHGuW8hMSaLYezYQd+iPdPPMSHH9AWnQSRD8U/eCvXLgnJGvv5zXMuzPqp9PERhBkoPghCH4qP9CnMiHAX+wAg3fg5fnYDZXmAGUGUkqJn+AGs2avYzMEy2ZQ6ww8Ud3wEUe5QfBCEPhQfBEFsBBuy4CcIgiAIgiAIojTwd+khCIIgCIIgCKJsoQU/QRAEQRAEQVQwtOAnCIIgCIIgiAqmuq2942+adjQiFAqVWpaSojz824P+bgnz95bwTRF2AGA7WnH4u8+ja2AX3P2tcEgyZmafFbyfzYbD04f9jZF1jVW1S/vTWYTC9BBbKTHy342In3Kk3P233OXfSCo5Pkopf+97H+Ktdh+uPNgi2xYRRJEo/racBIDk3srDLYiNjOLqFtpbuVxwePrgCj8o6GFI5dQ/D/LfzQ1zu3D8qD31utAHe5kltfWiPLeuQ/vMxkex9VPu8bGZ55+xz3+DY6cOofVcgPbdJwgT0II/iSTF4T87Br/yovAdNNXAiggCEwBoziLKDY7/Fj1+CF2UA4uAwDlfaitH24AL7h3+TbO1Y53TDowHEexshaPpEaJ6J6kWgQ3RT4XHR0nln76Ke6DTdQnCLEIL/uzjtRmTNQdk2Aa60YMg7sCZ2k84M4Oy9nhuhdAln9De+bmuV69N78MfBIaccEjSmn2MefJl7oOceaR5Zt9G7ZsdH08+IFkW07lW/8ztgscVR7C+Ba5GCaFLAWDIiWYkNDJqrs84+tw20I3BxlnNmNW/VzM+Zu2fy5ZOeyLPvaZr4f6OIgNP/9nyGX2u2QO7sxuevqScWX7AQ9c+Oc6JYG4XPL1xXDvzCHhpL7d/3vjUNvUymEbXi/g3D6P4ydW/SuiSD7cmag31o/poXvGR4d+i8DLAevYVvd7If83Iz5gdrl4L5kdGNe1FfQFEodP+BsvPWA0cnRbExsMIoRU9zlr4n2h9s1jxIaKfLRcfec5/+cpfaP1JUhC/+8KH9098F63X6XRdglgv3AW/GrDNkw/gPZteIA+e3IVYxqRu6+vGYHgWVz++h6WmXTg87IQ7qAR1y/EuOBeD8J6VNe2JHpRV95IzdX0a7bWOoy6ELvng9ScXsUO7EBKUL+q7D68vOa7G3DI0D7UieH4U3ifJ9vsb4U9OfEbjyz5UZf+7A0m9Zi2aDeSzDXTDERiF15tevPck9b8EQOpshfWSD7dd/egZakXw/AMEh7pgtQN4kvx7BOE9LaeuHzwex0WvjCU5AXTWwMbCaxYYMXkZjNWatr9KarG/GMTFs/IaGxrhONqdsi9zu+AZdiN62o85GMu3xPlctb2ZW9o8+xjB618k/pjbBc+QRZPBFL1elU/Pv0X8lxc/ZuMfMPYvI/8WwUh/qr707MvTv0qm/2bPH6bkF7hzWHL5m+xotisyLu1JwNprh+3mstAPGrPxscTRz1aID0P7C8x/RvKb1Z8w16/h3veG0dvxS8zOiF9GEEQa/i496mR9czn11tLNWczb7XA0pf9Mk9VZiCOmvs9qYKsH5gNhAMqtwdBkAtZGS36S7m6EgzHdjzOz6fnIJ8r8SHrxuiQngPoa2Bjjji/quw/v6VFcODeLKJNx+2MfvKdHcfGTgDbDZiBf1HdfM/nPBSIa2Vh4FoEJIBZOAFOzmFhQ3rfaa8GYHY7dCQRHw+nrR+cQU/Upp/uyDXTj0EBNakwATNs/jSW92M9nok+iuVsyAudtfwAAIABJREFUEcY8LLA1CcgnKL8ZePYxhYD8La4GxMaDuRdrguPX829R/9WjUPGvP79w/FsAQ/2Bb1/e9UDW/KSZP0zKb6+BlfMnpZa/zmmHdSqs+MtEuKCxx/Vvnn4qPD6A0s9PgL7+RJGky/B+Cbz2+qsFE50gthr8kh57Daxy9gIugZhsSWWQAQCL8VTGRpJk3P5EyeBKUhzRRcDpagT8cvr27mRCWMio7z6uoRuH1OxJnuUWRvKZpRDj48mnPvBm0/xAEMxEN9XACgscbwzAlfE2Y3FlwbwQR8zeCCtqYWtMIAY76iBDsTFM21/F1ueClcURHAmjoA8x8OSDoPwmMGUfHpzxsQVlwRALLCOnXnn6WSiMmHoUPT44/h3i2FddcOnqD8b2FbneEJPyi1BK+ecWFHvPjytxL0kyQlNOuDLKekzBjX+T15d7fKC081Mh9ffo5k08/vEgetkfME5lPQSRN/wFvxxHLJkliabetMBqTy4IBZE6XfCcUv7PJgO4mGfphHpbUb2FeMxjkCluqoEVCYQWsGEPyJodnx6M1WDPUAsw/gBetSbb7YKnV7CBhThiSGD+XK6ayYzXTXZYw7MINTrhaIrDak/qD4Wxf3TsPq7IrfAM7wXyqt3nwPXPwsivh2n78BCMP6u9FkAOnytQ/JqlWPEh7N8c9PQnal9d/fMwK/9EGPNDTjj2ACH/2o9LLn+THc12wHZ0AJ6jGXLVK2U9vJI3Ljz/XjDWT6XHx2aZnwqBNPMrXLz1IY694cL4+WBhGyeILQC/pGdBxrzcANdLtam3Wo470SzLyQWhMcot30jqVqf39GjOhTpjduz/fh+Ofd9leCtbveVpREt/S/oWcpERHd/6UTIlMXk51d+LQw3CVysZNQuc/ToPJySzMY5+OyAvYy6QQHN/YzprY9L+Gln8AVwbB5zDe+HeobWxqP1T/U/NKgsMnnyC8sfCCVg77bq3mfXlM7aPmsFrdin6ZztacTiH/XT758ifKgHobc2ttwLabz3w4kNUP3rw/TstRy77cfUnYF/j64stv4zQFNA8pI0pZRcaVnr57TWwynO4mmH/C+dmEUuWfBQ/Pjj6qfD4EP3+4M1/uhRIf6Lz/5jPh529h9C6Dl8liK0ON8MvSXFMnAnCeqoLnr78d5GQJBmB8dZUOY6KaFlOrh0MlP7Dmu3BHBkZpHxKfta2r2RaRNswOz6R9m+NRHA8OT7G4giOzCGWR4Zm7sID2E52wXMqQ4dJ+ZQvFAucuyO4cwEAwogNOdE8pTzEK8Gc/bNJlWe9MaA8aCz4YJqefXn+KSr/0s0ggp1dOPRu65o+jBCxz9zoHFzDTnhOScrDfOfn4BrStqPXv0j8ZZe8AeldOrjXm/ze5MWPSHyI6McII/8WwVh/fPsaXb8R8oe8Y4gNKDGlltVEx+7j6hOp5PK3uBoQm5zVzhULMublFjQny3qKHR/G+qns+BD9/tDTL1/+wugv9cNst8W4lO36GXx1grboJIj1IB0YPMxeeN6N27dvF6UDpX7QjnnNNop2vHjKCYyM5rUTQc72c2zrtpEUe3wEUc5QfBCEPhQfaZTzEhJrtozNhh34Id4/8RAffkBbdBJEPhT/4K1cuyQka+znK+Gk7EofH0GYgeKDIPSh+EifwowId7EPANKNn+NnN1CWB5gRRCkpeoYfwJq9ivM9eMOIUmf4geKOjyDKHYoPgtCH4oMgiI1gQxb8BEEQBEEQBEGUBv4uPQRBEARBEARBlC204CcIgiAIgiCICoYW/ARBEARBEARRwVS3tXf8TdOORoRCoVLLUlKUh3970N8tYf7eEr4pwg4AbEcrDn/3eXQN7IK7vxUOScbM7LOC97PZcHj6sL8xsq6xqnZpfzqLUJgeYislRv67EfFDiMHcLniO1pAd1gnpb31U8vxQSvl73/sQb7X7cOXBFtm2iSgaxd+WkwCQ3Ft5uAWxkVFc3UJ7K5cLDk8fXOEHwocNVVr/PMh/CSOY24XjR+2p1/kc3LUVSG09Kc+t69BCs/NDse1T7vPDZp5/xz7/DY6dOoTWcwE6d4AwBS34k0hSHP6zY/ArLwrfQVMNrIggMAGAYpYoNzj+W/T4ITYtyoFJQOCcL7WVpG3ABfcOP20tmaTOaQfGgwh2tsLR9AhRvZNki8CG2KfC54eSyj99FfdApwsT5hFa8Gcfr82YrDkgwzbQjR4EcQfO1H7CmRmEtcdzK4Qu+YT2zs91vXpteh/+IDDkhEOS1uxjzJMvcx/k7CPtRdo3Oz6efECyLKZzrf6Z2wWPK45gfQtcjRJClwLAkBPNSGhk1FyfcfS5baAbg42zmjGrf69mPMzaP5ctnfZEnntN18L9HUUGnv6z5TP6XLMHdmc3PH1JObP8gIeufXKcE8HcLnh647h25hHw0l5u/7zxqW3qZfCMrhfxbx5G8ZOrf5XQJR9uTdQa6kf10bziI8O/ReFlQPXsqze+zNjnfW7Uvqh9Mq9XdJCW3cz8wtUbs8PVa8H8yKhGnqgvgCj449sK+mOsBo5OC2LjYYTQih5nLfxPtLFZrPlBxD5bbn7Ic/7PV/5C60+SgvjdFz68f+K7aL1OpwsT64e74FcdtnnyAbxn0wvkwZO7EMv4UrX1dWMwPIurH9/DUtMuHB52wh1UnLrleBeci0F4z8qa9kQPyqp7yZm6Po32WsdRF0KXfPD6k4vYoV0ICcoX9d2H15ccV2NuGZqHWhE8Pwrvk2T7/Y3wJwPfaHzZh6rsf3cgqdesRbOBfLaBbjgCo/B604v3nqT+lwBIna2wXvLhtqsfPUOtCJ5/gOBQF6x2AE+Sf48gvKfl1PWDx+O46JWxJCeAzhrYWHjNAikmL4OxWtP2V0kt9heDuHhWXmNDIxxHu1P2ZW4XPMNuRE/7MQdj+ZY4n6u2N3NLl2cfI3j9i8Qfc7vgGbJoMnii16vy6fm3iP/y4sds/APG/mXk3yIY6U/Vl559o5LEnZ94n4v4j9H8kz1+ZUEkrj/e+AwRuHO55fXXZEezXdHR0p4ErL122G4uC/0gNTs/LHHssxXmB0P7CMz/RvKb1Z8w16/h3veG0dvxS8zOiF9GEJnwd+lRJ6uby6m3lm7OYt5uh6Mp/WearNpCHDH1fVYDWz0wHwgDUG6NhSYTsDZa8pN0dyMcjOl+nJnxyUc+UeZH0ovXJTkB1NfAxhh3fFHffXhPj+LCuVlEmYzbH/vgPT2Ki58EtBlaA/mivvuayW8uENHIxsKzCEwAsXACmJrFxILyvtVeC8bscOxOIDgaTl8/OoeYqk853ZdtoBuHBmpSYwJg2v5pLOnFfj4TXRJNRm8ijHlYYGsSkE9QfjPw7GMKAflbXA2IjQdzZ4wEx6/n36L+q0eh4l9/fuH4twCG+oOgfXn9GXwu0r7+/LN2/LkwM78YYq+BlfMnW11/dU47rFNhJV4mwgWde7jxzbNPhc8PQOnnZ0Bff6JI0mV4vwRee/3VgolObD34JT32Gljl7AVcAjHZksogAwAW46mMhSTJuP2JksGVpDiii4DT1Qj45fTtzcmEsJBR331cQzcOqdmDPMstjOQzSyHGx5NPfeDLpvmBIJiJbqqBFRY43hiAK+NtxuLKgnkhjpi9EVbUwtaYQAx21EGGYmOYtr+Krc8FK4sjOBJGIfSegicfBOU3gSn78OCMjy0oX5ixwDJy6pWnn4XCiKlH0eOD498hjn3VBYeu/sC3L29+4n1uPr4TCC3oiq9QrPlFgK2sP9Xf58eVeU+SZISmnHBllPWYgjv/mby+3OcHlHZ+LqT+Ht28icc/HkQv+wPGqayHWAf8Bb8cRyyZJYim3rTAak8uCAWROl3wnFL+zyYDuJhn6YR6W029hXbMY5ApFp3EC4jZ8enBWA32DLUA4w/gVWuyc9xy1mUhjhgSmD+Xq2Yw43WTHdbwLEKNTjia4rDak/pDYewfHbuPK3IrPMN7gbxq9zlw/bMw8uth2j48BOPPaq8FkMPnChS/ZilWfAj7Nwc9/Ynalzc/6X1eDP+ps1tyjiUXpvufCGN+yAnHHiDkX3/7Fau/Jjua7YDt6AA8RzOuq1fKenglf1x48b1gbJ9Knx82y/xcCKSZX+HirQ9x7A0Xxs8HC9s4sSXgl/QsyJiXG+B6qTb1VstxJ5plObkgNEa5ZRpJ3erznh7NuVBnzI793+/Dse+7DG/tqrf8jGjpb0nfQi0youNbP0qmICYvp/p7cahB+Golo2SBs1/n4YRkNsLRbwfkZcwFEmjub0xnLUzaXyOLP4Br44BzeC/cO7Q2FrV/qv+pWWWBx5NPUP5YOAFrp133Nqu+fMb2UTNYzS5F/2xHKw7nsJ9u/xz5U7fAe1tz662A9lsPvPgQ1Y8efP9Oy5HLflz95Rl/vPlp7efm4jvbvszt0tRU8xHrX19/MkJTQPOQNqaVXWBY3uOrOP3Za2CV53A1w/8vnJtFLFnyUfz5gWOfCp8fRP2DN//rUiD9iX7/jfl82Nl7CK35ykkQEMjwS1IcE2eCsJ7qgqcveYssj10wJElGYLw1dTtWRbQsJ9cT/Er/Yc32WI6MDEo+JT9r21cyDaJtmB2fSPu3RiI4nhwfY3EER+YQyyNDMXfhAWwnu+A5laHDpHzKhGqBc3cEdy4AQBixISeap5SHeCWYs382qdvzbwwoDxoLPpilZ1+ef4rKv3QziGBnFw6927qmDyNE7DM3OgfXsBOeU5LyMNv5ObiGtO3o9S8Sf9klD0B6lwru9Sa/N3jxIxIfIvoxwsi/RTDWn7F9efMT73Oz8S1JcUyMzKF5WLEvC8/i6iVgUPh68/NLyDuG2IAS02pZVXTsPq4+4Y+v0vXX4mpAbHJWO1cuyJiXW9CcLOsp9vxgbJ/Knh9E/UNPv3z5C6O/1A+z3RbjUsTrZ/DVCdqik1gf0oHBw+yF5924fft2UTpQ6ufsmNdso2jHi6ecwMhoXk/i52w/x7ZmG0mxx0cQ5QzFB0EQetD8kEY5LyHB3RKXHfgh3j/xEB9+QFt0EvlR/IO3cu0SkKyxn6+Ek6IrfXwEYQaKD4Ig9KD5IX0KMyJC519IN36On91AWR5gRpSWomf4AazZqzffgyeMKHWGHyju+Aii3KH4IAhCD5ofCGJj2JAFP0EQBEEQBEEQpYG/Sw9BEARBEARBEGULLfgJgiAIgiAIooKhBT9BEARBEARBVDDF36WnTFAf/nVibt17zHP7yDriW93ru9JxePrgCj9Y11g3w0PZhIKR/25E/BDlTSX7T7nLX2pIf+ah+CoOve99iGNzf4d/qIDTjWnBv0EwZseLwy2IjYziKi1cNx1mfpRUQv88yH/NUWz7mm2fuV04ftSeel3oZES5+0+p4jPnwWNMFtq+cTNR6vkttfWlvL4FI8VXcSm1fxgx9vlvcOzUIbSeC5T9uQe04E8iSXH4z47Br7wofAdNNbAigsAEgPL2GWIrwvHfoscPUTSUA3+AwDlfaitE24AL7h3+wm2NWOH+U2z5Qxmnkjs8feg55QbKbNFvRLH1V+e0A+NBBDtb4Wj6X+2dy28byZ3Hv409kCJtN83w4Z2RuulBLEO2JHog+5ChYfriHOTMafaU0QC555R/YLBA9pI/IHvwdTzH5OIHgiRARENKAozsESlZhuWDxJYyMR+R2LLYIncX6D30g2yS3VVkd4siVR9ggDGp6vrV71XFquqq96jb3WTrAyy+3DNU+f+xhrcYj9uNqQb8nbMMnTMM4fQ0ZiDhDQTzPN1ey0ntsxSANYn1U3972daWDwnICIhzXNc5viT52s8Bbr/Su71up+e7bR9JPkBL8jemuvWvpkRkxQakiwmIEQ6VlSKQERBD0yKjpXzb1d/h9DQWIiVLm42/N35xu7V/L1sKfLPPs5YnkPqZJgNJ/53yOX1vOQN6ahrZOV3ODj8gYWufHluS1JSI7GwDL5+8B25dJ9ZPap/xTLsZJKfyNP5Nwil+etVvUFnJ4/XOhKN+DB/tKz7ar7anxC/90fqXnfzGzCQ2W7Nf8ewcZia1S3oUCv9xbLfKQ5wNoLpasNi7ni+iDnL8jKX/9Jkf+pXfrf7KhTLESR7hKFA57L//HaR+p/hyqt8L/ZHqdxofGN/HpwJQNmuoIIkZYQK7h1bd+JWfWXz1sN8Zj69OOE7Cn/+Ux9cPvkDy1Wjfbkwc8BsKi+29Q+5pa4C88PkVKO1BPzeNhVoJa9+8xXH0Cu4sCkhJmlIT969B+CAh91S2PI92T/aFW4JZvoW1bPyuiMpKHrldfRCbuYIKpXz1/DZyeb1dkd4yxDJJSM8LyOmd+MJ8BLu64zm1r/NSkRtfpXW9dgyaHeQLp6cRLxaQy7XN8Oj6PwbATSURWsljS5zHTCYJ6fk7SJlrCPEADvW/h4TcY9ksv3C/gRc5GcdyE5gKIqzWugZIinwCVZ1wbX8Dc7D/QcKLp3KXDZ2I35027aumRGQXU6g/3kUZzvIdE743bO9mSZFkHydI9dPEn5oSkc0ELDNItOUN+ez8m8Z/SfHjNv4BZ/9y8m8a/NQfjX85yc8dlvDdc5jt3cEViJNNSM/13OHWfwkzg+fBf5zil8Z+TvK71Z/b9u0ckPKjhlP/SRNftvp1qT/THg71E8cHUR4xXvPx46tNhGZ5hNdPqCYE3ObnYxZfYxFfePUSb3++iNmPf4fSD/TFzhrkU3qMYFk/MT86Xi+hyvOIR1t/ZvnVfdCAYnyuBhG+CFSLNQDa0kxlr4lQJNCfpJMRxFXV9uv2X/T9yEdLdbU1eD2Wm8DFIMKqSmxfPb+N3OMClp+VUFdlbH2TR+5xAS++LVpnaB3kq+e3LcFXLh5ZZFNrJRR3AKXWBPZL2DnQPg/xE1BVHvHJJqRCrVW+UIZi6FNu1RVOT+N2Omi2CYBr+7cItAb7/QSajmW1ZKeGKgIIRynko5TfDST7uIJC/oR4Ccqm1HvGgrL9dv5N6792eBX/9vmF4N8U+Kk/Yrso5OcOS3izCQiZFG5mEoCdrIPABxFy+n7M/QcYfvwC/flPYj6BkCyjctD6zLZ9lPXb9Z+08eW2f7WDOr4d4v2CwCO0X9P8bafmae4n6pfF18jFVy847u/I/QX47Kc/8Uz0YUDe0sMHEZI7A7gJRQ6YM8gAgA8N8xczx8nY+labweW4BuofAEGMALtya3ltr0ktZD2/jZeYxm3j12uf2y2c5HOLF+0jydf59j0AqDXKmbxoECEEEH+Yhtj2sao2tAHzQQMKH0EIEwhHmlDA4wJkaDaGa/sbhOdEhNQGpNUavNC7CUk+UMrvAlf2IUFon3qgJWyleIKeeiXp56C7iJf4Hh8E/64Q7Gt0eEPTH6X8x+sSpCn9lIr1k9Pbxzru/oPhxi+t/uJ308je1WXbK2orpO0+YNe+lMv6aePLp/6Vpn6n8YHhL9VNrd/hOBmVfQFi27YeVxD7H5flWXw5c4r6e7++jn/9agGz6t+wOaLbesgDfrkBRf+VWjc/DCDE6wNCSrgpEdkl7f/VvSJe9Ln0bCzrGEs497IOM8XRIEJoajMgp2QXt+2zQ1WDuJrR9vDmjD2ZKRHZWcoHHDSgoInqs1571qzLnqFaCZWIgHi0gRCv6w/e2L++sY3v5CSyi9eBvvbuEyD6pzfy2+HaPiQo4y/ETwDo4XMexa9b/IoPav8mMDT9UcpvbFt4A6Gv7UpEdmqoZgTErwKV3R7fj7n/nJX4JUH7Ppgn9bf3n/AmvgaGMj5sxwdRHjEeCLf9YAIA9aK2rYe05ZIISb8HLL5GIb5o4H74PV68foR7D0VsjugRneQtPQcyqvIliLcmzI8S9wXEOpYU7dCW5I7Mpabc40LPzkpVedz4cg73vhQdl+KNJScnEvOJ1hKez9C2b3C0X6qKfGLWdzNzibq0NqMRgDBv83KC/ms4Ps8D8gnKxSZi85HWr2aX9rfIslvEy01AWLyO1GWrjWntb9a/X9I6AJJ8lPIrtSZCU7ztMp+9fM72MWZQYqKmf/VyEnd62M+2foL85hLsbLK33jy03yCQ4oNWP3aQ/bslRy/7nZb+7OxLI7+aErEw28Sb5RrKyxKqkwJupKzPGdR/tfqBWMYak9opIurY+w9tfiXp15Yh62+Q+tv7T9r4IjGo/vqtv2t8wAcRkstYa/Of5WclKPqWD//zM4uvUYgv2vHHRj6PH83eRrJfOc8IxBl+jmtg54mE0NI1ZOd6vyXvXF5GcTNpLrcZ0J8i0eMc4loJL5/ULEuaXUuetC/sdT1f+6VL+wy37aN5/uvVI9zX26eqDUirZSh9/EIuL79D+PNryC616VCXTwvoAITJI7xZBoAalIyA2L72Ei8Hd/bvxFx+fZjWXjSmnLWysy/JP2nlN7ZM3P4q2VWHEzT2KRfKEBcFZJc47WWq52WIGetz7Oqnib/OJW2gdUoCsbzLvEWKH5r4oNGPE07+TcNp6M/Jv5zkN04PqqzktQEYWv52A+37rgfzXwCo5DagpLWYNLZN1De2sXbIjb3/0OZXO/2S5fdXf+T20dXv1H+6jS9gcP2R6ieNDxLiJSh7JWtfdSCjKicQ07f1+J2fWXyd/fgyf5hNBpy3gr56gr8+GN0jOrlPF+6oP/4kha2tLV8q0PZv8ahajlHkcXNJAFbd35467JtY/W4fgzHKsPhguIH5j78Mu/9kDBcWXy20+xKaxEvt1E9/ia8f/BOPfjN6R3T6f/FWr7fU9T2C1VPco+Yb494+BsMNLD4YbmD+w2D4B4uv1i3MOKK6wZr7/rf49fcYzQvM/J7hB9B1Vmy/Fx84cRZmKPxsH4Mx6rD4YLiB+Y9/nIX+kzFcWHydH05lwM9gMBgMBoPBYDCGA/mUHgaDwWAwGAwGgzGysAE/g8FgMBgMBoMxxrABP4PBYDAYDAaDMcb4f0rPiGC8vCSgPPAZ88Q6Oq6YNs76Hnfi2TmItXcDtZW9VHZ2cPLf04gfxvCgse9ZzW/tLyV6dT/KODLO8T1M+Wd/8Qj3yv+F/x7R21kZ4wMb8J8Sqsrj5mICymoBa2zgeuZw86NkHOonwfzXHX7b19WP6pSI7GzD1UDoLPtHPb+NXF4/Z3vAC2PNo/vkwQaMbu1vXMBm4PWPqbNsPxrOcv7c+OMfcG/pNpLPiiN3bjtjvGADfh2Oa2D36QZ2tX94X0E0iBCOUNwBwGKeMWoQ/Nf3+GEMFaJ9xzy/XRB4YFOCNJVEPPoedbubOH1AuxAIKD7Lm0clhtMiUpd3vTs6cczje6jy/2MNbzG6t7MyxgeqAX/n9caqKlsuKAinpzEDCW8gmEunvZYD26+/BoDKSp5qm0av8kbZ1pYPCcgIiHNc1zmyJPmclnxpnu+2fST5AG0G48ZUt/7VlIis2IB0MQExwqGyUgQyAmJoWmS0lG+7elqb9Sp1LXO3z5i4tX8vWwp8s8+zfieQ+pkmA0n/nfI5fW85g3hqGtk5Xc4+l/5t7dNjS1L7jCpuXSfWT2qf8Uy7GUCn8jT+TYK0ZcIpPl7vTDjqx/DRvuKj42p7GvzSH61/2clvzCxjszV7Gc/OYWZSuyRGofAft3ixJYZkHzv997wJtNdnLmfAneRT1SDiUwEomzVUkMSMMIHdQ6tv+BXfqspDnA2gulqwxGM9X0Qd5Pw2lvHdZ/7uV36v9cdxEv78pzy+fvAFkq9G73ZWxvhAHPAbDh/be4fc09YAeeHzK1DakmJ4bhoLtRLWvnmL4+gV3FkUkJK0oEjcvwbhg4TcU9nyPNo92RduCWb5Ftay8bsiKit55Hb1QWzmCiqU8tEs+cYySUjPC8jpnfjCfAS7euJwal/npRY3vkrreu0YNDvIF05PI14sIJdrDd5ndP0fA+Cmkgit5LElzmMmk4T0/B2kzDWEeACH+t9DQu6xbJZfuN/Ai5yMY7kJTAURVmtdAyRFPoGqTri2v4E52P8g4cVTucuGTsTvTpv2VVMisosp1B/vogxn+Y4J3xu2d7MkTLKPE6T6aeJPTYnIZgKWGUDa8oZ8dv5N47+k+HEb/4Czfzn5Nw1+6o/Gv5zk5w5L+O45zPbu4ArEySak53ru8MB/STjZl8Y/SPZx0j8OZFTlBGJtg+wLAo/Qfsky2LctTwHRf6I8Yrw2+318tYnQLI/w+gnVD0q38X1MmHk/D/HtlF9p4stJfrf6o+bVS7z9+SJmP/4dSj/QF2MwvIR8So+R7NZPzI+O10uo8jzi0dafWWZFDhpQjM/VIMIXgWqxBkBbWqvsNRGKBPqTdDKCuKraft0+m96PfLRUV1uD12O5CVwMIqyqxPbV89vIPS5g+VkJdVXG1jd55B4X8OLbonWG1kG+en7bkjzLxSOLbGqthOIOoNSawH4JOwfa5yF+AqrKIz7ZhFSotcoXylAMfcqtusLpadxOB802AXBt/xaB1mB/gBlCy2rJTg1VBBCOUshHKb8bSPZxBYX8CfESlE2p92CHsv12/k3rv3Z4Ff/2+YXg3xT4qT9iuyjk5w5LeLMJCJkUbmYSgJ2sQ4DkHzTtc9I/xzWws3mE0BRv5tv4VMD0J1J5EjTyaT8wapq/79Q8zR1E/+KDCLkprzOq8Q0MP78Cg8e3Acf9Hbm/AJ/99Ceeic5g9At5Sw8fREjuHMA1ocgBcwYZAPChYc54cJyMrW+1GVyOa6D+ARDECLArt5ZH95rUQtbz23iJadw2Zh8GWVa2kc8tXrSPJF/n6QkAoNYoZ/KiQYQQQPxhGmLbx6ra0AbMBw0ofAQhTCAcaUIBjwuQodkYru1vEJ4TEVIbkFZr8HSTL0k+UMrvAlf2IUFon3qgdbhK8QQ99UrSz4E3Ytrhe3wQ/LtCsK8xYBma/ijlP16XIE3pp4ysn4zOPmpC+8ok/wW0QXZG2zt/DB4xlPFGn/Em2s8D+eJTAVQ3tbzFcTIq+wLEthUHVxDzl8vyox7fGG5+9VJ/79fX8a99NNmtAAAgAElEQVRfLWBW/Rs2RyV+GWMFecAvN6Doswx188MAQrw+IKSEmxKRXdL+X90r4kWfS8/GspyxBHcv6zBTHA0ihCYqBzi1F8jcts8OVQ3iakbbw5sz9hSnRGRnKR9w0ICCJqrPeu05bPt3lEeoVkIlIiAebSDE6/qDN/avb2zjOzmJ7OJ1oK+9+wSI/umN/Ha4tg8JyvgL8RMAevicR/HrFr/ig9q/CQxNf5TyG9sa30Doa7vS0KFsn63+AcsguwIe2JO6ttM4lXclX5RHjAfCd9PI3m19o17UtvWQtuwRIfnXQQ3VjID4VaCyO0D5U+LM9n8kTlF/3A+/x4vXj3DvoYhNdkQnYwiQt/QcyKjKlyDemjA/StwXEJNlfUDojLZkemQuFeYeF3p2VqrK48aXc7j3pei4FG8sGTqRmE+0lmB9hrZ9g6PNNCjyiVnfzcwl6tJaZxmAMG93Hp02mxGf5wH5BOViE7H5SGvWw6X9LbLsFvFyExAWryN12WpjWvub9Rt7eEnyUcqv1JrmtoFe2MvnbB9jBiwmavpXLydxp4f9bOsnyG8uoc8me+vNQ/sNAik+aPVjB9m/W3L0st9p6c/OvjTyqykRC7NNvFmuobwsoTop4EbK+pzB/ddfSO0j6l+nXCgDswJmppqW7Re05QeVT5sBLmOtzX+Xn5Wg6Fs+/I9vGZV9IJax5kztlB517OObtv8j+b8tHumPNr428nn8aPY2kqcYgwyGAXGGn+Ma2HkiIbR0Ddm5/k/B4DgZxc2kuR3HgHZbTq8TALT6a5Zl7XjbDEw/W366n6/NVNA+w237aJ7/evUI9/X2qWoD0moZSh8zHOXldwh/fg3ZpTYd6vJpCTkAYfIIb5YBoAYlIyC2r73Ey8Gd/Tsxt2c9TGsvGlO+2GVnX5J/0spvbJm4/VWyqw4naOxTLpQhLgrILnHay3DPyxAz1ufY1U8Tf51b3oDWKRfE8i77HVL80MQHjX6ccPJvGk5Df07+5SS/cfpMZSWPCseBQ8vfbqD9vaXB/NeAiyTNsu1tNF56HzQ/ktoHOOvfRH95V/hQ6prIcSpPk9+d5EuIl6Dslay5ruNFYr/ju5LbgJLWcqax7ai+sY21Q27s45u2/7PTL1l+b/Rn/jCbDDhvJXz1BH99wI7oZAwH7tOFO+qPP0lha2vLlwp6HqGm8ri5JACr7m9PHfZNrH63j8EYZVh8MLxg2Hme0RsW3y20+xKaXUcmd6J++kt8/eCfePQbdkQn43Tx/+KtXqcM6HvsqyOyDdWRcW8fg+EGFh8MD7hwS9BeWB7Ti71GFhbfrVuYcUQc7AMA9/1v8evvMTov3jPGBt9n+IHus5r7vbjCibMw8+Nn+xiMUYfFB2NQDN/pddkc42zA4pvBGA1OZcDPYDAYDAaDwWAwhgP5lB4Gg8FgMBgMBoMxsrABP4PBYDAYDAaDMcawAT+DwWAwGAwGgzHG+H9Kz4hgvPwroDzwGfPEOjquCO86a3pMiWfnINbeDdTWs/BSNkPDyX9PI34YDMb4Ms75ZZjyz/7iEe6V/wv/zW73PfewAf8poao8bi4moKwWsMYGrmcONz9KxqF+Esx/3eG3fQd9vnFmemizVVY7Txxjc9JKr8sbR22yxTz6UR5swOjW/4wL4Ay81t+o55eznL83/vgH3Fu6jeSzIjv3/5zDBvw6HNfA7tMN7Gr/8L6CaBAhHKHIzpFmjCIE//U9fhj+EA0iJDeBKR7h9RMcYwLxKUAZkzPUjcF+bO8dck/P3mCMlgsCD2xKkKaSiEffo253k6sPGD8Ai8/y5g/AcFpE6vKudz8Ixzy/DFX+f6zhLdjtvgzKAX/nDEnnmcjh9DRmIOENBPM83l7Lce0zLABQWclTbdPoVd4o29ryIQEZAXGO6zoHmCRf+znCnVfG0zzfbftI8gHaDMKNqW79qykRWbEB6WICYoRDZaUIZATE0LTIaCnfdnV4OD2NhUjJ0mbj740ZC7f272VLgW/2OYM4gdTPNBlI+u+Uz+l7yxnSU9PIzulydvgBCVv79NiSpKZEZGcbePnkPXDrOrF+UvuMZ9rNwDmVp/FvEk7x06t+g8pKHq93Jhz1Y/hoX/HR5t+0+KU/Wv+yk9+Y2UXbDHw8O4eZSe2SH4XCf8jIqH7gEY++xzF4hPZKqE4lLX/hpF+n/EzzfdfzCfHb6xn28gUQ4gFl8wR2My109nXnn6QZcpJ+41MBKJs1VJDEjDCB3UOrb/qVX1SVhzgbQHW1YMkH9XwRdZDz61jmlz77j37l91p/HCfhz3/K4+sHXyD5it3ue54hDvh7zZCE09NY+PwKlLakFJ6bxkKthLVv3uI4egV3FgWkJM0pE/evQfggIfdUtjyPdk/2hVuCWb6FtWz8rojKSh65XX0Qm7mCCqV89fw2cnm9XZHeMsQySUjPC8jpnfjCfAS7euA6ta/zUpIbX6V1vXYMmh3kC6enES8WkMu1OrcZXf/HALipJEIreWyJ85jJJCE9fwcpcw0hHsCh/veQkHssm+UX7jfwIifjWG4CU0GE1VrXAEmRT6CqE67tb2AO9j9IePFU7rKhE/G706Z91ZSI7GIK9ce7KMNZvmPC94bt3SzJkuzjBKl+mvhTUyKymYBlBo62vCGfnX/T+C8pftzGP+DsX07+TYOf+qPxLyf5ucMSvnsOs707uAJxsgnpuZ47PPBfAKgUm5gRJlBBEIokA1MBqvwBkPMz6Xun+Klz5P7DUX+cjMo+cONuGjfQPQFDa18STv7p5F8k+QEAUR4xXpv9Pr7aRGhWW42h+UHrNr8cE2bez0N+cfRPivhzkt+t/qh59RJvf76I2Y9/h9IP9MUY4wX5lB4j2ayfmB8dr5dQ5XnEo60/s8xKHDSgGJ+rQYQvAtViDYC2tFXZayIUCfQn6WQEcVW1/bp9tqcf+WiprrYGr8dyE7gYRFhVie2r57eRe1zA8rMS6qqMrW/yyD0u4MW3ResMrYN89fy2JXmVi0cW2dRaCcUdQKk1gf0Sdg60z0P8BFSVR3yyCalQa5UvlKEY+pRbdYXT07idDpptAuDa/i0CrcF+P4lKxzIjuFNDFQGEoxTyUcrvBpJ9XEEhf0K8BGVT6j3jQ9l+O/+m9V87vIp/+/xC8G8K/NQfsV0U8nOHJbzZBIRMCjczCcBO1kHggwgBwE4NylQSYqSBykF/8gEg5men753ih+Q/NPJVchtYXpERv5tGdmke97KtmXav8oNT/nPyLxr5Lwg8Qvs1Ld52ap7mLmL7Df8YtLzOqOYXYPj5HRg8vxhw3N+R+wvw2U9/4pnojNGDvKWHDyIkdw7gmlDk1gwQAOBDw5xx4DgZW99qM7gc10D9AyCIEWBXbi1P7jWphaznt/ES07ht/Prvc7uFk3xu8aJ9JPk6Ty8AALVGOZMXDSKEAOIP0xDbPlbVhjZgPmhA4SMIYQLhSBMKeFyADM3GcG1/g/CciJDagLRagxd6NyHJB0r5XeDKPiQI7VMPtA5PKdpsWSDp56C7iJf4Hh8E/64Q7GsMGIamP0r5j9clSFP6KR/rJ97uA/7QQJ2TUfkgQKyVcAwg3od8pPxM+t4pfoj+Q6k/breI3G7rJeV7P9Nefj32yr42/kn0L4L85QOtvdVNLW9qKxYCxLZtPa4g5k+X5Uc9v2C4+d1L/b1fX8e/frWAWfVv2GTbes4l5AG/3ICi/8qvmx8GEOKbfb3YxU2JyC5p/6/uFfGiz6VnY1nMWAK7l3WYKY4GEUJTm6k6Jb922z47VDWIqxltD2/O2FOcEpGdpXzAQQMKmqg+67Xnr+3fUR6hWgmViIB4tIEQr+sP3ti/vrGN7+QksovXAS9P/yD6pzfy2+HaPiQo4y/ETwDo4XMexa9b/IoPav8mMDT9UcpvbIt5A6Gv7Ur9UMltoALtt0T9A7SZXUr5SPnZ7nva+LH1nz7tz3EyXj8v486i/s7CKcWHrX+R5I/yiPFA+G4a2butb9SLxkvWLiG1/6CGakZA/CpQ2R2g/ClxZvtfEqeoP+6H3+PF60e491DEJjui81xC3tJzIKMqX4J4a8L8KHFfQEyWLUu/dmhLlkfmUl3ucaFnZ6WqPG58OYd7X4qOS8PGkp0TiflEawnUZ2jbNzj6S2fyiVnfzcwl6tLajFAAwrzNywn6bEJ8ngfkE5SLTcTmI61ZB5f2t8iyW8TLTUBYvI7UZauNae1v1r9f0jpIknyU8iu1JkJTvO0yqb18zvYxZqBioqZ/9XISd3rYz7Z+gvzmEvZssrfePLTfIJDig1Y/dpD9uyVHL/udlv7s7Esjv5oSsTDbxJvlGsrLEqqTAm6krM8Z1H8v8PZbH0L8BLV+W+1xzs/d3zvHD9l/+pMP0LfIUOYH9/7p7F9E+fkgQnIZa23tX35WgqJv+fA/v2jvQMQy1pytndKjjn1+oe1/SfFni0f6o+0/N/J5/Gj2NpL9yskYC4gz/BzXwM4TCaGla8jO9X8KBsfJKG4mzeVcA9ptOb3ewNfqr1mWteNtMyD9bPnpfr42U0D7DLfto3n+69Uj3Nfbp6oNSKtlKH3MMJSX3yH8+TVkl9p0qMunJcQAhMkjvFkGgBqUjIDYvvYSLwd39u/EXN5/mNZeNKZ8scrOviT/pJXf2DJx+6tkVx1O0NinXChDXBSQXeK0l9GelyFmrM+xq58m/jq3TACtUyaI5V3mfVL80MQHjX6ccPJvGk5Df07+5SS/cbpLZSWPCseBQ8vf2l9CHdR/aXCUj5CfSd+T4ofKf5zk67kdo7/84NY/nfyLJH9CvARlr2TNtQcyqnICMX1bj9/5pZLbgJLWcrax7ai+sY21Q27s8wtt/2unX7L83ujP/GE2GXDeyvjqCf76gB3ReV7hPl24o/74kxS2trZ8qUBLuDyqlmMUtX2UWHV/e+qwb2L1u30MxijD4oPhBuY/DCeYf7TQ7ktodh3Z3In66S/x9YN/4tFv2BGd5w3/L97q9Za/vse+Og6Xu4x7+xgMN7D4YLiB+Q/DCeYfrVuYcUQc7AMA9/1v8evvMZIXmDHc4fsMP4Cus3b7vTjCiWHP8AP+to/BGHVYfDDcwPyH4QTzDwaDjlMZ8DMYDAaDwWAwGIzhQD6lh8FgMBgMBoPBYIwsbMDPYDAYDAaDwWCMMWzAz2AwGAwGg8FgjDH+n9IzIhgv/wooD3zGPLGOjjOh289iHmfi2TmItXcDtfUsvJTN0HDy39OIHwZjGLS/FOrl/QY0eJH/+pVfu0m2weK4T8Y5Pw5T/tlfPMK98n/hv9ntwK5hA/5TQlV53FxMQFktYI0NXM8cbn6UjEP9JJj/usNv+w76/J4XY6ky1fF+Zwk/21/PbyOX1885p7/Q98xwFuQ3j46UBxswuo0f4wI7A68n20Y9P57l/mfjj3/AvaXbSD4rsnsDXMIG/Doc18Du0w3sav/wvoJoECEcobgDgPksY9Qg+K/v8cPwlUrbrdfx7BxmllLAiA363XDe2+83FwQe2JQgTSURj75H3e4mWB/QLqQCis/y5lGd4bSI1OVd747uHPP8OFT5/7GGt2C3A3sB1YC/cxakcwYknJ7GDCS8gWAuHfZazmqfRQGsSbaf+tvLtpY8JSAjIM5xXefwkuRzWvKkeb7b9pHkA7RO6MZUt/7VlIis2IB0MQExwqGyUgQyAmJoWmS0lG+7ulub9Sl1LfO2/+J3a/9ethT4Zp9nJU8g9TNNBpL+O+Vz+t5yhvPUNLJzupx9Lt3b2qfHknz7kjluXSfWT2qf8Uy7GSyn8jT+TYK0ZcApPl7vTDjqx/DRvuKj/Wp6SvzSH61/2clvzIxiszX7Fs/OYWZSu2RHofCffikXyhAneYSjQOWw//w+iH852c+pfpJ+e97E2vbZzgG5/TTYxb8BaYaZ7L+D579+5ddkaNh+3499DPniUwEomzVUkMSMMIHdQ6vv+JUfVZWHOBtAdbVg8bd6vog6yPoby/zYZ//Xr/xe64/jJPz5T3l8/eALJF+x24HdQBzwGwaL7b1D7mlrgLzw+RUo7UE/N42FWglr37zFcfQK7iwKSEmaURP3r0H4ICH3VLY8j3ZP4oVbglm+hbVs/K6IykoeuV19EJu5ggqlfDRLnrFMEtLzAnJ6J74wH8Gu7vhO7eu8FOTGV2ldrx2DZgf5wulpxIsF5HJtM1C6/o8BcFNJhFby2BLnMZNJQnr+DlLmGkI8gEP97yEh91g2yy/cb+BFTsax3ASmggirta4BkiKfQFUnXNvfwBzsf5Dw4qncZUMn4nenTfuqKRHZxRTqj3dRhrN8x4TvDdu7WdIk2ccJUv008aemRGQzAcsMFm15Qz47/6bxX1L8uI1/wNm/nPybBj/1R+NfTvJzhyV89xxme3dwBeJkE9JzPXd44L802Ol/54AUf3obHfIzjf1s7U9q/4GMqpxArG2QeUHgEdoveTa76xT/pPg0/57Q/vb81+5ftP2zE531awPK/uRzzP9RHjFem/0+vtpEaJZHeP2ESja3+fGYMPN+HvKjo39S5A8n+d3qj5pXL/H254uY/fh3KP1AX4xhhXxKjxGs6yfmR8frJVR5HvFo688sv/oPGlCMz9UgwheBarEGQFsaquw1EYoE+pN0MoK4qtp+3T6b3o98tFRXW4PXY7kJXAwirKrE9tXz28g9LmD5WQl1VcbWN3nkHhfw4tuidQbIQb56ftsS/OXikUU2tVZCcQdQak1gv2TOWoX4Cagqj/hkE1Kh1ipfKEMx9Cm36gqnp3E7HTTbBMC1/VsEWoP9AWYeLaslOzVUEUA4SiEfpfxuINnHFRTyJ8RLUDal3gMYyvbb+Tet/9rhVfzb5xeCf1Pgp/6I7aKQnzss4c0mIGRSuJlJAHayekRiPoGQLKPSNvttG9+U+rHLz7T2GzR/c1wDO5tHCE3xZr6OTwVMf6RtvxOk+HfyL9r2W/TX7l8u81uv+geRz8k+2g+smpYvdmqe5l5i+/kgQm7K64xqfgSG3z8Bg+dHA477O3J/AT776U88E/08Qt7SwwcRkjsTbBOKHDBnkAEAHxrmL3aOk7H1rTaDy3EN1D8AghgBduXW8t5ek1rIen4bLzGN28av50GWq23kc4sX7SPJ1/n2P9C95GpLNIgQAog/TENs+1hVG9qA+aABhY8ghAmEI00o4HEBMjQbw7X9DcJzIkJqA9JqDZ6+xECSD5Tyu8CVfUgQ2qceaB2GUjxBT72S9EM5qBkU3+OD4N+kLRlGhzs0/VHKf7wuQZrST8lYP/F8H238bhrZu3rde0VtBa69Djv9p1zqh9Z+bvL3Tg3VjLZ3/Bg8YijjTceML7H9DjjFP9G/iPmZUDltfrYjGkQITe3HTa/murSP+QNrU8v7HCejsi9AbFtxcQUx/7ssP+r5EcPtn7zU3/v1dfzrVwuYVf+GTbatZyDIA365AUX/lVw3PwwgxOsDQkq4KRHZJe3/1b0iXvS59GwsKxlLSPeyDjPFpCTmA27bZ4eqBnE1o+3hzRl7IjuWXB05aEBBE9VnvfbMtf07yiNUK6ESERCPNhDidf3BG/vXN7bxnZxEdvE60NfefQJE//RGfjtc24cEZfyF+AkAPXzOo/h1i1/xQe3fBIamP0r5jW2NbyD0tV2JFtr3jboYRD/t+Rne2M+J9kFmBTywJ3VtJxm0/bTxb+tfbv3XB/+8wAdasrqVL8ojxgPhth9UAKBe1Lb1kLY8EiG1/6CGakZA/CpQ2R2g/ClxZscPJE5Rf9wPv8eL149w76GITXZE50CQt/QcyKjKlyDemjA/StwXEKNc8tSWBI/Mpa7c40LPzkpVedz4cg73vhQdl+KNJS8nEvOJ1hKiz9C2b3C0X8qKfGLWdzNzibq01tkFIMzbncem/RqPz/OAfIJysYnYfKT1q92l/S2y7BbxchMQFq8jddlqY1r7m/Ube3BJ8lHKr9Sa5rJ/L+zlc7aPMYMTEzX9q5eTuNPDfrb1E+Q3l4Bnk7315qH9BoEUH7T6sYPs3y05etnvtPRnZ18a+dWUiIXZJt4s11BellCdFHAjZX3O4P7rkgH0056fae1HgtT+cqEMzAqYmWpath+4hxz/Tv7luv1u/bOjvJoSLXvSXcvHBxGSy1hri//lZyUo+pYP//OjjMo+EMtY+xztlB517PMj7fiBFD+2eKQ/2vy0kc/jR7O3kfQyh50jiDP8HNfAzhMJoaVryM45nSJgV15GcTNpbscxoN2W0/Oc5FoJL5/ULEuuXUuytC/sdT1f+6VN+wy37aN5/uvVI9zX26eqDUirZSh9/EIvL79D+PNryC616VCXT0soAQiTR3izDAA1KBkBsX3tJV4O7uzfibk962Fae9GYclbNzr4k/6SV39gycfurZFcdTtDYp1woQ1wUkF3itJe5npchZqzPsaufJv46t7wBrVMaiOVd5k1S/NDEB41+nHDybxpOQ39O/uUkv3G6S2Ulrw2Q0fK3G2jfFz+Y/7qFVj9O+dmt/QCK9usv7wofSn1NBNH4Nyn+nfzLbftJ+ifL38DOahmxRa28WithbQVYaM9fLuRLiJeg7JWsfUXHi9R+58dKbgNKWutzjG1J9Y1trB1yY58faccPdvql8h8P9Gf+MJsMOG/FfPUEf33AjugcFO7ThTvqjz9JYWtry5cKeh6LpvK4uSQAq+5vTx32Tax+t4/BGGVYfJxvhp2fz5ocDEY7LD+20O5LaBKPlFU//SW+fvBPPPoNO6KzX/y/eKvXW/L6Hs7qKe6R841xbx+D4QYWH4wzwIVbgvbCM7v4kHGWYPmxdQszjqjuj+C+/y1+/T1G8gKzYeP7gJ/bLeIlb11O6/fihbPMuLePwXADiw/GMDHOSdfORR9sGyKD4RcsP2rHDq99W9L/cT7aPCx839LDYDAYDAaDwWAwhgf5lB4Gg8FgMBgMBoMxsrABP4PBYDAYDAaDMcawAT+DwWAwGAwGgzHG/Nu/f/Txf0YvR1CpVIYty1DRjm2bwfw0h+rbY/yvDy+PqJeTuPPFJ7iWvoLUfBJxTsYPpf/zvJ6zRjw7hxuRo4Haatjlo/8poVJjL/QMEyf/PY34GUdI/s383xmmv7PDOOeHYco/+4tH+I+P8vju3Tk5tofhG/4fy8kAoJ+tu5iAslrA2jk6W3dUiGfnINbemZfhnLf6STD/ZThhXBBm0H6xFKPt6EG5PNClhW7zg9/2GfX8cJbz78Yf/4B7S7eRfFZk584zXMEG/Doc18Du0w3sav/wvoJoECEcocjOgWaMIgT/9T1+GGcW7cIcoPgsbx4lGE6LSF3ePTdHC5K4IPDApgRpKol49D3qdjeJ+sCp2GfM88NQ5f/HGt6C3S7LcA/VgL/zemXtTOPWBQnh9DRmIOENBNyeCwKwziB0X8+sUVnJU90k16u8UbZ1g6IEZATEOa7rHFuSfMZZzUD3leE0z3fbPpJ8gL4tZqpb/2pKRFZsQLqYgBjhUFkpAhkBMTQtMlrKt119HU5PYyFS6romvX3Gw639e9lS4Jt9njU8gdTPNBlI+u+Uz+n7dttjahrZOV1Oyqvj2/XV0z49bvhUUyKysw28fPIeuHWdWD+pfcYz7WbwnMrT+DcJp/jpVb9BZSWP1zsTjvoxfLSv+Gi/2p0S9/qzl5/0fA17/6b53s7/7PTfmZsG1Z+q8hBnA6iuFizy1PNF1EGOv/OgP1UNIj4VgLJZQwVJzAgT2D20+pZf+cE7+4xRfugz//crv9f64zgJf/5THl8/+ALJV+x2WcbgEAf8hsPG9t4h97Q1QF74/AqUtqQWnpvGQq2EtW/e4jh6BXcWBaQkzakT969B+CAh91S2PI/22ugLtwSzfAtr2fhdEZWVPHK7+iA2cwUVSvnq+W3k8nq7Ir1liGWSkJ4XkDvUnz8fwa4e+E7tsyQUADe+Sut67Rg0O8gXTk8jXiwgl2sN3md0/R8D4KaSCK3ksSXOYyaThPT8HaTMNYR4AIf630NC7rFsll+438CLnIxjuQlMBRFWa10dvCKfQFUnXNvfwBzsf5Dw4qncZUMn4nenTfuqKRHZxRTqj3dRhrN8x4TvDdu7WdIl2ccJUv008aemRGQzAcsMHm15Qz47/6bxX1L8uI1/wNm/nPybBi/0N+jzDdr9uzO/dH7f7v/GoMXO/+ocR8yfrvRHmNll+gMQ5RHjNR0dX20iNMsjvH5C9YPKbX449sg+o5wfHO1Lkf+d5HerP2pevcTbny9i9uPfofQDfTEGox3yKT1Gslo/MT86Xi+hyvOIR1t/ZpnVOGhAMT5XgwhfBKrFGgBtaayy10QoEuhP0skI4qpq+3X7jEs/8tFSXW0NXo/lJnAxiLCqEttXz28j97iA5Wcl1FUZW9/kkXtcwItvi9YZWgf56vltS/IrF48ssqm1Eoo7gFJrAvsl7Bxon4f4Cagqj/hkE1Kh1ipfKEMx9Cm36gqnp3E7HTTbBMC1/VsEWoP9fhKdjmVGbaeGKgIIRynko5TfDST7uIJC/oR4Ccqm1HswRNl+O/+m9V87vIp/+/xC8G8KvNDfwM/XseSvNv33+t7i/6D0Pxt9uNYfH0TI6XumP1wQeIT2a1q87NQ8zT1E/Xpkn1HND8Dw8zNgrz9aOO7vyP0F+OynP/FMdMb5g7ylhw8iJHcO4JpQ5IA5gwwA+NAwZyw4TsbWt9oMLsc1UP8ACGIE2JVby5t7TWoh6/ltvMQ0bhuzB31ut3CSzy1etI8kn/HCV9jyA4FyJjoaRAgBxNuu7ga067vDUWjJkY8ghAmEI00o4HEBMjQbw7X9DcJzIkJqA9JqDZ6+xECSD5Tyu8CVfUgQ2qceaB2mUjxBT72S9HPgjZh2+B4fBP+uEOxrDDj80h/x+R5A8j/H/OlSf0TOuf7KB5q/Vze1vMdxMir7AsS2bT2uIOY/l+VHPT9guPnZS/29X1/Hv361gFn1b9hk2/MbhwIAAA/rSURBVHoYA0Ae8MsNKPosQd38MIAQrw8IKeGmRGSXtP9X94p40efWCWNZzVhCu5d1mCmOBhFCE5UDnNoLsm7bZ4eqBnE1kwA23yFn7ClOicjOUj7goAEFTVSf9doz2PbvKI9QrYRKREA82kCI1/UHb+xf39jGd3IS2cXrQF979wkQ/dMb+e1wbR8SlPEX4icA9PA5j+LXLX7FB7V/E/Bbf7bPdwmt/9nmT7f626mhmhEQvwpUdnt8f971F+UR44Hw3TSyd9vqvaht66HZ0uQISb8Hp2Mft5zZ/pPEKeqP++H3ePH6Ee49FLH5XPL24YxzAXlLz4GMqnwJ4q0J86PEfQExWdYHhM5oS55H5lJf7nGh50BdVXnc+HIO974UHZeSjSU/JxLzidYSqs/Qtm9wtJkCRT4x67uZuURdWptRCkCYt3k5QZ+NiM/zgHyCcrGJ2HykNWvh0v4WWXaLeLkJCIvXkbpstTGt/c3690taB0uSj1J+pdZEaIq3XWa1l8/ZPsYMVkzU9K9eTuJOD/vZ1k+Q31wCn0321puH9hsEUnzQ6scOsn+35OhlP7f6I8lPfP4AWPy/z/zQmT/d609GZR+IZawxrZ0CozL98UGE5DLW2vx/+VkJir7lw//84M4+fuN3fqC1Lyn/2+KR/mj7v418Hj+avY2kR7HAOF8QZ/g5roGdJxJCS9eQnev/FAeOk1HcTJrLoQa023J6vcGv1V+zHI8Vb5tB6WfLT/fztZkG2me4bR/N81+vHuG+3j5VbUBaLUPpY4aivPwO4c+vIbvUpkNdPi2hBiBMHuHNMgDUoGQExPa1l3g5uLN/J+by+MO09qIx5YtZdvYl+Set/MfrEqSpa7j9VbKrDido7FMulCEuCsgucdrLbM/LEDPW59jVTxN/nVsOgNYpFcTyLvsNUvzQxAeNfpxw8m8aXOmPQn6n59Ni7//O/keTP93qr5LbgJLWYtrY1lLf2MbaIXfu9ZcQL0HZK1lz5YGMqpxATN/W43d+cGWfEc8PtP2nnX7J8nujP/OH2WTAeSvdqyf46wN2RCdjMLhPF+6oP/4kha2tLV8q0PbP8ahajlHkcXNJAFYLfb2J3/P5PY41O038bh+DMcqw+GAwGHaw/NBCuy+h2XXkcifqp7/E1w/+iUe/YUd0MvrD/4u3ep0SoO+xr47DTdHj3j4Gww0sPhgMhh0sP7RuYcYRcbAPANz3v8Wvv8dIXmDGGC6+z/AD6Dqrt9+LJ5wY9gw/4G/7GIxRh8UHg8Gwg+UHBuN0OJUBP4PBYDAYDAaDwRgO5FN6GAwGg8FgMBgMxsjCBvwMBoPBYDAYDMYYwwb8DAaDwWAwGAzGGPNv//7Rx/8ZvRxBpVIZtixDRXv5dwbz0xyqb4/xvz68Aa9eTuLOF5/gWvoKUvNJxDkZP5T+z/N6zhrx7BxuRI4Gaqthl4/+p4RKjb3ENUyc/Pc04ue0UFMisneDI9+Ofhgn+40j59k+4fQ0PnvwMVLzSYiXGygWnS/eHITzrF+vGOf+YZjyz/7iEf7jozy+e+f+2Cr/j+VkANDPFl5MQFktYO0cnS08KsSzcxBr7/q6zGec6ifB/Ncfel7spMpUx/OdJc6y/3aeAgP0f3GX3wxLf8aRkOEOXztLJ+XU89vI5fVz6p0vhLZl2P5pHr0plwe6tNKt/GpKxP27vPlvr/1/1PuHYfuHExt//APuLd1G8lnR9b0LbMCvw3EN7D7dwK72D+8riAYRwhGKOwBGLx4Y5x2C//oeP2NOpe3W6Xh2DjNLKeAUB/3jbj+vbj4fFn7ZhzssYe3bEoBeg57x8wM7/Pb/CwIPbEqQppKIR9+jbneTrg9oF3oBxWd58wdcOC0idXnXux90Y94/DFX+f6zhLby5XZlqwN85C9U5AxVOT2MGEt5AMGdS2n9B9prFAqydXD/1t5dtncMvARkBcY7rmp0gydc+A9TZMdA83237SPIB+raYqW79qykRWbEB6WICYoRDZaUIZATE0LTIaCnfdvW3NmtS6uoM25O/W/v3sqXAN/ucQZpA6meaDCT9d8rn9L1l9m9qGtk5Xc4+Bwi29ulxT4SaEpGdbeDlk/fArevE+kntM55pN4PjVJ7Gv0k4xU+v+g0qK3m83plw1I/ho33FR/vV9pS0l9ee0bD9vh//GoRyoQxxkkc4ClQOye0bJP+256ZB7GeUp40fO/lp/Y80Qzmo/Y2ZV2y2Brrx7BxmJq2XIA1aP6l9NPrr1z5+xPfA/dOA/Sdt30mq/yzoV1WDiE8FoGzWUEESM8IEdg+tselX/6CqPMTZAKqrBYu96/ki6iDnr7HsH86Yf5DgOAl//lMeXz/4AslX7m5XJg74DYFje++Qe9oaIC98fgVKe6czN42FWglr37zFcfQK7iwKSElaoxL3r0H4ICH3VLY8jzagL9wSzPItrGXjd0VUVvLI6Z3QQuYKKpTy0SwZxjJJSM8LyOlJemE+gl3d8E7t61xOvvFVWtdrx6DZQb5wehrxYgG5XNsMoK7/YwDcVBKhlTy2xHnMZJKQnr+DlLmGEA/gUP97SMg9ls3yC/cbeJGTcSw3gakgwmqtq4NU5BOo6oRr+xuYg/0PEl48lbts6ET87rRpXzUlIruYQv3xLspwlu+Y8L1hezdLeiT7OEGqnyb+1JSIbCZgmcGhLW/IZ+ffNP5Lih+38Q84+5eTf9PQWV7rUNrqdrQvXXy4gaZ9Tvoh5U+S/ZzK08QPjfxO+dXJv2mfbwd3WMJ3z2HqawdXIE42IT23Dvbd1m/bP1Hoz8k+buObFjf9E6l+mv7dUTaH+s+EfqM8Yrw2+318tYnQLI/w+glVbnDbPxwTZt7PQ/9w5v2Dhlcv8fbni5j9+Hco/UBfrBPyKT2Gs66fmB8dr5dQ5XnEo60/s8yqHDSgGJ+rQYQvAtViDYC2NFLZayIUCfQn6WQEcVW1/bp9RqAf+WiprrYGr8dyE7gYRFhVie2r57eRe1zA8rMS6qqMrW/yyD0u4MW3ResMrYN89fy2xfnLxSOLbGqthOIOoNSawH4JOwfa5yF+AqrKIz7ZhFSotcoXylAMfcqtusLpadxOB802AXBt/xaB1mB/gKV1y4zPTg1VBBCOUshHKb8bSPZxBYX8CfESlE2p94wBZfvt/JvWf+3wKv7t8wvBv4nydZfvxNG+PvhXYj6BkCyjckDfPmL8UerDlgHL08pv53+As3/TPp+bEpFdmjf/u5Fq++6whDebgJBJ4WYmAXTU5UX9pP5pYFzGNy1u+ieq+l3457DzL+DcvgsCj9B+TcuXOzVP+x6ifHwQIR/bd9b7B+Ds+wcNHPd35P4CfPbTn7gSl7ylhw8iJHd2IE0ocsCcQQYAfGiYv1g5TsbWt9oMLsc1UP8ACGIE2JVby1t79G/a1/PbeIlp3DZ+PQ6yH9NGPrd40T6SfL1erOrccmBLNIgQAog/TENs+1hVG9qA+aABhY8ghAmEI00o4HEBMjQbw7X9DcJzIkJqA9JqDV7o3YQkHyjld4Er+5AgtE890BKmUjxBT72S9HPgjZh2+B4fBP+ukOwbDSKEJioHsHVLR/vSxgeB+N00snf1Z+8VtRUwjgMuU7bPIf7c5k9X5Yn5x7m4MSCw9W9K+3fLbH3W8boEaeoaBJTxcv3E3Kfrtn6/4+vU4tuv/gnu/XOY+ZfGf+NTAVQ3tX6P42RU9gWIbdt6fJXPbflR7x9wtv2jH96vr+Nfv1rArPo3bA64ckwe8MsNKPqvxLr5YQAhXh8QUqLNsGj/r+4V8aLPrRPGsoqxhHIv6zBTTNGJe43b9tmhqkFczWh7THPGntyOLQeOHDSgoInqs157xtr+HeURqpVQiQiIRxsI8br+4I396xvb+E5OIrt4HfDy9Aeif3ojvx2u7UOCMv5C/ASAHj7nUfy6xa/4oPbvPrjAB2Dokmhfj/Rru2fZo/b1lT+9LO+R/Lb+7dHzjW0lbyD03A7kaf1e9k9Djm+v8t+g/nVW8q8tUR4xHgi3/aAHAPWitq2HtOXTtXwHNVQzAuJXgcruAOVPiTM7fiJxivrjfvg9Xrx+hHsPRWw+lwZ6BnlLz4GMqnwJ4q0J86PEfQExfcmZhLbkeWQu9eQeF3oGsqryuPHlHO59KTou7RlLPk4k5hOtJTSfoW3f4Gi/FBX5xKzvZuYSdWltRiEAYd7uPDPt12h8ngfkE5SLTcTmI61frS7tb5Flt4iXm4CweB2py1Yb09rfrH+/pHWwJPko5VdqTYSmeNtlNnv5nO1jzGDERE3/6uUk7vSwn239BPnNJdDZZG+9eWi/QSDFB61+7CD7d0uOnvbr0I+aEjuOcCTEH6V++/HvQdpH/zxy/hykvJ3/upWf5N9e6EdNiViYbeLNcg3lZQnVScHc8uNH/b36J1L+sWXI8e22f+qkf/+kq39o+uWDCMllrLXlv+VnJSj6lg//+wcZlX0glrH2udopPerQ/cfv/uHM+4cObf+wkc/jR7O3kRxw+xtxhp/jGth5IiG0dA3ZOX2JpI9TEDhORnEzaS7XGdAu2/U8p7pWwssnNcvxSF1L4pSD7u7na780aZ/htn00z3+9eoT7evtUtQFptQylj1+o5eV3CH9+DdmlNh3q8mkBFYAweYQ3ywBQg5IRENvXXuLl4M7+nZjLtw/T2ovGlC/m2NmX5J+08htL+re/SnbV4QSNfcqFMsRFAdklTnuZ6XkZYsb6HLv6aeKvc0kcaJ1SQCzvYls3QI4fmvig0Y8TTv5NguMa2FktI7ao6UetlbC2AizMGt8729dtfvS7faT8SbIfbf51ih838gPO/k37/PYZxPbyxuk7lZU8KhwHDi1734CWn7yon9Q/2emPHF/+xjcJt/2TW/+krX9Y+k2Il6Dslay54EBGVU4gpm/r8bt/qOQ2oKS1PtfYdlbf2MbaITf2/cNZ9492OSv7QGwy4LwV9dUT/PXB4Ed0cp8u3FF//EkKW1tb/ZemQNs/xaNqOaaKx80lAVgt9PUmds/n9zjW6jTxu30MxijD4oNxnhl2/8RgnGVY/9BCuy+hSTzSWf30l/j6wT/x6Df9H9Hp/8Vbvd4S1/cwVkf3HpQW494+BsMNLD4YDAaD0QvWP7RuYcYR1f0t3Pe/xa+/x0AXgPk+4Od2i3jJW5eTztK13W4Z9/YxGG5g8cFgMBiMXrD+wXrbtd+3+Pq+pYfBYDAYDAaDwWAMD/IpPQwGg8FgMBgMBmNkYQN+BoPBYDAYDAZjjGEDfgaDwWAwGAwGY4z5t3//6OP/jF6OoFKpDFuWoaIdnzaD+WkO1bfH+F8fXp5QLydx54tPcC19Ban5JOKcjB9K/+d5PWeNeHYONyJHA7XVsMtH/1NCpXY+XuI5qzj572nEz2mhpkRk7wZHvh1nFaZfdzD9jSbjnD+HKf/sLx7hPz7K47t35+RYHxf8P3zUU+Bdcit6AAAAAElFTkSuQmCC;" parent="1" vertex="1">
          <mxGeometry x="50" y="280" width="764" height="247" as="geometry" />
        </mxCell>
        <mxCell id="fNtPRgdTcbA10EcIbhXB-7" style="edgeStyle=orthogonalEdgeStyle;rounded=0;orthogonalLoop=1;jettySize=auto;html=1;exitX=0.75;exitY=1;exitDx=0;exitDy=0;entryX=0.5;entryY=0;entryDx=0;entryDy=0;" parent="1" source="fNtPRgdTcbA10EcIbhXB-4" target="fNtPRgdTcbA10EcIbhXB-6" edge="1">
          <mxGeometry relative="1" as="geometry" />
        </mxCell>
        <mxCell id="fNtPRgdTcbA10EcIbhXB-4" value="xxxAutoConfiguration" style="rounded=0;whiteSpace=wrap;html=1;" parent="1" vertex="1">
          <mxGeometry x="50" y="560" width="130" height="30" as="geometry" />
        </mxCell>
        <mxCell id="fNtPRgdTcbA10EcIbhXB-5" value="是@Configurarion配置类，定义了需要导入容器的实例及其判断方法" style="text;html=1;strokeColor=none;fillColor=none;align=center;verticalAlign=middle;whiteSpace=wrap;rounded=0;" parent="1" vertex="1">
          <mxGeometry x="200" y="560" width="370" height="30" as="geometry" />
        </mxCell>
        <mxCell id="fNtPRgdTcbA10EcIbhXB-11" style="edgeStyle=orthogonalEdgeStyle;rounded=0;orthogonalLoop=1;jettySize=auto;html=1;exitX=0.5;exitY=1;exitDx=0;exitDy=0;entryX=0.5;entryY=0;entryDx=0;entryDy=0;" parent="1" source="fNtPRgdTcbA10EcIbhXB-6" target="fNtPRgdTcbA10EcIbhXB-9" edge="1">
          <mxGeometry relative="1" as="geometry" />
        </mxCell>
        <mxCell id="fNtPRgdTcbA10EcIbhXB-6" value="@EnableConfigurationProperties" style="rounded=0;whiteSpace=wrap;html=1;" parent="1" vertex="1">
          <mxGeometry x="50" y="620" width="190" height="30" as="geometry" />
        </mxCell>
        <mxCell id="fNtPRgdTcbA10EcIbhXB-8" value="有些配置类会有该注解，表示需要导入properties属性" style="text;html=1;strokeColor=none;fillColor=none;align=center;verticalAlign=middle;whiteSpace=wrap;rounded=0;" parent="1" vertex="1">
          <mxGeometry x="260" y="620" width="290" height="30" as="geometry" />
        </mxCell>
        <mxCell id="fNtPRgdTcbA10EcIbhXB-9" value="@ConfigurationProperties(prefix=&quot;&quot;)" style="rounded=0;whiteSpace=wrap;html=1;" parent="1" vertex="1">
          <mxGeometry x="50" y="680" width="190" height="30" as="geometry" />
        </mxCell>
        <mxCell id="fNtPRgdTcbA10EcIbhXB-10" value="确定引入哪些前缀的属性" style="text;html=1;strokeColor=none;fillColor=none;align=center;verticalAlign=middle;whiteSpace=wrap;rounded=0;" parent="1" vertex="1">
          <mxGeometry x="260" y="680" width="140" height="30" as="geometry" />
        </mxCell>
        <mxCell id="fNtPRgdTcbA10EcIbhXB-12" value="" style="endArrow=none;html=1;rounded=0;" parent="1" edge="1">
          <mxGeometry width="50" height="50" relative="1" as="geometry">
            <mxPoint x="2" y="800" as="sourcePoint" />
            <mxPoint x="823" y="800" as="targetPoint" />
          </mxGeometry>
        </mxCell>
        <mxCell id="fNtPRgdTcbA10EcIbhXB-13" value="Web模块" style="text;html=1;strokeColor=none;fillColor=none;align=center;verticalAlign=middle;whiteSpace=wrap;rounded=0;" parent="1" vertex="1">
          <mxGeometry x="390" y="770" width="60" height="30" as="geometry" />
        </mxCell>
        <mxCell id="fNtPRgdTcbA10EcIbhXB-16" style="edgeStyle=orthogonalEdgeStyle;rounded=0;orthogonalLoop=1;jettySize=auto;html=1;exitX=0;exitY=0.5;exitDx=0;exitDy=0;entryX=1;entryY=0.5;entryDx=0;entryDy=0;" parent="1" source="fNtPRgdTcbA10EcIbhXB-14" target="fNtPRgdTcbA10EcIbhXB-15" edge="1">
          <mxGeometry relative="1" as="geometry" />
        </mxCell>
        <mxCell id="fNtPRgdTcbA10EcIbhXB-20" style="edgeStyle=orthogonalEdgeStyle;rounded=0;orthogonalLoop=1;jettySize=auto;html=1;exitX=0.5;exitY=0;exitDx=0;exitDy=0;" parent="1" source="fNtPRgdTcbA10EcIbhXB-14" target="fNtPRgdTcbA10EcIbhXB-19" edge="1">
          <mxGeometry relative="1" as="geometry" />
        </mxCell>
        <mxCell id="fNtPRgdTcbA10EcIbhXB-23" style="edgeStyle=orthogonalEdgeStyle;rounded=0;orthogonalLoop=1;jettySize=auto;html=1;exitX=0.5;exitY=1;exitDx=0;exitDy=0;" parent="1" source="fNtPRgdTcbA10EcIbhXB-14" target="fNtPRgdTcbA10EcIbhXB-22" edge="1">
          <mxGeometry relative="1" as="geometry" />
        </mxCell>
        <mxCell id="fNtPRgdTcbA10EcIbhXB-30" style="edgeStyle=orthogonalEdgeStyle;rounded=0;orthogonalLoop=1;jettySize=auto;html=1;exitX=1;exitY=0.5;exitDx=0;exitDy=0;entryX=0;entryY=0.5;entryDx=0;entryDy=0;" parent="1" source="fNtPRgdTcbA10EcIbhXB-14" target="fNtPRgdTcbA10EcIbhXB-29" edge="1">
          <mxGeometry relative="1" as="geometry" />
        </mxCell>
        <mxCell id="fNtPRgdTcbA10EcIbhXB-14" value="WebMvcAutoConfiguration" style="rounded=0;whiteSpace=wrap;html=1;fillColor=#99FF99;" parent="1" vertex="1">
          <mxGeometry x="329" y="980" width="170" height="30" as="geometry" />
        </mxCell>
        <mxCell id="fNtPRgdTcbA10EcIbhXB-15" value="@Bean-HiddenHttpMethodFilter" style="rounded=0;whiteSpace=wrap;html=1;" parent="1" vertex="1">
          <mxGeometry x="130" y="980" width="140" height="30" as="geometry" />
        </mxCell>
        <mxCell id="fNtPRgdTcbA10EcIbhXB-17" value="REST风格过滤器" style="shape=note;whiteSpace=wrap;html=1;backgroundOutline=1;darkOpacity=0.05;shadow=1;fillColor=#FFF2CC;" parent="1" vertex="1">
          <mxGeometry x="20" y="950" width="100" height="100" as="geometry" />
        </mxCell>
        <mxCell id="fNtPRgdTcbA10EcIbhXB-18" value="@Bean-WelcomePageHandlerMapping" style="rounded=0;whiteSpace=wrap;html=1;" parent="1" vertex="1">
          <mxGeometry x="80" y="880" width="170" height="30" as="geometry" />
        </mxCell>
        <mxCell id="fNtPRgdTcbA10EcIbhXB-21" style="edgeStyle=orthogonalEdgeStyle;rounded=0;orthogonalLoop=1;jettySize=auto;html=1;exitX=0;exitY=0.5;exitDx=0;exitDy=0;" parent="1" source="fNtPRgdTcbA10EcIbhXB-19" target="fNtPRgdTcbA10EcIbhXB-18" edge="1">
          <mxGeometry relative="1" as="geometry" />
        </mxCell>
        <mxCell id="fNtPRgdTcbA10EcIbhXB-19" value="&lt;pre style=&quot;background-color: #2b2b2b ; color: #a9b7c6 ; font-family: &amp;quot;consolas&amp;quot; ; font-size: 10.5pt&quot;&gt;EnableWebMvcConfiguration&lt;/pre&gt;" style="text;whiteSpace=wrap;html=1;" parent="1" vertex="1">
          <mxGeometry x="304" y="865" width="220" height="60" as="geometry" />
        </mxCell>
        <mxCell id="fNtPRgdTcbA10EcIbhXB-25" style="edgeStyle=orthogonalEdgeStyle;rounded=0;orthogonalLoop=1;jettySize=auto;html=1;exitX=0.5;exitY=1;exitDx=0;exitDy=0;entryX=0.5;entryY=0;entryDx=0;entryDy=0;" parent="1" source="fNtPRgdTcbA10EcIbhXB-22" target="fNtPRgdTcbA10EcIbhXB-24" edge="1">
          <mxGeometry relative="1" as="geometry" />
        </mxCell>
        <mxCell id="fNtPRgdTcbA10EcIbhXB-27" style="edgeStyle=orthogonalEdgeStyle;rounded=0;orthogonalLoop=1;jettySize=auto;html=1;exitX=0;exitY=0.5;exitDx=0;exitDy=0;entryX=1;entryY=0.5;entryDx=0;entryDy=0;" parent="1" source="fNtPRgdTcbA10EcIbhXB-22" target="fNtPRgdTcbA10EcIbhXB-26" edge="1">
          <mxGeometry relative="1" as="geometry" />
        </mxCell>
        <mxCell id="fNtPRgdTcbA10EcIbhXB-22" value="&lt;pre style=&quot;background-color: #2b2b2b ; color: #a9b7c6 ; font-family: &amp;quot;consolas&amp;quot; ; font-size: 10.5pt&quot;&gt;WebMvcAutoConfigurationAdapter&lt;/pre&gt;" style="text;whiteSpace=wrap;html=1;" parent="1" vertex="1">
          <mxGeometry x="284" y="1109" width="260" height="60" as="geometry" />
        </mxCell>
        <mxCell id="fNtPRgdTcbA10EcIbhXB-24" value="addResourceHandlers()" style="rounded=0;whiteSpace=wrap;html=1;shadow=1;fillColor=#FFFFFF;" parent="1" vertex="1">
          <mxGeometry x="346" y="1190" width="136" height="30" as="geometry" />
        </mxCell>
        <mxCell id="fNtPRgdTcbA10EcIbhXB-26" value="WebMvcConfigurer" style="rounded=0;whiteSpace=wrap;html=1;shadow=1;fillColor=#FFFFFF;" parent="1" vertex="1">
          <mxGeometry x="100" y="1123.5" width="120" height="31" as="geometry" />
        </mxCell>
        <mxCell id="fNtPRgdTcbA10EcIbhXB-28" value="实现" style="text;html=1;strokeColor=none;fillColor=none;align=center;verticalAlign=middle;whiteSpace=wrap;rounded=0;shadow=1;" parent="1" vertex="1">
          <mxGeometry x="224" y="1109" width="60" height="30" as="geometry" />
        </mxCell>
        <mxCell id="fNtPRgdTcbA10EcIbhXB-33" style="edgeStyle=orthogonalEdgeStyle;rounded=0;orthogonalLoop=1;jettySize=auto;html=1;exitX=0.5;exitY=1;exitDx=0;exitDy=0;entryX=0.5;entryY=0;entryDx=0;entryDy=0;" parent="1" source="fNtPRgdTcbA10EcIbhXB-29" target="fNtPRgdTcbA10EcIbhXB-31" edge="1">
          <mxGeometry relative="1" as="geometry" />
        </mxCell>
        <mxCell id="fNtPRgdTcbA10EcIbhXB-29" value="&lt;pre style=&quot;background-color: #2b2b2b ; color: #a9b7c6 ; font-family: &amp;quot;consolas&amp;quot; ; font-size: 10.5pt&quot;&gt;EnableWebMvcConfiguration&lt;/pre&gt;" style="text;whiteSpace=wrap;html=1;" parent="1" vertex="1">
          <mxGeometry x="550" y="965" width="220" height="60" as="geometry" />
        </mxCell>
        <mxCell id="fNtPRgdTcbA10EcIbhXB-32" style="edgeStyle=orthogonalEdgeStyle;rounded=0;orthogonalLoop=1;jettySize=auto;html=1;exitX=0.5;exitY=1;exitDx=0;exitDy=0;entryX=1;entryY=0.5;entryDx=0;entryDy=0;" parent="1" source="fNtPRgdTcbA10EcIbhXB-31" target="fNtPRgdTcbA10EcIbhXB-24" edge="1">
          <mxGeometry relative="1" as="geometry" />
        </mxCell>
        <mxCell id="fNtPRgdTcbA10EcIbhXB-31" value="@Bean-&lt;br&gt;handlerMapping" style="rounded=0;whiteSpace=wrap;html=1;shadow=1;fillColor=#FFFFFF;" parent="1" vertex="1">
          <mxGeometry x="600" y="1068" width="120" height="41" as="geometry" />
        </mxCell>
        <mxCell id="fNtPRgdTcbA10EcIbhXB-34" value="调用该方法" style="text;html=1;strokeColor=none;fillColor=none;align=center;verticalAlign=middle;whiteSpace=wrap;rounded=0;shadow=1;" parent="1" vertex="1">
          <mxGeometry x="560" y="1169" width="70" height="30" as="geometry" />
        </mxCell>
        <mxCell id="fNtPRgdTcbA10EcIbhXB-35" value="添加静态资源、warjar执行器handler" style="shape=note;whiteSpace=wrap;html=1;backgroundOutline=1;darkOpacity=0.05;shadow=1;fillColor=#FFF2CC;size=28;" parent="1" vertex="1">
          <mxGeometry x="370" y="1240" width="110" height="100" as="geometry" />
        </mxCell>
        <mxCell id="fNtPRgdTcbA10EcIbhXB-36" value="HandlerMapping" style="rounded=0;whiteSpace=wrap;html=1;shadow=1;fillColor=#99FF99;" parent="1" vertex="1">
          <mxGeometry x="40" y="1390" width="120" height="30" as="geometry" />
        </mxCell>
        <mxCell id="fNtPRgdTcbA10EcIbhXB-37" value="执行器映射，保存了执行器及其映射规则等信息" style="text;html=1;strokeColor=none;fillColor=none;align=center;verticalAlign=middle;whiteSpace=wrap;rounded=0;shadow=1;" parent="1" vertex="1">
          <mxGeometry x="180" y="1390" width="260" height="30" as="geometry" />
        </mxCell>
        <mxCell id="fNtPRgdTcbA10EcIbhXB-40" style="edgeStyle=orthogonalEdgeStyle;rounded=0;orthogonalLoop=1;jettySize=auto;html=1;exitX=0;exitY=0.5;exitDx=0;exitDy=0;" parent="1" source="fNtPRgdTcbA10EcIbhXB-38" target="fNtPRgdTcbA10EcIbhXB-39" edge="1">
          <mxGeometry relative="1" as="geometry" />
        </mxCell>
        <mxCell id="fNtPRgdTcbA10EcIbhXB-38" value="DispatcherSevletAutoConfiguration" style="rounded=0;whiteSpace=wrap;html=1;shadow=1;fillColor=#99FF99;" parent="1" vertex="1">
          <mxGeometry x="334.5" y="1495" width="206" height="30" as="geometry" />
        </mxCell>
        <mxCell id="fNtPRgdTcbA10EcIbhXB-42" style="edgeStyle=orthogonalEdgeStyle;rounded=0;orthogonalLoop=1;jettySize=auto;html=1;exitX=0.5;exitY=1;exitDx=0;exitDy=0;entryX=0.5;entryY=0;entryDx=0;entryDy=0;" parent="1" source="fNtPRgdTcbA10EcIbhXB-39" target="fNtPRgdTcbA10EcIbhXB-41" edge="1">
          <mxGeometry relative="1" as="geometry" />
        </mxCell>
        <mxCell id="fNtPRgdTcbA10EcIbhXB-39" value="&lt;pre style=&quot;background-color: #2b2b2b ; color: #a9b7c6 ; font-family: &amp;quot;consolas&amp;quot; ; font-size: 10.5pt&quot;&gt;DispatcherServletConfiguration&lt;/pre&gt;" style="text;whiteSpace=wrap;html=1;" parent="1" vertex="1">
          <mxGeometry x="50" y="1480" width="260" height="60" as="geometry" />
        </mxCell>
        <mxCell id="fNtPRgdTcbA10EcIbhXB-45" style="edgeStyle=orthogonalEdgeStyle;rounded=0;orthogonalLoop=1;jettySize=auto;html=1;exitX=1;exitY=0.5;exitDx=0;exitDy=0;entryX=0;entryY=0.5;entryDx=0;entryDy=0;" parent="1" source="fNtPRgdTcbA10EcIbhXB-41" target="fNtPRgdTcbA10EcIbhXB-44" edge="1">
          <mxGeometry relative="1" as="geometry" />
        </mxCell>
        <mxCell id="fNtPRgdTcbA10EcIbhXB-41" value="@Bean-DispatcherServlet" style="rounded=0;whiteSpace=wrap;html=1;" parent="1" vertex="1">
          <mxGeometry x="110" y="1579" width="140" height="30" as="geometry" />
        </mxCell>
        <mxCell id="fNtPRgdTcbA10EcIbhXB-49" style="edgeStyle=orthogonalEdgeStyle;rounded=0;orthogonalLoop=1;jettySize=auto;html=1;exitX=1;exitY=0.5;exitDx=0;exitDy=0;" parent="1" source="fNtPRgdTcbA10EcIbhXB-44" target="fNtPRgdTcbA10EcIbhXB-48" edge="1">
          <mxGeometry relative="1" as="geometry" />
        </mxCell>
        <mxCell id="fNtPRgdTcbA10EcIbhXB-44" value="doDispatcher()" style="rounded=0;whiteSpace=wrap;html=1;" parent="1" vertex="1">
          <mxGeometry x="331" y="1579" width="140" height="30" as="geometry" />
        </mxCell>
        <mxCell id="fNtPRgdTcbA10EcIbhXB-46" value="核心方法" style="text;html=1;strokeColor=none;fillColor=none;align=center;verticalAlign=middle;whiteSpace=wrap;rounded=0;shadow=1;" parent="1" vertex="1">
          <mxGeometry x="260" y="1565" width="60" height="30" as="geometry" />
        </mxCell>
        <mxCell id="fNtPRgdTcbA10EcIbhXB-54" style="edgeStyle=orthogonalEdgeStyle;rounded=0;orthogonalLoop=1;jettySize=auto;html=1;exitX=0.5;exitY=1;exitDx=0;exitDy=0;" parent="1" source="fNtPRgdTcbA10EcIbhXB-47" target="fNtPRgdTcbA10EcIbhXB-53" edge="1">
          <mxGeometry relative="1" as="geometry">
            <Array as="points">
              <mxPoint x="600" y="1810" />
              <mxPoint x="155" y="1810" />
            </Array>
          </mxGeometry>
        </mxCell>
        <mxCell id="Yg8QPh4uK6IByelMX-bM-12" style="edgeStyle=orthogonalEdgeStyle;rounded=0;orthogonalLoop=1;jettySize=auto;html=1;exitX=0.5;exitY=1;exitDx=0;exitDy=0;entryX=0.5;entryY=0;entryDx=0;entryDy=0;" edge="1" parent="1" source="fNtPRgdTcbA10EcIbhXB-47" target="Yg8QPh4uK6IByelMX-bM-6">
          <mxGeometry relative="1" as="geometry">
            <Array as="points">
              <mxPoint x="600" y="1810" />
              <mxPoint x="385" y="1810" />
            </Array>
          </mxGeometry>
        </mxCell>
        <mxCell id="Yg8QPh4uK6IByelMX-bM-17" style="edgeStyle=orthogonalEdgeStyle;rounded=0;orthogonalLoop=1;jettySize=auto;html=1;exitX=0.5;exitY=1;exitDx=0;exitDy=0;" edge="1" parent="1" source="fNtPRgdTcbA10EcIbhXB-47" target="Yg8QPh4uK6IByelMX-bM-14">
          <mxGeometry relative="1" as="geometry" />
        </mxCell>
        <mxCell id="fNtPRgdTcbA10EcIbhXB-47" value="" style="shape=image;verticalLabelPosition=bottom;labelBackgroundColor=default;verticalAlign=top;aspect=fixed;imageAspect=0;image=data:image/png,iVBORw0KGgoAAAANSUhEUgAAAVUAAAB+CAYAAACUEIJvAAAgAElEQVR4nO2de3Ac9Z3gP63byp7dI9nGmhlbMtJItrAljQhBsmwOY0u2AZNbgnc5TK5ikg0VslApb2pDKqlAsVs5DqqgLmxdCJVjSSUbAikglfDKYUNsyTImIMkOxnrYoNeMY1nMwzaWpq3chqjvj+6e6Xn3SK3HaH6fv6Tpmd+jH9/+/X79699HKq7dqiIQCAQCWyia7wIIBALBYkIEVYFAILAREVQFAoHARv5qLjKpLoUb1qrUr5biPu8bU3l7SGI4PBelEAgEgtln1luqX2iAe7eQFFBB++zeLXBnY/rfq2o5L31tB4+smN3naeq6jYzfUUujqup5buQuNb+f4akravnDHOy7xY66rJqv7mlm6zKxHxNRy1t58n/fy1fKxb4xmNWW6p2N0Hhl9u81XgmT/wGv9cxmaeYGVS3m0T3b2bcswpO/PsiDF6WE7eX86p4mdl36iNaX+jkuJd9sCg1VdbH7znquONXFz3oU/TOZbbc00zTRxxPvBOeoHFqeK0618arfvuOiLqvm7psrucJ0rC/0d0brmlyO+P3hbmhmb50j6XuD7x3iVb+UtF092xvdZ4l5m3/zpdrLvPliD32L4Bxcd+u9PH6jM/q/evJlbv9J77yUJSmofvsru/HWVKb9Qc+Anx/8/JWsCVeXpg6ob5/4hPOX/gzA7m2xnbBlLfSOsWiGAgYvwS3rSniweyLu86bmDeyao5NYuniKa39yCljgF43HxdrRPp4wB5nlbtaicLHcRb0amNcLX7o0zM9eGibTfkwXkGPBqy2uDvXXt/KtPaGUQW3V1R7WSRIX9P8DPV38wNTg0ALlUgZ9WpFKS+SUQVpVXey+uZILnW38zC+hVnq5f1MD9b4e+nq6eLOklXUe6PNPd8+ANNrOvm+2M9/nWIW7lNHfPc2+1+fmBpyJpO7/CwfeZmoqdVP+L1NTvLD/bUsJ37A2OY1LkU85f+nP7N7mjAuomX6Trwz6zsFnN8QNIahqMX/ngSdPjM5jyRYeq0qWcnE8PiCsqiiF0T66Rp2s88xTwWaIWunlS+Vhnn+xh15PA/ffuZ1v7fFy2/WtrDvbxvOnlnLzFnf8b5ZV8/nyMN1n018LXm8lFzrjg/GF8Uiab4e04AvgCzLEUlYu1/4NjytcUZLcAs5Xxj4OzHcRgBQt1bOB8xw53kfLRm/Sl48c72M0eN5SwqnGUP/wodZqaz9+kdbGFZZ+E2VdM+PXlGt/+7op+Z0WmNQVtbx/+1Ws00+wA+0vs2dQ0rvZGxj4YJx9+u8GTxziWr3lGO2Gm1sJn3yYMuvE7xrpGF39mvePQYvWpW958Y/ajy7286/+3fxTcwm/MFqrNRvYxzlaLzrYZwoU6euQkH6u21fU8v7tDv71mS6eZY31/aFO8OQH4+zzRKJDFI0bd9B+TbFe4FG+8UwXv0jRekzshhnk0opQVZn15TD0boTe5SFurl2L2zdEQJJMLcI+2FTP2nE/z73xMRs+vynus+f3D/Hx8rVJXd9XfA623dLM2lHTUEOll/trL/PcGx+nLo/eMuzSW5Xm7raqBjnwQoCaL3q147d5B9+q9fH8/iFK1zgZOtWmlWMTHHjhEL242X3nUi72wsc+H0N3xlriqiqz7bpKLpxq4/yaStamKkull5uL/Tyvt1JVVWZlMazbvIP7N2vlMVq/khTkvVMePn+1g74eRe8R+Hji0vRaleZjq6qneeofX+LQmu386DulvPyPL3HmC/clHXujG66qXh784W6a9GOR6XzI9RxSVRdXuqDprn/mN3fFytY2T72blGOqLx96l81XX8V//uvPRD/70//7D14++N6MMmtYJ3P0xKWUATUzDvYtP03JM916oNjAIyvO8sCFEh5tgnueeYXjkoS6biMTLc3cNdDFsyl/18wjgwd54MIafnVPExx+hZJBbcffdeNtPLU8OedocP71K+y5GAtkL118hTsGtO/sainjG8+8wh5JQpWKuV3/7bMj53iqZQN3dXXxLCU8+rkyDrz/CsdoNqVfnKUOCelPY3v6/Zh6fxh1hI+0Mq6o5ZnPjvONfzsYC6RpTtjB1/8Pf/e61eOqUVoiw7jpA08VTYR5/hPgkyBDmzysXz5E4FLsK2s3uXjzxTZelSRUSWZD4mc42OaFN15s04Kx3vX1+nroOBWiqdaN+6QWqL168AtIDjZkKau6rJrP117mwAudsZZiEfS92BXX/Vdxs7k8xOBRWHV1KZzq076vKlwcv8z5TwAULprq7d2iB3u/RP2aFHmrMttqjbJqeUuSwpED7RzRv+NuaOZLt6wlvH8o+p0r6jZxf522/UL/SFyaK0pkIPXYblze5a18c+d5frTvx7FglXAOmI+9uvEOfnNjmO8+04NKAw/+cAujjz/Mo6MSquri7x/8Og98/DCPdiefR7meQ5IU5OeP/k9+rv+/7tZ7eezB7Zx5pI3BeQisKZ/+X4pc5v8eORb32esd3Ywrl+ekUMlEePLYWe3PC2fZr19ckjTBg787Bc07Gb9nNxOt5ZZ+R00Zuy59xGMDsW8+O3IuddY1ZeySitn33/5Wy+PrO9i3XGLdipLoVw4cTt1qY+A0T14q45+aS/RWanye1uqQkL6e5q011rfnuj8kaYIH3jftjwvjDFLGU/fstH0mgbuhmZvpixsP9K5xcnE0QEBvbQ2OyqytiO+mDnUmj0WaP5MkhSPvDMPVm7j/zu18e7Mr9kVfkKGSUtYv11o568pNXeRsfBLhAk5uvnNTTrMBYt1zmdipE/vbaIG+cTJdNx5tnLkkc1k/PumL1W1ZNZ+vhe4Dh/jBi238rxd6uVDbzG2VWrkDPV28ST1fbZCzV+BsiDHW840f3pf1Sb9a3sqP9sJTRlBrrqVJcnLbd/+Z3/zwIV5+8h+4bZXE6lXujOlMl4HXjnLcvZ7rU9yY5oK0T/8PvPMHWpsbuGJZMec/meCt378/l+WyhNFt5oM2Sp6ZiHZ3beeTD9M8qS/O+DMjOO373BoeXV7GoK8tKY05q8MMkKRR9vxkVG/B7mY8zcwGyL3rFujp4s3rW/lqg8LPehQ9yMEVa2KtKwBVraL+ZA9Wn+caT7051cUPXlSiXXitPnq3uMLBhxUe1o76eFWSwEKMlKQgr74U1IchtvOtEoVjb3bS8UniNxUujmvjl2Fg7Ro3+IOsutrFFUbr1ONi7WiQV3CwrdaJtExi7xfNA8ib+Fa5NpQQkCS8Xq0+Vh/araooZcWojyOXjBtNkMHReppLHIASvaE9kWYWQny9e3n0m716K/Mhfu0O89rjP+bfE76nql4e/M56jj3+47jut/rxUb5rseVoxxDSfJI2qP7507/w0lvvcO8du/jVW+/w50//klPCfWPJk/2t/Canp4grHay79BGtXeMgSTStK2NdXD8yDQPnONDSxHdr+tkzqHfBP1eG0d3N9F2Au27cCG+l6l6nz2vfsnN8463x5G6zhTrsqloDg9oYclNzs5bWgIXtV1gpYHIdE/eHuqKWR1f28+DgBA+81AZ7tlOzEriYnNR0uv9h80Mqj4u1hDjwQqzVaUwxWueBXqstyuVLWTHu5/mTEZAkLcAQ62l9fCYM11WxGTj2bgCr5526rJpty4c44lfo2N8FtzSzYjmQEFQlSeHDUfiS103H0T6O3dLM/Xd6udDfyRuj9ez94g5uvuTj+f0BJEmK68KDNjugeVwf95Uk/WajMNQbiSurqsqsWh4hoAdO7xZ9TPkT+JgwF2/2sHVZgCOXpOgN68LZWBqJDwjT1ru8lb8va+Pn3UH+/ZF/gwe/TnkZYOrQaAF3Nzz3MD8fNe3PrlMc37ubPc1tPNqtfbT9a3fAM6nHPXM9h1TVRc2aAIN6njvu2U1j4B1eOsu8TErIOE+18+RHrLtyNZ09KYJNFt4ekqhfnftvcmLgNE9+bjvtX18PwKBvlEELP5OkUe44XMZE698y3or+YOYcpHjKLEmj3PHrEt6/fTfjraYHQZZbNqM89sEGdi0/l36IIEsdDlDG+D0btX/MD4nULNstklTHhP0hXTzF6aZY/fF1R8ei7ca7xgmjfXGtMaOFdfMaN/isBQF8IxyrbY62/C6cDcbdA6RLw3RNtGoPfT4h7uIzHvoAqJd8PPd7Ne53573buX+zHvDP9vKEX9KDqMJe04MqoxV+/y1+nt/fxpFonUxTpKwep+UOruAygwllBVh/3Xb2LpOi5TVattKlYX7auZRv79qBfnZE56nmijTazh9veYjf3KXnc/Jlbu+WwDRateOer3PbKgn0B0bR7/2kl0ced/Kj78R+f+wX/4NHbRzvvP4rD/H4Kr1sObSKZwNpNpf++0KDNv/UCkeHFsfkfzuJPd1/hT0pgli27TPKe91GJj4XmZMXFNRKL/evCc7ZJH+DuNbgLKJWeuPHdIkPfvNFvT61y84XHQSz/EaVESSzBVYRUOcXLThv4PRLWgtXVcv5VUsZgx8kjwHPCr4gQ5vqo+Oqc4G6rJrm8hBdRyPWW4vTRPL38oNUE+znMaC6G5q5uTzEm0eZ73n7i45ZX1DltR7tTSmxoMrCRZImeOBghPfv2c1TCXNx5yZ/7eHPXFF/fSu71kgMvndoUbyiOR0CPV080cO8BvbFyqx2/wUCgaDQEOupCgQCgY2IoCoQCAQ28lefdf2n+S6DQCAQLBpES1UgEAhsRARVgUAgsBERVAUCgcBGRFAVCAQCG5kTm+pM+f6dVTl9/19eHMn+JUFeMCV7uG7jSsLdxxhS8mei+pSrjhsrL9PZNcI4Lq5pdRJo75vX11JnSr4ei7lmVoPq3V/5Mq+/sZ9QKDSb2VhmSi3jsduuZYu+uv1z7e08PWHfyTGlOrmmtZYl/uO8Oww1zY1UOUwrCkX8dHaNEFngF9aUKlPT3IhHVvCluICMejqVM3lRH4jVSfZ3cDIYK68WKJbiW6ABbzEeCzPa/q+g2FTuCd8xOkdSv65svsaM7ySmEew7HD3GU646bqo3bAWRuH2YbpujqpFNlZP0TvOcmNWgumxZCXv/+534z/yRNw68yZ/+9KfZzC4jU2ox9+24lis/6uCG0xNMlTfyTmsTI68e4y27TkS3E2f4FIdGFEBb+Nd8gN3erWxqUDjUuzBuMgbpAk5EgVKXg6GEE7ykugKXJFlZpGvGFCk+Og/r7pACZjEei1jw6ogLXm7vVna0hFMGNaO+xgvUU6qTazZWMNnfQWdQ0noIdfW4A32M4eKaysu813aYiKRv21hPpD3ztsDIcXrlrbjdEJjG29NzMqZaWXEl//C1u7nh+v8yF9mlpqSMGxxjPHtKX6v07Ec8F1lNq42rg5fIS4hksCOMBfNrkYPJ8HmorMRtkhdOqTLuUhjxLawbw2JnsR2LKVcdm0rP09nex5i7np2t29jRUsfV3q24gx10+pfgbYhf2WtK9lBfep6RUOItJEzAcP4FQoRYgsMBRVKIk92+WOvd4jYARVFYIk9vsfg5G1MtKiqiqfFaGhq8vPnm7xgasT7uacsYaYmDyrGxaKu0SJpgZAJuKC4BkhcOcbfcw71bklcfDx79CT8+nPvta0qVqaksJRL2mz7TujIuvUzmbk/iNogNH4w7quK6rIld2EzpOqoa2ewxpHUhetqCrNpep323voUdlX7e69Trp4zgC2/DU+0gYLSQ3JV4OE+nshRPqal+abpgsVbwKaiLlcnydlPdxnBxTWsFin+SKo8z4z5T1Qg+/ySeUmNc0+JxSlsPp+W8zccrZR5pjk/ivnAqZxblsYhIEqtdpYT8Hdq5XAc9bYf1NJegjMB44AyhViduNaif0zI1dRVM+juIuCowqlskhRj2V1Bv7Be3E2f4DCdTjfm6nTiZJBC/znf2bTky5w+q/vozn+ELt/5Xfv9uJ53d3ZZ+Y8eDqvXFxcCY5TQCh5/h+4dzyhZZlpMcaq76FnbWG2M2HXQa4znGRdrdwUEldkJfrXRwIuDimtZa6O/goGnowLskexkypqtUUV85SU/bsVi3qgg+bj8e1/2fkmRW6emNBcN46ypxD/cxhoOaSv1ioN6Up0xNFfS1d8S6UtEumIazzklvewcnp7ndtJfxyGc42N6vX+QbWBs8xkAkfp8Z9YYzKY+HGVUNWayHtbwzHa/Mxz3FvliEx2JKdeIuDRPogZLqleA/rZ2P6mUUZZJIBOAyiulaWt3QSGn4OJ1BCbcrqSAUe5rYqS+qPuFLvplNyR6uqysl1N+RNKSQbptDXooVKWIicx5UP/30U44cPcoHJ63ahuzhw4mJbEqpGeGoasSLMZ4aw7jLu71b8Va5GDLGU91OXJIDmlsw3zImZId211TO0GmyfIwFw3grLRQkU7oBhUkq8LY24bD6BDfgx1fZiKfawZhSiQe9XCZnW5GkMNSr4KhuYqepFWwm1G8aH9PTdLthLJBle9I5reAbCWo7JhIirKyM1tu8z4okhQF/GE/CPjOPcUPsQZW1eljLGzIcr0zHJ9W+MrPIjoXBpGI0D5ciy6CpD2N/T7nq8C45Q2dP8tq3U7KH+koY6TrMkGL0KLSblHGctbFb8HV3JJ3z6bZFRo7T693KpqrLaR+apWPOgqqqqvSdOsWhQ21Mzddig8XF1KgqA5LElFpMVTH88dw4qdr7uXb/sx2EsZ5TuFtrudoVjB7stLMBUtyJcyFdukWSwsnDIb3lsI0d+hPlgQwCz9gF4aRGLiUSPp6UrtHdxH+cg+1KXKDKJ+aqHulngWS2mi6eY3EZRdHGLxXA6XJBMERJtZMlxqXjduIMhziht8glh8Tm7aao7GxiR6mfk+GVOMJnoj3AIilEIFyLR9blht6tWmPncIjE6zzTtnSNJCvMSVANBIL8dv9+xsent+ixLWOqZz/iufXbuHvNab43Cqy5ir0McHcaOdh0uv+Kkv4AGGM/myqrcARGGA+ECNXVUu0e4aQeo93eOujpYyxhmzEeG9+V1U7KgAIlrpU4mNQLniFdRxU18ghDQYWBruPQ3IgsYzQN0qOn6ZHD9KZoLSAvxaGcoXNY2xZXHh3jwgEoqd6gpRWwsN3qswJL+ywLFuox47wzHZ8c6pnPx6JIUgiEYVOVi4Ge0/iaG9nZWseE7xh94Q1s3t6CN+KnsytIkSQx1H2EIVPybu9WPIo2pWpKhsjGCtbKwWhL1V0Kk8EIU3IVntIwve3BlC3cdNsMMj10zsSsBtXJyUn2v/k7/GdyOLFTYMeYapE0wY+7B/hl66283SSBeo6HXz3NwBzO6xsfPo2vtDE6repEt8x1G7exs970QECSKCLEiX4nN5nHY/1hjNH5IsVHn38lm/Uu5EQoFI2LRVKGdBUfkarY52qon0NBST/JFTYnPqgypTnsr8AphzJ2S42WhLk8BiGc7GzVnNOqGopNl1GzbLdIYr0T95klLNQjbd4ZjlemckLs+FiZF7VYjoXRs7ux+QydXR0MRdM/zkHj8rWQZ5Hi493+pdxkGk6JDvG4llIsOWnY3kKD6TfBvsOcIP028/DQdJC2bGtd8Cv/58sbVVOuOm50hWZlHqr5DZ18muCdbg6s1e0zyjtP99lssRCPhXkCvsFCeEnGrU/tms5+yIvXVPMGvdszncFtwczQAkIlkS7TtLK6UiL+5HFHweySy7EoCvZzMNUMxXk8Zo6qRrylYXp7mNb0qrwIqvnyLn+RFOLk4fybiL0YKJIUBvovc13rNhpSzM8VzB35fiwiI8c5NMK0A3tedP8FAoEgXxBL/wkEAoGNiKAqEAgENiKCqkAgENiICKoCgUBgIyKoCgQCgY2IoCoQCAQ2IoKqQCAQ2EheTP7Pl9dUBTNHW7ptfiR5QtYnsIOCEv9BTP535Ucd7D09vVWz0qcdLyVze7fS4Jw78V8mSdxcvwcfW4w5oRyyh+vqoM9COYSsb2Eyr7K+OKNAbLGXmcr67KTAxH/b2OsY46h1AUBuxIn/NMwn21yJ/0LhSTx1VQTy8IJdTAhZn4Z9sj4HNc1OArqVwO3dirfBRaA3pK16NQNZn50UjPivSJrg6bbfcsNrx2mfpTyyif8yrbdqK0E/PjRvj2D+ELI+u2V9CkPd/dGgPRYMwxIZh75/ZyLrs5PCEf/lyGyI/9ylMiG/rp8gi/hvmgI6jQgD/Wco3RivlYgrT7b0+89TWqdt19afrI92yTIJ73JZOCO16M7KCqY51kXI+halrG+1K7X9YL4pGPFfrtgl/jMLydSIP+rtySyAc0xTQBfL11jIelMKaZslwV3leTrbOxh313NTfQs3hvpN+RnyOVdWiZ0V4kV3yTcyIesTsj6jdWq++QT7DtOZ0GCYrqzPTgpG/DfbpHPaxLUEXHXc2FpPb3sfYxkEcNMW0CVgmAa8DS7GTI1rS+n36+OxgRDBuiUo0fwUJlmp+dHl7BI7K6QV3ekIWZ+Q9UX3VXSMGNzebeyojD3sm4msz04KS/yXA3aL/wB9EesKLSCRfjaAXfI2bV3LM5RurOUawrann6kOAIoiaw4s8+6Ql+Jgeu6fVAhZ31yxMGR9ZjSZZgVuxwgRZWayPjspHPFfjtgt/gPix4ciGQRw0xXQpSDqs/I4Y+OFdqWfQWIX0L1XxvBDyhXg7bi5Cllf5u2LTNZ3XZVCZ69RzwqcynmGTeOt05X12UnBiP/mi7gxVdO8uiIyCOCmKaBLx/jwaUZKG/EYH9iUfkaJHUSnuZjlaravAC9kfZm3WyQfZH0ngz76lMaEei68aYN5sfJ/vgTV2RT/CQoTIeuzzkxkfXaSF6+p5g1C/CfIUwpd1mcneRFUF1J3PhNC/CfIVwpd1mcnedH9FwgEgnxBLP0nEAgENiKCqkAgENiICKoCgUBgIyKoCgQCgY2IoCoQCAQ2IoKqQCAQ2IgIqgKBQGAjeTH5P19eUxVkZjFK6BZjnQQzo6DEf1PljbzTVKb9o07wXHs7T0/YdyGYBWfvDkNNcyNVjrkT/1nFeF98IZbNCkKsl/B9G8V66dJcSGK9hU4Bif/KeGx9hLtfeY0BSdICbGsTI68e4y27TpI48Z+2zqb5ZLZL/GfXIhqJiz/b/YpfYjntltAJsZ6GXWI9c7qJaS4ksd5Cp4DEf+f4XtuHDBgnztkxjlJMVYl9eWQT/40Fw2m3CXJHiPXsFetlS3OhiPUWOoUr/luzmi1M0D5OykbGbIj/aipLiYT9ps/iZXLmdTAT3fbG/yNtQVZtr9N+U9/Cjkqt2z6OK3cxXWIZ0+SZqzQOYHxkmD95quLK+V4feJtN6WeqvxXBoRDr2S7WS5emwDoFKf6bKl7PLxtXc/T462m7/naJ/1zmRZC7O6IKCfOY1cEEhxXt6VeUl6QQJ9qPx3WrpywI+FKJ6cxCvQnfMd7Neq/ILI0z1wVgauRCfDllT2ybpfpnFxwKsZ69Yr1saS4Esd5Cp+DEfzUbWvjpVfBc++u2PqRK58cxWjRu71a8VS6GjPFUQ7Q2bNJrZBS2ZWCaYrqkMVU5uWUeTxZp3HAKVUiGMmesfyBDfmaEWM82sV6mNMGih01QWOK/mzb+DQ/xB2547RzZHizYLf7TJGW1XO0KZnm4pJBNdZWK6YrpFh651V+I9ewR6xnDU+nS7OwageqmBSHWW+gUjPhvqng9X149xsOvjlpqTdkt/jPGuTZVVuEIjDCuWwLqq0OxIGyMB0bQhW3aRRZQyCy0m6mYLg6LeWbIf0p1UlN9mYHh7L9JW/9cEGK9GYv1iiQlY5pIEg4WhlhvoVM44r8SB5VSGQ/t/gIPmT4+euw1vjc6N/PuxodP4yttjE6rOtEO17Q2stNjflCjtTajFlS9S2+WwRXpptLNpgdVMxHTGWTKM+PvkqRx2gOnIkmKK+d7fQm/yVD/nMotxHrxeU1brCfmn9pBXqz8ny9vVAnxX/4hxHrWWShivYVOXrymmjcI8Z8gDUKsVzjkRVDNl3f5hfhPkA4h1isc8qL7LxAIBPmCWPpPIBAIbEQEVYFAILAREVQFAoHARkRQFQgEAhsRQVUgEAhsRARVgUAgsBERVAUCgcBG8mLyf768pmqV2ZLFaUu8OQnMkkdottPPmLfplU5tQe75KYedCGng4qSwxH9qGY/ddi1bJAnUczxsp5+KZFla4sr2C2XRiuiq+gkXs7ZoMfRZeMc83TvxifaAhYaQBiZ830ZpoKOqkc2e2LJdaqifQ72hgpMGFpD4r5j7dqym/dXX+Z4kaWurNpfzVvc5+zIxif+MkzV+pXdttfiAzbI4Qe4IaaCGndJAWZZTBvBCkwYWkPhvgqfbjkdbpgfOjUFxMTWqfZdPnPjPIbNEOcNwwMhfYai7vyDu1PmAkAbOjjRQMxYkU0jSwIIV/+0qW43/XEfMrprAjMV/EYVJOX7haIOUsrj+85TWaV2uYN9hTlAf7Walk/hlG1ZIHH7IZQGP1MLAXFePziTcyyz2Syw7aMvfpS5r6npmlB4KaaCt0sApZBxLzE623NecXSwUlPhvqng9v2ytoVKSOHrsNfZmWJx6puK/IinEiX4nN9W3sKMu2wkm46k8T2d7B+Puem6qb+HGUL9JHmeI7TSsSOhi46bpZYBWiBcGJt9kzPJAA8P/lF24Z02SB1oX1rskuXxW6plKeghCGminNLCIeHOAo6qRTc1VKKZx6UKRBhaU+K9o4kP2vvYhADdtvJW31w9w96HTaVuruZBK/Gesi+moatR0GPrAfTIKvn795AuECNYtQYnK4xQmWal1sfSGYjZJHWBJBmiFVMJAM4mtZLP/Kbtwz5okD/QAmEqSN03pISCkgTZKAxMZHz5DqLICt2OEiFJY0sCCEv+ZOdD1B1pvu4rtJacZSKHOslP8Fxk5zlvDWvftaleQE3N0TmVaLV5RZGSZ+IaDvBQH9jmI5kq4N13poZAG2iMNtEI62/BipKDEf7/cMMFe/Wn/+tqr2BIZ46fjpDw3Zir+m5I9XEXNGIoAAAT6SURBVFel0Nkb3zKbjik1kWySOiCjDDCgO6426d3QlCvR23HjsyDcS0kWSZ7VelqSHgpp4IylgaCVqcQRIaIH49UN2hj2sNFopnCkgQUj/iua+JDvT7Tw9m2N2gfqOR5+1Z6ufyqKFB99SmNUFgdaV3lIkWZsjc4mqYNk0ZyR/0m9vsY0F7MAzvaV6C0I91JhHo/WHnokS/LivjsD6aGQBibkNU1p4IkAuOu2sdmhSxwXgFNrvsiLlf/z5Y2q2Rb/zaaETpA7QhponUKSBubFa6p5gxD/CWYBIQ3ML/IiqC70d/kNhPhPMBsIaWB+kRfdf4FAIMgXxNJ/AoFAYCMiqAoEAoGNiKAqEAgENiKCqkAgENiICKoCgUBgIyKoCgQCgY2IoCoQCAQ2kheT//PlNdXZYj6Fe4WIkAwKZkJBif8MDAHglR91sPf09FbOSp1uTKLmk/WlzkzrADiqGjXlhXnh3hSfLWSM99mrHLGyzrbQUEgGFybzKRlM3q4tVKNUN827ZLBgxH9m1tdexRZJIrWcYwaYxX+uMN5KGYca1FaMV2XcpTLIRBfuBc0WEAmfzrMLSmGkSzvBtYuiibWKaAGlQ0gGNeyUDBq9CWM7oL0GuwAkgwUj/jOYKl7Pv5SN8dw5+0/lOPGfcpmIvBJ3dM3MpchymFBYXxwarSXjWKIQDubuflooFCk+fGGZUldhSN2mg5AM2isZ1NaTXRKzZSQw35LBghL/TanF3Lexhj9++DojZTXckOG7Mxf/hQgrFbHV9fWV1zuVJWwyFi12OCmVJ/HpC/laFfWlF93Ff25euzPqcrIgGMyURzYydueyyOtmIirMlLeQDC4uySAOJ6WcJ1y1jZ3OhbfATEGJ/3Y1b+OGcx3sHZW4qSxzGjMX/+mr6+sBdLWrlFCwj3FFJlKnDQuMy0txhEPxQS+LqM88LnXQdBKl+nzKVceNrfXQbhLtWRIMuixLA6dkD55ShfBIhCnVkUGSl11ely1PIRkUksGAJIG8lGKHk0n/YQ72SnHlN4ag5lMyWDDiv6nyRh4qHuDurvFZWYIslYNnPHheD6CXcSzRVSqREGE24HaMILtKiSj6SWRV1GdI4IYT1B+pPk+S0FkUDMrZyiJTpW8zP0DIKMnLJq+zUH8hGRSSQQM14mfYKKPiwxeuwKOPW8+3ZLAgxH9TajH3rV8NxRI/3X2VaUsLb5d9lNKoaov4L6IwKTuR9e5KX0Q7SSOTMm7ZAUu0Fp5xNadfoX0mornpebEyy/RiD6o09O79DCV50xX42ZH3bJdRSAZtlAwqlzNqeeZbMlgQ4r8iaYKn237L06bPbtr4N3x5Qp9SlaJlMVPxn5avdpK4q8IQ9kcvorFgGK+rEjgfE6NZFdglSeCc1FRfZmBY+7y+OhQL6sa4Xa7PwaYr08skycsm85upwE9IBjNvX0SSQa231xg9181DUEbwnU/JYMGI/+aLsWCYhnonwWAf0butfuI6w6eiIj6rArtkCZz2MKpIUjjRDte0NrLTY35QNZKzHXXaMr0Mkrxs8rqZCvyEZDDLdovkg2TwZFBhoOsUsulcj0o1FwB5sfJ/vgTV2Rb/LTbSyesEyQjJoHXmWzKYF6+p5g1C/JeWXOR1gvlDSAZnTl60VAWLg8Q5mAtpbuFCZy5bquI4zQwRVAUCgcBGxNJ/AoFAYCMiqAoEAoGN/H/U/YuztcrBaQAAAABJRU5ErkJggg==;" parent="1" vertex="1">
          <mxGeometry x="429.5" y="1650" width="341" height="126" as="geometry" />
        </mxCell>
        <mxCell id="fNtPRgdTcbA10EcIbhXB-50" style="edgeStyle=orthogonalEdgeStyle;rounded=0;orthogonalLoop=1;jettySize=auto;html=1;exitX=0.5;exitY=1;exitDx=0;exitDy=0;" parent="1" source="fNtPRgdTcbA10EcIbhXB-48" target="fNtPRgdTcbA10EcIbhXB-47" edge="1">
          <mxGeometry relative="1" as="geometry" />
        </mxCell>
        <mxCell id="fNtPRgdTcbA10EcIbhXB-48" value="getHandler()" style="rounded=0;whiteSpace=wrap;html=1;" parent="1" vertex="1">
          <mxGeometry x="530" y="1579" width="140" height="30" as="geometry" />
        </mxCell>
        <mxCell id="fNtPRgdTcbA10EcIbhXB-52" value="SpringMVC关键类，前端控制器，用于分发请求" style="shape=note;whiteSpace=wrap;html=1;backgroundOutline=1;darkOpacity=0.05;shadow=1;fillColor=#FFF2CC;size=28;" parent="1" vertex="1">
          <mxGeometry x="135" y="1620" width="115" height="110" as="geometry" />
        </mxCell>
        <mxCell id="Yg8QPh4uK6IByelMX-bM-5" style="edgeStyle=orthogonalEdgeStyle;rounded=0;orthogonalLoop=1;jettySize=auto;html=1;exitX=0.5;exitY=1;exitDx=0;exitDy=0;" edge="1" parent="1" source="fNtPRgdTcbA10EcIbhXB-53" target="Yg8QPh4uK6IByelMX-bM-1">
          <mxGeometry relative="1" as="geometry" />
        </mxCell>
        <mxCell id="fNtPRgdTcbA10EcIbhXB-53" value="ha.handle()" style="rounded=0;whiteSpace=wrap;html=1;shadow=1;fillColor=#FFFFFF;" parent="1" vertex="1">
          <mxGeometry x="95" y="1910" width="120" height="30" as="geometry" />
        </mxCell>
        <mxCell id="Yg8QPh4uK6IByelMX-bM-22" style="edgeStyle=orthogonalEdgeStyle;rounded=0;orthogonalLoop=1;jettySize=auto;html=1;exitX=0.5;exitY=1;exitDx=0;exitDy=0;entryX=0.5;entryY=0;entryDx=0;entryDy=0;entryPerimeter=0;" edge="1" parent="1" source="Yg8QPh4uK6IByelMX-bM-1" target="Yg8QPh4uK6IByelMX-bM-2">
          <mxGeometry relative="1" as="geometry" />
        </mxCell>
        <mxCell id="Yg8QPh4uK6IByelMX-bM-1" value="ResourceHttpRequestHandler.&lt;br&gt;handleRequest()" style="rounded=0;whiteSpace=wrap;html=1;" vertex="1" parent="1">
          <mxGeometry x="70" y="1970" width="170" height="30" as="geometry" />
        </mxCell>
        <mxCell id="Yg8QPh4uK6IByelMX-bM-2" value="处理静态资源" style="shape=note;whiteSpace=wrap;html=1;backgroundOutline=1;darkOpacity=0.05;shadow=1;fillColor=#FFF2CC;size=28;" vertex="1" parent="1">
          <mxGeometry x="97.5" y="2020" width="115" height="110" as="geometry" />
        </mxCell>
        <mxCell id="Yg8QPh4uK6IByelMX-bM-4" value="HttpRequestHandlerAdapter适配器执行handle方法" style="text;html=1;strokeColor=none;fillColor=none;align=center;verticalAlign=middle;whiteSpace=wrap;rounded=0;" vertex="1" parent="1">
          <mxGeometry x="84" y="1850" width="156" height="30" as="geometry" />
        </mxCell>
        <mxCell id="Yg8QPh4uK6IByelMX-bM-13" style="edgeStyle=orthogonalEdgeStyle;rounded=0;orthogonalLoop=1;jettySize=auto;html=1;exitX=0.5;exitY=1;exitDx=0;exitDy=0;" edge="1" parent="1" source="Yg8QPh4uK6IByelMX-bM-6" target="Yg8QPh4uK6IByelMX-bM-7">
          <mxGeometry relative="1" as="geometry" />
        </mxCell>
        <mxCell id="Yg8QPh4uK6IByelMX-bM-6" value="simpleControllerHandlerAdapter适配器执行handle方法" style="text;html=1;strokeColor=none;fillColor=none;align=center;verticalAlign=middle;whiteSpace=wrap;rounded=0;" vertex="1" parent="1">
          <mxGeometry x="300" y="1850" width="170" height="30" as="geometry" />
        </mxCell>
        <mxCell id="Yg8QPh4uK6IByelMX-bM-11" style="edgeStyle=orthogonalEdgeStyle;rounded=0;orthogonalLoop=1;jettySize=auto;html=1;exitX=0.5;exitY=1;exitDx=0;exitDy=0;" edge="1" parent="1" source="Yg8QPh4uK6IByelMX-bM-7" target="Yg8QPh4uK6IByelMX-bM-8">
          <mxGeometry relative="1" as="geometry" />
        </mxCell>
        <mxCell id="Yg8QPh4uK6IByelMX-bM-7" value="ha.handle()" style="rounded=0;whiteSpace=wrap;html=1;shadow=1;fillColor=#FFFFFF;" vertex="1" parent="1">
          <mxGeometry x="325" y="1910" width="120" height="30" as="geometry" />
        </mxCell>
        <mxCell id="Yg8QPh4uK6IByelMX-bM-10" style="edgeStyle=orthogonalEdgeStyle;rounded=0;orthogonalLoop=1;jettySize=auto;html=1;exitX=0.5;exitY=1;exitDx=0;exitDy=0;entryX=0.5;entryY=0;entryDx=0;entryDy=0;entryPerimeter=0;" edge="1" parent="1" source="Yg8QPh4uK6IByelMX-bM-8" target="Yg8QPh4uK6IByelMX-bM-9">
          <mxGeometry relative="1" as="geometry" />
        </mxCell>
        <mxCell id="Yg8QPh4uK6IByelMX-bM-8" value="ParameteriableViewController.&lt;br&gt;handleRequest()" style="rounded=0;whiteSpace=wrap;html=1;" vertex="1" parent="1">
          <mxGeometry x="300" y="1970" width="170" height="30" as="geometry" />
        </mxCell>
        <mxCell id="Yg8QPh4uK6IByelMX-bM-9" value="处理欢迎页" style="shape=note;whiteSpace=wrap;html=1;backgroundOutline=1;darkOpacity=0.05;shadow=1;fillColor=#FFF2CC;size=28;" vertex="1" parent="1">
          <mxGeometry x="327.5" y="2020" width="115" height="110" as="geometry" />
        </mxCell>
        <mxCell id="Yg8QPh4uK6IByelMX-bM-18" style="edgeStyle=orthogonalEdgeStyle;rounded=0;orthogonalLoop=1;jettySize=auto;html=1;exitX=0.5;exitY=1;exitDx=0;exitDy=0;" edge="1" parent="1" source="Yg8QPh4uK6IByelMX-bM-14" target="Yg8QPh4uK6IByelMX-bM-15">
          <mxGeometry relative="1" as="geometry" />
        </mxCell>
        <mxCell id="Yg8QPh4uK6IByelMX-bM-14" value="RequestMappingHandlerAdapter适配器执行handle方法" style="text;html=1;strokeColor=none;fillColor=none;align=center;verticalAlign=middle;whiteSpace=wrap;rounded=0;" vertex="1" parent="1">
          <mxGeometry x="515" y="1850" width="170" height="30" as="geometry" />
        </mxCell>
        <mxCell id="Yg8QPh4uK6IByelMX-bM-19" style="edgeStyle=orthogonalEdgeStyle;rounded=0;orthogonalLoop=1;jettySize=auto;html=1;exitX=0.5;exitY=1;exitDx=0;exitDy=0;" edge="1" parent="1" source="Yg8QPh4uK6IByelMX-bM-15" target="Yg8QPh4uK6IByelMX-bM-16">
          <mxGeometry relative="1" as="geometry" />
        </mxCell>
        <mxCell id="Yg8QPh4uK6IByelMX-bM-15" value="ha.handle()" style="rounded=0;whiteSpace=wrap;html=1;shadow=1;fillColor=#FFFFFF;" vertex="1" parent="1">
          <mxGeometry x="540" y="1910" width="120" height="30" as="geometry" />
        </mxCell>
        <mxCell id="Yg8QPh4uK6IByelMX-bM-21" style="edgeStyle=orthogonalEdgeStyle;rounded=0;orthogonalLoop=1;jettySize=auto;html=1;exitX=0.5;exitY=1;exitDx=0;exitDy=0;entryX=0.5;entryY=0;entryDx=0;entryDy=0;entryPerimeter=0;" edge="1" parent="1" source="Yg8QPh4uK6IByelMX-bM-16" target="Yg8QPh4uK6IByelMX-bM-20">
          <mxGeometry relative="1" as="geometry" />
        </mxCell>
        <mxCell id="Yg8QPh4uK6IByelMX-bM-16" value="InvocableHandlerMethod.&lt;br&gt;invokeAndHandle()" style="rounded=0;whiteSpace=wrap;html=1;" vertex="1" parent="1">
          <mxGeometry x="515" y="1970" width="170" height="30" as="geometry" />
        </mxCell>
        <mxCell id="Yg8QPh4uK6IByelMX-bM-25" style="edgeStyle=orthogonalEdgeStyle;rounded=0;orthogonalLoop=1;jettySize=auto;html=1;exitX=0.5;exitY=1;exitDx=0;exitDy=0;exitPerimeter=0;entryX=0.5;entryY=0;entryDx=0;entryDy=0;" edge="1" parent="1" source="Yg8QPh4uK6IByelMX-bM-20" target="Yg8QPh4uK6IByelMX-bM-26">
          <mxGeometry relative="1" as="geometry">
            <mxPoint x="380" y="2250" as="targetPoint" />
          </mxGeometry>
        </mxCell>
        <mxCell id="Yg8QPh4uK6IByelMX-bM-20" value="处理@RequestMapping请求" style="shape=note;whiteSpace=wrap;html=1;backgroundOutline=1;darkOpacity=0.05;shadow=1;fillColor=#FFF2CC;size=28;" vertex="1" parent="1">
          <mxGeometry x="542.5" y="2020" width="115" height="110" as="geometry" />
        </mxCell>
        <mxCell id="Yg8QPh4uK6IByelMX-bM-23" value="循环HandlerMappings找到Handler" style="shape=note;whiteSpace=wrap;html=1;backgroundOutline=1;darkOpacity=0.05;shadow=1;fillColor=#FFF2CC;size=28;" vertex="1" parent="1">
          <mxGeometry x="304" y="1658" width="115" height="110" as="geometry" />
        </mxCell>
        <mxCell id="Yg8QPh4uK6IByelMX-bM-24" value="具体说一说参数处理" style="text;html=1;strokeColor=none;fillColor=none;align=center;verticalAlign=middle;whiteSpace=wrap;rounded=0;" vertex="1" parent="1">
          <mxGeometry x="30" y="2190" width="130" height="30" as="geometry" />
        </mxCell>
        <mxCell id="Yg8QPh4uK6IByelMX-bM-31" style="edgeStyle=orthogonalEdgeStyle;rounded=0;orthogonalLoop=1;jettySize=auto;html=1;exitX=0.5;exitY=1;exitDx=0;exitDy=0;" edge="1" parent="1" source="Yg8QPh4uK6IByelMX-bM-26" target="Yg8QPh4uK6IByelMX-bM-30">
          <mxGeometry relative="1" as="geometry" />
        </mxCell>
        <mxCell id="Yg8QPh4uK6IByelMX-bM-26" value="getMethodArgumentValues()" style="rounded=0;whiteSpace=wrap;html=1;" vertex="1" parent="1">
          <mxGeometry x="331" y="2244" width="160" height="30" as="geometry" />
        </mxCell>
        <mxCell id="Yg8QPh4uK6IByelMX-bM-27" value="处理参数" style="shape=note;whiteSpace=wrap;html=1;backgroundOutline=1;darkOpacity=0.05;shadow=1;fillColor=#FFF2CC;size=28;" vertex="1" parent="1">
          <mxGeometry x="170" y="2220" width="125" height="62" as="geometry" />
        </mxCell>
        <mxCell id="Yg8QPh4uK6IByelMX-bM-29" value="" style="shape=image;verticalLabelPosition=bottom;labelBackgroundColor=default;verticalAlign=top;aspect=fixed;imageAspect=0;image=data:image/png,iVBORw0KGgoAAAANSUhEUgAAAZgAAADzCAYAAAC7fwB4AAAgAElEQVR4nOy9/XMb953n+WrcnhOym3TtCGiYckwAdNGSQUjnM6kHJ5YoWpR3rzK2szO3l8qeyqnTJJPN7R8wlZ3JZTOZh8pfMOPJrbdqK5Wr7MPN2M5a1pgSiViOTUmcZcQHPXBEALQtDtCtzBbZLfhmXcD90N3oBtCNB4ogSOX7qlKVCKC/D5/vt78Pn0/39y09Pz5RRiAQCASCbSbU7QIIBAKB4OFETDACgUAg6AhighEIBAJBR/hHO5WRGn2M8cl/whODcf729k3e/M8/3amsBQKBQNAFdmSCUaOP8c//xdf53Oc/D0C/8nm+fLjEk5Hq393RYP4jiU/+XtqJYgkEAoGgg+yIi2x88p9UJheA8Kf/tW5yAXgyAr/9bJkzSfFg205SKu/nT18e5cWysPt2UZLjHDs1ypOysGktJXWcb//+N3lBFbZ52NmRHcwTg/HK/0v6POV/9PkGv4anB8r8f5/Bz2//+u1kSuU+vn16nLN9nrpv3ubcxZusSL9+9giiVI7wzMTT9OTmmM2Y9mcyw0dHiRdvcHFR26FyWHnKuTTXC9vXPiU5znNHBunztPlm9lqlrg5KYpTjcaXyd1lbrtTdsZEqSZTLBtmr17hjuumV1CQvjlgrvXJZY3F6ibwkBaapJEY5FitWfrfXKaV+m+9/5QBg1f/yj/6CS542rP7+Fn/5R/+JhYeg3jtJ0wnm27/7DT7/+eAJoVgs8uc/+rcN0/jb2zfpVz5P+NP/SvkffZ7/YfB/ofTZp5T0ef766t/zd//tvwPw6hm1cs0zT5S5o/HQu8ucCSV+6y2+84lb18vX3qz8/eKR3+T1o5ucuHq3W8XcfUQjRPQbXPQOuEqEMCZGOEK0XOjqIBgys8zOZIHgMgRNTu5Anq6qQzR1ktOn9KoBXpZl34nHStuagKcyJiU1yZkjIxj2tSU1yZnYfT68NIPh5NEkTSMzx6J8kmgU8oUHsE0hzZ/9cbqhbTpNqTzC176k8+c/+E+WPVK/zb/55v+KZk8ipdRv82883wMV+whap6mL7N2L042/n7rUNJM3//NP+fv/+u+s3cvffUhp9S+RIv8zv9r8jL/7b/+dV8+oVZOLwzNPiC00wDt317tdhF1Hv9yDYd6v/kzdB/pNsnqYaLRLBXtASmqSY+F7zE4vsR4dYXJinNOnkhxOnSRaSDOb6yF1qPpeKZpGfUJKhLCsk121v8vnyJqWXUplmeFYD9nljDu51OCbJmCaJj2y4vvdXiIkLfHT1zwT+MJNbvEbRKJQKqtMfuk3uPyXMw/FTq2bNN3B/O2dO/zq7/+e3/jH/7juu3u/+hV3MpmWMvLGXEr6POjz/GJpA4CfffgrfvP4bzS8xkup7wA/mRgmZje+s9p3dwN/A6PP8ryxwrmLN7nF4/zwlWd5XpKgvMmPb29ydr9hfdd/kJ9MKPz7N67x15Jkp239/Q6P88NXniI7t86JUSu/y9fe5PcY4/2x/QDkbs1w9uamVa7yfjcfz3fW50+Rvb3J2QPudf/iRp/7+7GXee/Abf6PqU+q61ru49sHBsjdve35zD8fgOGDp3j9QJ/1w/JdfuDUq+Ya73cO5XIf3zp9ihN309Xp7V+vt2NV/fztztMTvmWpJXrqm/zL5+sbu3D5/+bPZlpbKpfKMtEw6MsG67JOKpZAyVsDqLtTuAHJp4mYa3w4W+CxY2NVn81eybChJKpcU4WlGebzCsNHRwnrHnecswOY9S+f5eLqJevjdiqXNRYuFXjshSSqJMHIKU7HcsxeySCrYbRc2ipHEhYuzbCOyjMTPZgZ2MivoU1YO7R1FJQeUEdOMTlS7eZC7kXRtcoAGZJMjCKEZcXe6d1DT4wzGbG+d3YspbIcnOYW8Lat42b6ZfQU/+qbYS7/0X+iMPG7dW1fvvUGf/gfl6xdxh+8zEGnLRr0hwfuQ4cOcoBfsZwHok9zgNvcGv/XfO9A87wFwbQUg3n77Xc4+79/re7z/3L+nQfK/MgBhQvX/pvv5BJEqdzHtw/C9994ixVJovT4KO+PjvHix9dwSvP86AA/eOMtviNJlOxBkbm3OOGZhGClxRwVzh6Ac2+8xa0vjPH+2Mu8f3eOE2/M2ZPRU7x4wzMZTb/FdzbdfP508y1+72M7nb7bnutG+fYn0/zeG5tVLrKS1Mdp4Pmxl3lvDGtCnH6Ls5uSXf/9wflsHOR7T23yg7+adgdyz+TyxO00J5zJ8PFR3n9lDN5w7SZJm/zZrXXOHtjP8I2b3KKfF/YrXL7lTC6N6ldj9/6D/MSnLH7kZ37E92da7gKA5cbB68GJxohzj1kDMDS05CBRJYPh+U0kGWFxOs11SaIkyTxW+xkKwwlYmk5bE5Oa5ExyhIH8Eis5nXgsgrJqYEgSA/ZEsCkpPNakrCU5zkisyMKla+5AHYK/m56rcpGVUBkK6+QXoH9oH+RuWr8v38c0ixgGwH1Mu04hyeTO1Z9zx85HSYxy7GgC80oG5J4GxuulT4lQzM0wtSjZk+FBnixc444ZnKaz21HkXqqNH1BvdZzf+tKv+H9/8Bdu7KKmD3jb3nFLvfYfFimR4mt/8EW0H/0JPy1I1q7iX/4OX9X/hJ8u1vejrfQhbzn/1StPceuNP7HKqYZRIwf41ft/zPf/o2R9/81XeGG5OkYjaE5LE4x27x65jz4i9sQTlc+y2Rz37v2qYwULIiRt8trVWww/PcF7ntWxl8tznpXyFwasFfXHgGRdbw2ireZo8OOrdoD943Uuj/aRvfmJldjGJh8xQKIf6B/geamP5194mbOeq3N9/W46levu8p4x0DBXZ1f24pHf5LsHH+c1J/7yhQb5fLzJRwzz3VcmSExP89pmjQ1ubLg3+Me3+fGBcSa+AO987Eno43Uujz7FC/03ucV+Tijr/PuPm+TrlNlr942AsmwDSmKUFNXxlwE1jKHPYUgSITTy+tPEVYU7nt9oy/Urce9nIcnkzqKJMjTGpGe3AUDenbQ2jAhReyJoCcOkyCCpiTGUmkB7Iyw3lQT0IstgOa28/69mY3UNLWaVccUsghycdtnIsZq3kg+ZWbL6YJ29atM0TDsOkzrJscT9uhhNHXmdX/FF/tkf/C6RHzUenK1BHv7yj2y3VOogB6UIB3/39znh+V0hHAW2bycRPfVNvvUluPyjP6kqX1l7n5kFLPsU0ly+/UWeT0a5VBC7mHZo+Smyn/2X8/yf3/omkiRRKpX4L+9c6GS5AnHcY9xOc+KNzYpLa1cQ+LRX35aTfOfK3zDxyrP86eOfuA8BBOQTkjb5zpt37d3FS7ynGPx4epo/C0zdILtR/UlIusv0+rO8+ng/lxiA23PupNFG/ULSXd+y+E007bo3age5UjlCNAx9kTEm3QcWKYdjRFeXaDWC5Ty5RW6OqWmz4uay6qOxmhtkRFXIq4NE9DWuSxK0ECYMSRrXZzTbVTfOadkke/UaK3WzxH1MswdFsfYHEVWFgkb/UIQeZyyPRojompV3M3pklHKh4iZUeqBYMMC87ztBtYLf5B5ESFrip3+8ZO8+/jX/V1jn8o/+gqma35XKI3ztm09x60d/UfWUVll7n9f+vLU4yFZcZIf++Xf4Z7zJH/7xElUPHBR0duYZxIeflt+D+Yd/+AeuLywCcH1hkX/4h39oK6M7W2gx32v6FWLGCt+/YY2MBx4fINYokY/XuawMc+4L1p9OTKOaPmsX0kp6LeYD8OKRB3+3JCTd5fXbBs8fOMhwudwwn1LfAb71eNnapV1M82NDId7vlu17T7u7Db7wFGdZ59JGXZa8c3MF9j/Fuf3w3icbW6pfYFl8yM/8iO//0Z/U/Wvk8zZNzwAXjRBBZ+HSDFPTaaam0/z1pWU02gz2y70o5hpLdmC8X92Hd+myUbgH4RhDYchmWl/JluQ4T6plQpLJypU5sqaM7LO7CEkmeR3iCZWN1Ztke55mcmKcEXIs6T0ceuEUZ2L3mV2w8i6VZRTPezYDh54mYt4jb2AF9RlkyKl/NEacNWvXYmjoDDIypFTKFw+b6AWjcZo2tQ9XBNZbHeeFVJmQVGDqz/8tl/UwkZpneazJ52V4o2aHs3CTW+EvcuqQ+9Ghf/7bHArob+32oZI6zvNP3eYv/8OiT2I3uMUX+a2JqOe3OreW8y3VW+DS1nswMz9/j/37B0i/d7ntjOY/kngy0t5gO/+Rz8rFdu28/pWnAMjdvUuuQRoh6S6/N93HTyZe4r0xJ8i/Dvvt7zdv8f3bA7xuu36apddyPthuriar3JC0yaW7Bq8HBPkBbt2Y48f7xyuPKgflE9q8Reag+zl35zjxiWSV7Q344SvjvHfAG+S3dyO15du4y3uMc3bzb/jOpuM+aq9+QWXpBANqGPQbVSvdkGS5yVKqCvnWBkTyObKxUY6/YC0xNjWtaqUfMrNkiydJ9ayx6nivbJygOFjupw+Xqq8zEuNMjlgXlLVlLhYke0IxOe4J8ju7szNH15i9kuZOpU5zTDnP03gfXU6Oc1yRKvnO2rGSECYry2s8d8TK1wrWe767cgN5YpTJuPswg+O6C0qzXUKFNNr4v+Z7X7HTuvUGf7gogWeS+Z/+t9/hRESCr/w+3/sK7u/+4xL/z4/C/Ktvutff/Ks/5qfb9VSXGkaVDvBb3/19fsvz8c2/+mN+ulhg6s/fJPIHv8P3nnfzFvGX9pF2Ug/m5FPllh89nv9I6tiLlqXHR3n/gCFeXtzDlNQkZ1Rtx16odIimThI355rHHx4Q70uQDg8y2G8XUftx6e18qVTw8LJjh12C+2Z+s0lmOycXKwbwFJmLnsd1RwfI3U6LyWUvk9fQkk+3FmzeJixXkk52wej4S3ehwjJTft6dLvZZJTFKKqyzaAe/BYJm7OgOxuHxf2ztZHbqsMva92a8740IBK0QTZ3kUESisDQjVu8CQYt0ZYIRCAQCwcOPEBwTCAQCQUcQE4xAIBAIOoKYYAQCgUDQEcQEIxAIBIKOICYYgUAgEHQEMcEIBAKBoCOICUYgEAgEHWFH3+TfLr7/1URbv//eT1sTRRMIwNGyH8Rs42j9hunZ4mTdPublYcZqswj5BxBHE2w/OzrBnPv6q7z19nk0bXcchl2l8ljeDDxOfuvpR3hmwtJF/2AVho+OklA8x5HvgrOlWsFRhPSWvdtvtDtlittH39dOBI7tHaXK3WbjSvmLN3b8PLVO49df9kpfD8KRcujzlN9RAfXiVS4F+2BTT/t6xwS/I46CvveeTeeojJpDYxyLFR9IcbTT7OgE8+ij/Zz92lfJrX3E2+9c4NNPP93J7KuwzihzVR5Lj4/y/sQYmQBZ3y0RjRDRHe0M63x278AcTZ3k2CFz1w0wrsSw91BDk8wVayC3brYxnjS3Z4X/IBgmhH2EsvqHBlElqRW5loD6dhglQhgTI2zJH+/WAaIVguy3F/p6KyiJUXsgT1e1UzR1ktOn9KoBXpZl34nHXRDpaHpwXk6/9R5kVZHnvjTjTtCSBJk5FuWTRKOQ36U6aF2JwcQGn+Bb3zjHiS99sRvZW/Tbao03HL2T2/zYGGDiC40vaysLuaehdsZ6oUFP28VYCogyYbX7Qm9F/R7EYkQ9OiGlskw0DJns7h3M+tV9oN8kq7epWbNH2at9vaQmORa+x+z0EuvRESYnxjl9Kslh+1Tp2VwPqUPVIjeWEmk1jrz1xZllglRlSnKckfA9Mlp1Xx6O9ZBd9t/9maZJj9z9+zCIrsVgQqEQY6PPcuhQigsX3uVOpvU4ybbEVPoVYuvrld1KSNokswkn+vqB+oMwt6KY1wir44Qx9JznM2t7rNpl8q6Ear8D1+2woSR47kgvWXsl5SgxVv5ukK53S18uayxcKvDYC0nrt7ZOyYezjetX6z5wVq7uyvYGJF13lVVev9/bsY/le4ST1veFpRnmGam4B+pWh2aGrD5OfEgh73wejRHnHrNmL/Gw1+b1dvhgtdf9rFJfe4BQR5iM224Jj6ujNh3HZeGsYoPaytv20TDoywbrsk4qlkDJZyrKk742Q62kWS4bZHNF4uH7Tdt/HbUtmwb1lUrb5Iok4u51/var7i/t9vXaPrkY0I9r7W59JvPk0THC+lxVesfC9+rsWF0/f7vLahgtl7ZsnISFSzO2TXswM7CRX0ObsHah6ygoPa42kF/5giiVZYaTgxRzaQx1kEq3VSKEuYeeGGcyUm+r3U7Xg/yfe+QRXn7py/zig1lmr15t6ZrtCPIf6OuDlsV0bcW8mbayRZZlS/vWg9v5DLJX08ya3kFpEPNqminTHWgOm2nm89ZNwXKaKY/LIdXTvAwN0zUTjMSKLFy65t4EIfi76bkql0dJknnMm6ajgJgxKJUVhhOwNJ22Bkg1yZnkCNG8K1UcSUZYnE5zXZIo0ez3MvHYPWan02xER3hx5BRntGWmppftgbNeBnm9oJNKOp8rDMfsQYGRpnZ4xkwzP32/pr4RqxzymiffQZ6UC6wYasVHPuUMymqSMxMjUBnQm7SVMwEagKGhJV3Ne4dqm1Wn6ZQd1pp3gLZsqjbog/jY5CDDhWs+9rP6y5b6ul+f9EwuwXZ3fmqyktOJxyIoqwYbKETDMlrumj25NKpfvd2Hwjr5Begf2ge5m1aZyvcxzSKGAZbMtX3r2LuUO3ZZlMQox44mMFuIPQ0cGrUmxYJE1LshknvpUyIUczNMLUoVuz9ZcN3TitxL3UCzS+j6BPPZZ5/x88uX+eV1H+nSDnJrc9NPSn7bCNIud1br0dRJUgmVO45POhpBlRQ4egrv9LkpK1Ysx1xjNk9Fh2O9oJNqRdu5Ubp5kyKDpCbGUJo+MSWTsNOwBgzr9yHJ5M6iiTI0xqRn1elFW3ZXcc1/b7rugLxGIdmDmSlYFTdMiuxDUaBKatJWoowPKaybljTwbB7wup4a2cEX05ZFliyJYXNfJZ2IucbsqkcTxs4/GoV1mrfVgBrG0OdsdUlLeTNeE0fy2qy2/UOVQTSg6H51acWmcjMbBdgkgC319aA+2czuXr9T3p20N4gQlnWy+Sb52lTZvQbL9SUBvciy0wW9/69mY3UNLVa/eKilpCZJ9awxG6AzVDZyltS15LinByv9xVFA3UldpHbo2gRTLpdZunGDixcvUeqWYEBfH8PlMiuSRKncR6IPPrq7gZ+aUrsusmYNv75wg+jE0xxWC5VAaOCTNmrd5W0RlG5IMrk+o9kruXFO209krfjdLZ4gv4W9GrVX9+TmmJo2K+6ZINr9fSuEPKvWYdkdvGsJfpJJfqD8LUxrJdskqVI5QjQMfZExJuOesoXrd2bdINhGW2+jdvp6YJ8MTN2s7CDcNNxJO49n59Gwfn4Ndx/T7EFRrP1BRFWhoNE/FKHHyTMaIaJrXN/iQxqO+1BSpIpUNwCRMU6Hc3y4dN938nIIWsjuFroyweTzBX52/jwbG1sT/dqWGMzHt/nxgXHOfeEm3/kE+MJTnGWFcx/jq9a3FReZWdvzPYQkjdXcIMds//uGrdA4FM1w3Z6voqkkLCyxXvOd0ymrXSTWjZA3rQCyQtEueIN0lQTDcoY7BZOVK3NwdBRZxn85FoTci+JZWVblvR2/bxW7nnFZZ9FvJdjIDlvIZ2RIcxcOdS6vBm0VjRBBZ+FSfcymbiUeUPa22n8LdXtgG9XQVl8P6pPN7F7DemaNeDLGEFasC6S26xeSTPI6HEuorCzcJHt0lMmJJJvZayzpBzn+wilSRo7ZKwXbjSfTrxgY9iJs4JAVy1l1Nj4BeXjdalaZXFnuUllGZ7RSb6972km00YNE3WZHJ5hiscj5C++SW2vVd+zPdsRgQtImf3Z1hZ9MvMR7YxKU7/KDN27uqIzyxupNsuHRyuOb81dlnjsyzuSIJ/htu1HmlyO86PVp53ScSGDIzLKU28dxe+u/qWmVOSIkNUjXzGIk3M/L2jIXC5J9Y5kcbyXIb7spnNWXN+9t+X2LOINYRNZ8XRwN7UBtfYNLFJI05qfhmYlRJuPeYHOm4vJq1FYDahj0G1VldFbcKVWFfP1gUVv2dtq/XRsG2ajR896t9JeW+3pgn2xs97ryGRo61ntG103HPdt+/RxPxJmja8xeSXOn0m5zTDnDivfR5eQ4x5Vmu6XWCUkmK1duIHvqXVia6frrAa2yJxUt98qb/CU1yRlV68iz/+Lt8F9vRPvvLN4XHR12w8ujUftx6d0q4931IP9Djb0l360BOMHewIpHxDCueB7XTYYxcv6xJsH2EyosM+W3ke+i/ZXEKKmwzuICgS64brMndzACsYL9daP2XaO99C6E4NcXMcEIBAKBoCOI4/oFAoFA0BHEBCMQCASCjiAmGIFAIBB0BDHBCAQCgaAjiAlGIBAIBB1BTDACgUAg6AhighEIBAJBR9iTb/LvlaNiBIJmuNoo2yM/LV7A7TxWm0XItygm9uvMjk4w577+Km+9fR5N2z1StqXyfn74yrM8cTvN2ZtbO905OG1XJOmDVRg+OkpCqVek3O0DgSPM5C27V2+9m2WK28e51w7Oju0dZcIHsfFO5tUJKuUv3ujIuXjdxK9v7pX7KojaUxvA/+QGr/InVKuuQvX443fqQ+33tek5FJZmWJXHOBYrtqzQ6bCjE8yjj/Zz9mtfJbf2EW+/c4FPP/10J7OvolTu49unxzmrrHO5UyIc0QgR3dFqsPQmvANzNHWycrrsbsKVj/UeoufqwVg3wBhPmtuz6n4QDBPCNWJdAP1Dg5a88C7Ly9+2HUaJEMbECFvSvnt51R1kv71wX7WCkhi1B/J0VTtFUyc5fUqvGuBlWfadeNwFkY6mB+fl9FtnWW1kPCdEQ0WrKZ8HQ5pjUT5JNAr5NhTiuxKDiQ0+wbe+cY4TX/piN7IHrOP6X7v0M068Ocd0h/Lol3saajWsFxq0/i7GUtWTCatBapA7R1G/B7EY0bI7vDua95ns9g4wO5nXdtKv7gP9Jlk9TDTa/Pd7nb16X5XUJMfC95idXmI9OsLkxDinTyU5bJ+YPJvrIXWoWn3QUtmsxtGYuTizjJ+8EFiTx0j4HhkteFk0kBik6FH4NE2TnkAFWH+6FoMJhUKMjT7LoUMpLlx4lzuZ1uMk3YiptKto2QxHNMrQc57PrC2r6nOgYe134LoCNpQEzx3pJWuvbpyVR+XvBul6t8XlssbCpQKPvZC0ftuKHgz1W3pnNemuNm9A0nUhWeX1+70dj1i+RzhpfV9YmmGekcpR6XUrNjNDVh8nPqSQrxWiMnuJh9svp1rz/Zby8rH5B6u97me12jPqCJNxq45eV0dtOpYGSr1YWW2/cMthTYD6ssG6rJOyRb8MqUH7oFbStLRnisTD95v2tXVH877F9gvql5V+kCuSiLvX+duvum+2e1/V9v/FgHum1u7WZzJPHh0jrM9VpXcsfK/OjtX187e7rIbRcmnLxklYuDRj27QHMwMb+TW0CWsXuo6C0gNqRXeovnxBlMoyw8lBirk0hjpI2O83joyzR/p7K3Q9yP+5Rx7h5Ze+zC8+mGX26tWWrulGkH8ripayLFtaqx5UrxDV1TSzpnegGMS8mmbKdG/+w2aa+bzVUVlOM+VxA6R6mpehYbpmgpFYkYVL19yOGYK/m56rckOUJJnHvGl6VPVKZYXhBCxNp61BS01yJjlCNO+qBEaSERan01yXJEo0+71MPHaP2ek0G9ERXhw5xRltmanpZXswq5cWXi/opJLO5wrDMftGZcRjB7m9cvp833pe/jZ/xkwzP32/xrYRq87ymqeOgzwpF1gx1IqPfMoZlNUkZyZGoDKgN+kXdWqb9Rrx1e1TnaZT9mr1zEa02n5qg/6Oj00OMly45mM/q29u6b7y6/+eySXY7s5PXaluZdVgA4VoWEbLXbMnl0b1q7f7UFgnvwD9Qx6Z5/J9TLOIYYAl4WxdW6uEqSRGOXY0gdlC7Gng0Kg1KRYkoj5y7M4kreXSdWkpci91g1oDuj7BfPbZZ/z88mV+eX2x20XZVoK0sp1VcTR1klRC5Y7jJ45GUCUFbFVCh01ZsWI5ZvVqYr2gk4rRnEbp5k2KDJKaGENp+hSTTMJOw7qJrd+HJJM7iybK0BiTnpWgF82zzW7+e5Pssn2T5DUKyR7MTMGquGFSZB+KQrWss62SGR9SWDdjxLFt5XEHtVtOJ806GeMW8mpoc19MspU6aujmvko6EY+8dF25aN4vBtQwhj5XUdt0tOq9caSqetf0tVBlEA0oul9dWmk/uZmNAmwSwJbuq6D+38zuVf3BnbQ3iBCWdbL5JvnaVNm9Bsv1JQG9yLLT3b3/r2ZjdQ0tVr94qKWyM/GTFXdQPPXw/MRR92xH36prE0y5XGbpxg0uXrxEaQ8IBrTrImvWGOsLN4hOPM1htVBxwwQ+/eKzymiHoHRDksn1Gc1eXY1z2n5KasVXb9cN8lvYK0R7xU1ujqlps+IyCaLd37dCyLOSHJbdAbUT+baSFzR6kkluO896TGsl2ySpUjlCNAx9kTEm456yhet3gd0g2EZb7w/t3FeB/T8wdbOyg3DTcCftPJ6dR8P6+TXcfUyzB0Wx9gcRVYWCRv9QhB4nz2iEiK5ZEs9bwNmZSIpUkSwHIDLG6bBb1oGEdZ/UTn5Bi+ZGdGWCyecL/Oz8eTY2tvZYcDdiMFtxkZm1vdGDoyF/zPaJb9jql0PRDNft+SqaSsLCEus13zkdpdptYXXOvGkFdRWKdsEbpKskGJYz3CmYrFyZg6OjyDL+S6Qg5F4Uz2qvKu/t+H2r2PWMyzqLfquzFvJ1bmqA/qGDVlp+UdJmeTWy+RbqNDKkuYuUOpdXg34RjRBBZ+FSfcymbiUeUPa2+toW6vbANqqhrfsqqP83s3sN65k14skYQ1ixLpDarl9IMsnrcCyhsrJwk+zRUSYnkmxmr7GkH+T4C6dIGTlmrxRsN55Mv2Jg2Au+gUNWLGfV2fgE5OF1q9bOC7AAACAASURBVFllOknctGNItnswaru//RJq9NCSHzs6wRSLRc5feJfcWqv+XH8elhctN1Zvkg2PVh6pnL8q89yRcSZHPEFm27UxvxzhRa+fOafjROdCZpal3D6O29vxTU2rzBEhqUG6ZhYj4X5e1pa5WJDszm5yvJUgv+06cFZE3ry35fct4gwsEVnzdzu0kK9GhMmJJFATNK3ZYTfLq6HNqbVtcO1Dksb8NDwzMcpk3BtszlRcXo36xYAaBv1GVRmdFXdKVSFfP1jUlr2dvtYOjWzU6HnvVvpmy/dVYP9vbPe68hkaOtZ7RtdNxxXcfv0cr8eZo2vMXklzp9JunseHvY8uJ8c5rjTbLbWJItNDkXyDiaod9qSi5V6ZYEpqkjOq1pHn8cUb29tHV95N2UOIvrazlNRk5ak7h93w8mjUfly6nXuk60H+hxp7m9xOUEwg6CbWZBvDuOJ5XDcZxsj5x5oE20+osMyUn9Ogi/ZXEqOkwjqLC7S1s9mTE8xudXnVEpI0rs/s3hfwBIJaQpLJyvJ9npsY55DPeyOCX0+MzBwXM7Q9ye1JF5lAIBAIdj/iuH6BQCAQdAQxwQgEAoGgI4gJRiAQCAQdQUwwAoFAIOgIYoIRCAQCQUcQE4xAIBAIOoKYYAQCgUDQEfbki5Z75aiYTuDqW3Rertg6cXgfepO8mh21YpU5Qr5NPe/tZLvtJo5P6Ty7od8IHowdnWDOff1V3nr7PJq2O95uLz0+yvtj+60/ypv8eHqa1za3ryN7hYs+WIXho6MkFH8d8e0gmjppHaddc/aZV2VvNw+Grpa4WdGbqf7esqejALjb6lIpf7G+DfY6Tt28/Xc3nI/1INQqnIL/qQVe1UuoVhyF6vvc78QDv++D1FWVxCjHYsWW1Sl3Ozs6wTz6aD9nv/ZVcmsf8fY7F/j00093MvsqSuX9/PCAwbm/epMVSbImm4kxMm9c46+3q2GjESK6o58g49VUsTrYGE+aD7Y78GKpLVqSqu7x7HJFZa/dgSBkZpmdybItx6q2gWFCuEYUC6B/aNCS8W0hja4cYKlECGNihKvbYC8SZD/voiiaOlk5sXiv4Q7k6ap2iqZOcvqUXjXAy7LsO/G4CyIdTQ/Oy+m3m5XrIjxzZJDicprZQrV6aj4zx6J8kmgU8u0rse86uhKDiQ0+wbe+cY4TX/piN7IHICTd5TuXbrHidK6P17lMH4n+7cujX+4J1E8ImVmyukxYDVI53AJ5DY0wUa+6oq1Ol/fT/tilFPV7EIsRLbtTiaMtn8nu3sGsX90H+k2yek0bPKSsFxqMqruYkpq0dvTTS6xHR5icGOf0qSSH7dOCZ3M9pA5Vq/xZCpPVOPoqF2eWCbq9SnKckfA9MlrtsshzT+Y1NFtjBywdqZ5A9dO9RddiMKFQiLHRZzl0KMWFC+9yJ9N6nKQjMZUvDPA8m0xv4Ltgb1fRsl38tszzeUsfXZUkqNUPUUeYjFvlcbbsVVofjnCWug9FX3N3NAFbc3fFegOSlhvqwyVIHe0la6/mgq51UTl8yi6v7/d2XW2XgRp0mKKZIauPEx9SyNcKPpm9xMON0/pgtbctu/mlU6UH4/M9WC4itxzWBKgvG6zLOilb8MqQ/G07eyVj67ZbaVq6K0XiYSuus6EkeO5Ire2tvyt69sv3CCet9igszTDPSOWYd69Ng+xdiUvliiTi7nX+9qvu444QmaF7bRDcrl43k9e2zexufSbz5NExS0fek57j9vXasbp+/naXVUtvfkNJ8FwSFi7N2DbtwczARn4NbcLaha6joPSAWtHcqS9fEKWyzHBykGIujaEOOpI6FT2hEad/RyNE9LWKlszDRNeD/J975BFefunL/OKDWWavXm3pmu0O8pf6DvCT0QEuz70V6B7biqKlLMuW/qlfnnKcuK0cVyorDCdgaTptDUj2lnkgv8T89P0qV0VJigAycXmNqenlyqD/pFzgjilZ6npH3JvDco9Z2ualsuybTzTvquxFkhEWp9Nctwe1SnnbvdbneysdJ9ieZsp0B9/DZpp5zzLQcvc50r4KwzF7UGCkaVrPmOm27LZiqBUf+ZQzKKtJzkyMQGVAfxqW00x53EOpHk/F6pQm6/XRq+xTk6ZT9mrlyIa9i3jsHrPTaTaiI7w4cooz2rKnbo7t1Cb2rrXJQYYL13zsJ/MY3oHWIHs1zazpnYAD8jETjMSKLFy65g7Mnskl2O7OT12ZamXVYKPSr6/Zk0vj/lRr96GwTn4B+oc8Esfl+5hmEcMAS77YurZWBVJJjHLsaAKzhdjTwKFRa1IsSER9ZM/74q6U9WY2V/WdIvcSOHjsIbo+wXz22Wf8/PJlfnl9sSv5Dx88xetPwY+n39rWAL+/frVMwlYCtG5QK/4SkkzuLJooQ2NMelZ5wZhkM9akgaGhm/vcrwwN3Ry1JHFNyz2WzVs/bSUfbdl/ddb2tbaCZJ00bzSCKilg28Fhs9YlYF8fH1JYN2PEWWM2D0S3kFYzu0Uj1up21SN/7C0/9ve2HcGeAD2y5gNqGEOfqyhNOjrt3jhSlX2i1WmGKoNoQNH96rJsD3J5jUKyB7NSN5Mi+yyXi9zMRg36kg/OrjSaOkkqoXLHib80aou8SZFBUhNjKN6HN5rZ3dtv8u6kvYGnX7fQB4L6NDiuLwnoRZYdtXDv/6vZWF1Di9UvHmopqUlSPWvM+khql+Q4IzHIXJmx4rHlCM9MWJPi9YJUUbZ8GHSkujbBlMtllm7c4OLFS5S6JBjw4pHf5Lv8DSfevEuzQHa7LjL/TuIG+S2q3Vbk5piaNivukK3gSMoeU1X6TX/32Fby2c4yBj99JFfVw1m1Dsvu4L2VtLaOaa1kmyRl6ZhDX8RdkQKUw84uorsE22hr7QewvnCD6MTTHFYLFTdoUD4hyeT6jGbvLsY5bT8luBKYulnZQbhpuJN2Hs/Oo2H9/BruPqZpxTtMIGK7k/uHIvQ4eUYjRHTNkjfeAo77UFKkikQ3AJExTodzXNet+3LWI6+c158mLiuAGbA43Zt0ZYLJ5wv87Px5NjY2m//Yh+2IwZT6DvDqwDo/eOOTlkR0tuIiM2vvkiDkXhTPSq5f3YdCsb3MPGwU7mEcGWSkB7LL9ur0QfNp4dqIN/YzdJC4rLNYG/20VT6Hohmu2/NyNJWEBZ+B2P5tXNZZ9FkJtpVWI+x0RoY0dzFQ5/Jy83EGkIo7Kxohgs7CpfqYTd1KPKDsdWkC2IHfvMnW+8R22agGJ45wzI41bTTKR0kwLGe4UzBZuTIHR0eRZZrbvYb1zBrxZIwhrFgXSG3Xz1qAwbGEysrCTbJHR5mcSLKZvcaSfpDjL5wiZeSYvVKw3Xgy/YqBYU8GA4esWM5qA836WreaVaaTxE0rhlSSwfC4tZ0FSrHgJhr0cNBeY0cnmGKxyPkL75Jba9XP7M+2xGD6FWLSfr77lZf5rufjy9fe5Duf7HCwzXYLOKudTU2rbM+dHcnx2mB1IwwN3RwkzhpL3huhQT4PUkYHjQiTE0mgJhjq2aGGJI35qzLPHRlncsTzMEDN75zfruYGichagNsuOK0QrdstJGnMT8MzE6NMxr3B5kzF5TW/HOFFb/whp+NEbQfUMOg3qspY9cBFvn6wqC17bZohM8tSbh/HbddPW23Voo0aPe9d3+/qd+kbqzfJhkcrjyoHtoWZxUi4n5e1ZS4WpKZ2ryufoaFjvWd03bP6b7d+jnfhzNE1Zq+kuVNptzmmnKHC++hycpzjSrPdUuuEzCwfLPfyosett93vxO0W9qSi5V55k7+kJjmjanvyPQHBziNOB9hZSmqy8tSdw254eTRqPy79MEw4XQ/yP9TY2/eHIVgn2F6seEQM44rncd1kGCPnH2sSbD+hwjJTfm8YdNH+SmKUVFhncYGdfr+5I+zJHYxA8DBQ+16R39viAsFeRkwwAoFAIOgI4rh+gUAgEHQEMcEIBAKBoCOICUYgEAgEHUFMMAKBQCDoCGKCEQgEAkFHEBOMQCAQCDqCmGAEAoFA0BH25Jv8e+WomE7g6m40llrelrzkOM8d2YfeJK9m8sRWmSPkHxKd8WZsdxuJI2Q6z69bH90pdnSCOff1V3nr7fNo2u44m6tU3s8PX3mW5yUJynf5wRvXAgXHtpa+K6j0wSoMHx0lofjrm28H0dRJ65jvmrPPvOp/u3mAcjXOzYpWTvX3lj0dZcIHqctO5tUJKuUv1rf3Xsepm/de2Q1nhD0Itac2gP/JDV7lT6hWXYXqMcXv1Ae/7715e3WolMQox2LFlhU6t8KOTjCPPtrP2a99ldzaR7z9zgU+/fTTncy+ilK5j2+fHmD6jbf4jiRZ2jBHH+evr97dvkyiESK6o+sg49WDsRp9jCfNB9sdeLFUIC01S/fYeLmi/tfuzRkys8zOZNnpQ5EME8I1Yl0A/UODlrzwLsurnTbaNpQIYUyMcHV770WC7OddgEVTJyunNu813IE8XdVO0dRJTp/SqwZ4WZZ9Jx53QaSj6cF5Of12s3JdhGeODFJcTjNbcJRmE+SvZKxTpeWTRKOQf3DVd1+6EoOJDT7Bt75xjhNf+mI3sgcgJG3y2qW5yo7lnbvr0NfHcHn7hq9+uSdQ1yFkZsnqMmE1SH1xC+Q1NMJEvaqPiqX+l/fTJNmlFPV7EIsR9bSFo3mfyW7vALOTeW0n/eo+0G+S1Wva+yFlvdBgVN3FlNSk5T2YXmI9OsLkxDinTyU5bJ+YPJvrIXWoWk/ZUtmsxtGYuTizTNCtXJLjjITvkdE8Y5itGrrqXJTPkWUfUXvYMU2TnkAF2AenazGYUCjE2OizHDqU4sKFd7mTaT1O0omYyj/dP0DubpqVgJVgu4qW7VK7hS4szTCft3TbVUmCWl0TdYTJuFUeZxtdpUHiCH+p/qqW3nyuezTh5dwNSFquoQ+XIHW0l6y9wgq61kXl8Cm7vL7f23W1t/Fq0CGPZoasPk58SCFfK0Rl9hIPN7abX30Cy9ROXj7l/mC1t6028kunSjvH53uwXERuOawJUF82WJd1UrbolyH5t+PslYytXW+laWnPFImHrbjOhpLguSO17Wz9ve5o3i/fI5y07FxYmmGekcpR9972C2rbSlwqVyQRd6/zt1/1/eSIsRm61wbBfcjrZvLatpndrc9knjw6Rlifq0rPcTF77VhdP3+7y2oYLZe2bJyEhUsztk17MDOwkV9Dm7B2oesoKD2gVnSH6ssXRKksM5wcpJhLY6iDhBv+WrYE33bgXNWuB/k/98gjvPzSl/nFB7PMXr3a0jXbFeQv9R3gJxPDxCSJy9fe5GwDobGtKFrKshzYiCU5TjxsomcMSmWF4QQsTaetQUJNciY5wkB+ifnp+1Xug5IUAWTi8hpT08uVAdZRx1vPrBE/4nZYyz1mqVqWyrJvPtG8q/4XSUZYnE5z3R5oKuVt91qf7610nAB4minTHRAPm2nmPUszy93nSA4rDMfsG5WRbS9Ta3n5l/sZM91WG60YasVHPuUMymqSMxMjUBnQn4blNFMe91Cqx1PgOrXNeo34qnrXpOmUvVo9sxEy8dg9ZqfTbERHeHHkFGe0ZU/dHNupTdq21iYHGS5c87GfzGN4B1qD7NV0RWK4YR8yE4zEiixcuuYOzJ7JJdjuzk9dqW5l1WCjcg9dsyeXxn231u5DYZ38AvQPeWSey/cxzSKGAZaEs3VtrRKmkhjl2NEEZguxp4FDo9akWJCIejdE5n0MedBV/IzGSCgS3ilckXvp1GzT9Qnms88+4+eXL/PL64s7nndo8xZn37wFwItHXuK9Ayucu3gzcBfTDv662jIJW8XOG2wLSSZ3Fk2UoTEmPSuvYEyyGVsK2dDQzX3uV4aGbo5aUr2m5R7L5q2ftpKPtuy/Ymr7WlsBs04yOBpBlRTwqPkBbNZu0+3r40MK62aMOGvM5gGPO2jbytRCXi2Xu0JAG9kuC0d6uq5c2N/bbQb2BOiRdh9Qwxj6XEVt09Gq98aRquodrU4zVBlEA4ruV5dle5DLaxSSPZiVupkU2YeiAHIzGzXotz44u81o6iSphModJ/7SqC3yJkUGSU2MoXgf3mhm96r+4E7aG3juoRb6QND9A47rSwJ6kWVshVLv/6vZWF1Di9UvHmopqUlSPWvM+siKV9QzncnayJHRjMp84qh7dkqzqmsTTLlcZunGDS5evERpFwgGvHPlb5h45Sle6L/Jymb99+26yPwbzg3yW1S7rcjNMTVtVlwUW8GRuj2mqvSb/u6xreSznWUMfiJIrqqHs5Iclt0BtRNlaiWvVsu9dUxrJdskKUe/vS8yxqS7waQcdnYR3SXYRlvrKwDrCzeITjzNYbVQcW8G5ROSTK7PaPbuYpzT9lOCK4Gpm5UdhJuGO2nn8ew8GtbPr+HuY5o9KIo1nkds13X/UIQeJ89ohIiuWRLPW8BxH0qKVJEzByAyxumwXVaPsJq1k+slbwua+S+Et4+uTDD5fIGfnT/PxobPSN4C2xGDKfUd4CcHNzlrPzV24OmneN5Y5/UNfB+a2oqLzKztuUHIvSie1VW/ug+FYnuZedgo3MM4MshID2SX7RXjg+bTwrURb+xn6CBxWWexNiJpq3xWtuxANJWEBZ/B0f5tXNZZ9FmdbVuZWsmrnXI3wk5nZEhzFx51Li83H2cAqbizohEi6Cxcqo/Z1K3EA8pelyYA1kCYN9l6/9suG9UQkjRWc4Mcs2NNG43yURIMyxnuFExWrszB0VEr3tDM7jWsZ9aIJ2MMYcW6QGq7ftZiD44lVFYWbpI9OsrkRJLN7DWW9IMcf+EUKSPH7JWC7caT6VcMDHsBOnDIiuWsOhufgDy8bjWrTCeJm3YMqaYfDxyy3ITeXVbQg0jbwY5OMMVikfMX3iW31qrv15/tiMGENm/x/c1TvPfKqPVB+S4/eGN73GNtY2/VnRXIpqZVtszOjuR4bQC5EYaGbg4SZ40lb+dskM+DlNFBI8LkRBKoCVB6dqghSWP+qsxzR8aZHPEE3mt+5/x2NTdIRNb83Q7bVKZW8mpU7hCtt1FI0pifhmcmRpmMe4PNmYrLa3454ro0ygbZnI4TtR1Qw6DfqCpj1cMd+frBorbstWmGzCxLuX0ct10/bfWLFm3U6Hnv+j5e7xHYWL1JNjxaeVQ5sC3MLEbC/bysLXOxIDW1e135DA0d6z2j6/aAv5X6OZ6MM0fXmL2S5k6l3eaYcoYl76PLyXGOK812S61T+07RTqum7klFy73yJn9JTXJG1fbks/t7na68m7KHEKcD7CwlNVl56s5hN7w8GrUfl+7UPdL1IP9Djb2l7lQATSBoBWuyjWFc8Tyumwxj5PxjTYLtJ+SJg1TRRfsriVFSYZ1FOx7TCfbkDkYgaIbYwVRT+77QTrtKBL+eiAlGIBAIBB1BHNcvEAgEgo4gJhiBQCAQdAQxwQgEAoGgI4gJRiAQCAQdQUwwAoFAIOgIYoIRCAQCQUcQE4xAIBAIOsKefJN/rxwV002sF+v2ofvozXc7z2YvQVqHN0bId1ArvBmu5sj22E8czdJ5dkO/EVSzoxPMua+/yltvn0fTdtfZXKXyfn74yrM8cTvN2ZtbO+HZP11X5OiDVWxNbbOiA+P3W0cJbycGoWjqpHVUd81ZaV4Fv908GLo65bvHpu1QKX+xvg32OrWHLMLuOHvrQag9DQH8T0TwKmpCtZopVI8L3msbXedV4/RqSSmJUY7Fii0rX+40OzrBPPpoP2e/9lVyax/x9jsX+PTTT3cy+0AOPP0Uz0sSueY/bY9ohIjuaC1YehGGCeEacSiA/qFBq/O0kGwrx6CEzCyzM1kaHTJkKTla6pfu0e9yRcGv3YGglTw7wU7ZdNtRIoQxMcLVbbAXCbKfV6I6mjpZOQ15r+EO5OmqdoqmTnL6lF41wMuy7DvxuAsiHU2vz6Pxda4aZ0lNcubICMb0EvnMHIvySaJRyD+4cvu205UYTGzwCb71jXOc+NIXu5F9FaW+A3xv/zo/vrv9J+b0yz11WgtF/R7EYkTLbn6Oxnomu8M3Xl5DI0zUq9yoWAp+eT9dkV3KrrJpG/Sr+0C/SVavaYOHlPWCz6i6ByipSWtHP73EenSEyYlxTp9Kctg+iXg210PqkFp1jaVeWY2j3XJxZpmg28vvOueezK7a3+VzZE23z5imSU+gsmp36VoMJhQKMTb6LIcOpbhw4V3uZFqPk2xXTKVU7uPbR4b56NZbZPYPc6LBb9tVtAzEzJDVx4kPKeRrhY/MXuJhT/lqtuSFpRnm82plq4xHP+OxY2PIuRuQtFxCHy5B6mgv2eklzKGxqm201zVW0RFxRLlUfxVMbxmue3Tdg/LMS1LgtS4qh0/ZdfH93raDxz0APm6Jdmzqk9YHq70+NrVvZnWEybjV7kEuC6jRmvH5HiwXkVsOawLUlw3WZZ2ULaZlSP62nb2SsTXhPW6SXJF42IrrbCgJnjtSa3vr73VHS375HuGk1R6FpRnmGakcIe+1aZC9K3GpXJFE3L3O337V94QjcmboXhsEt6vXXeS1bTO7W5/JPHl0zNKo96TnuH29dqyun7/dZTWMlktbNk7CwqUZ26Y9mBnYyK+hTVi70HUUlB5QK3o+9eXzo1SWg6+Te1F0V6coJJkYRQjLChXt411K14P8n3vkEV5+6cv84oNZZq9ebema7Qry/9Oj45y4m+bsJxIv7m+cxlYULWVZ9m1/yzXlSNwqDMfsDsxI5TelssxwApam09agoyY5kxxhIL/E/PT9KndESZJ5DIgkIyxOp7luDzAOhr2NdjTnUz1rFRW99cwa8SPuzWG5xywVzKAyRPOugl9Qnm1f6/O9lY4TbE8zZbqD72EzzbxnGdiaTf3TesZM+9g0AsjE5TWmppcrk+WTcoEVQ6340KecQVlNcmZiBCoD+tOwnGbK4x5K9XgqVqdiWa+9XmWfmjSdslerUjZCJh67x+x0mo3oCC+OnOKMtuypm2M7tYm9a21ykOHCtcA+qXqF066mmTW9E3BAPmaCkViRhUvX3IHZM7kE2935qSuBrawabFT69TV7cmncn2rtPhTWyS9A/5BHPrl8H9MsYhhgSSNb19YqTCqJUY4dTWA2iT01ug65J/A6B0XuZTdONl2fYD777DN+fvkyv7y+uKP5lh4f5bt9K5y7stERTYaGWte2EqMz4MdZYzYPeNwkIcnkzqKJMjTGpGcl1whtOXilZOmaj3IGk+zVJbezGxq6OWrJ7Zr2VjwPSK2VISjPtq+1bVIn+xuNoEoK2GqLDpu1LoEWbNpyWhVMshlbctrQ0M19lXQiHqnmuvJjf2/bEewJ0COZPqCGMfS5ioqlowHvjSNV2SdanWaoMogGFN2vLsv2IJfXKCR7MCt1MymyD0UB5GY2CrBJAM6uNJo6SSqhcseJvzRqi7xJkUFSE2Mo3oc3mtnd22/y7qS9gadft9AHGt1HlgtLAnqRZWzlT+//q9lYXUOL1S8emuG9bsUsOiFcXxzVzN2oO9W1CaZcLrN04wYXL16itMOCAaVyH98+MAB9Eq9/5SnPN6d4b/9tzl2sl05u10XWqNFDnhXWsOwONFVltFfM5OaYmjYrLo/txpGrPaaq9Jv+7rGtlGE7yx/89JF717Vi01bT2jqmtZJtklSpHCEahr7IGJPupo9y2NlFdJdgG229/1kLnKc5rBYqbtCgfEKSyfUZzd5djHPafkpwJTB1s7KDcNNwJ+08np1Hw/r5Ndx9TLMHRbH2BxHbndw/FKHHyTMaIaJrlnRyp+iRUcqFigtV6YFiwZrsGi5mu0xXJph8vsDPzp9nY2NrjwQ/aAwmJG3y2qWf8ZrnsxeP/CavbtqPKft0lK24yMzaXl+VoKV2GZd1FheM+jzlXhTPaq1f3YdCsb0CeBg4ZD8WyUGOJRPkPTfYRuEexpFBRnogu2yvTh+0DC1cG/HGfoYOWraojX7adhqKZrhuz+PRVBIWfAbiZjZtJ61G2OmMDGnu4qHO5eXm48QfKu6saIQIOguX6mM2dSvxgLLXpQmANRDmTbbeX7bLRjWEJI3V3CDH7FjTRqN8lATDcoY7BZOVK3NwdBRZprnda1jPrBFPxhjCinWB1Hb9rAUYHEuorCzcJHt0lMmJJJvZayzpBzn+wilSRq7ici6VZfoVA8PedQ0csmI5q87GJ4CG1xnWLq1S5qhnh+44ImoeJtot7OgEUywWOX/hXXJrrfqN/XkYXrR0briIrPlvx+2t//EXLB/IpqZVtuDOruN4QEC1Fsv/v8bsgsEGN8mGR6sfFzU0dHOQOGsseW+EBmVoSgvXakSYnEgCNUFNz442JGnMX5V57sg4kyOehwFqfuf8tpFNG6UVotamwTUNSRrz0/DMxCiTcW+wOVNxec0vR3jRG3/I6WA/bDCghkG/UVVGZ8WdUlXI1w8WtWWvTTNkZlnK7eO47fppq61atFGj571b6ZMbq9V9L7AtzCxGwv28rC1zsSA1tXtd+QwNHes9o+umEyBvv36ON+LM0TVmr6S5U2m3OaacocX76HJynONKs91SPUHXhTBZWV7ztL2nzrucPalouVcmmJKa5Iyq7cnn/gW7H3E6wM5SUpOVp+4cdsPLo1H7cendKA3e9SD/Q429Hd+NwTfB3sKKR8Qwrnge102GMXL+sSbB9hMqLDPl5yzoov2VxCipsM7iAjv9fnNL7MkdjEDw60jte0V+b30LBLsJMcEIBAKBoCOI4/oFAoFA0BHEBCMQCASCjiAmGIFAIBB0BDHBCAQCgaAjiAlGIBAIBB1BTDACgUAg6AhighEIBAJBR9iTb/LvlaNiuon1Ut4+dB+t+m7n2Uye2Dr4MUJ+l+qMbzeuNsr2tJU4Qqbz/Lr10a2yoxPMua+/yltvn0fTdsfZXMMHT/H6gT73g7tznLh6d9vS9wokfbCKrcdtHT1eO5A4eAq3GgAAIABJREFUv3VU9HZiYPAqW3rxqv/t5gHK1TjvvE13Mq9OUCl/sb699zpO3RJKtXrobmyHVqk9tQH8T27wKn9CteoqVI9B3mu3cp2SGK1Sxm2FHZ1gHn20n7Nf+yq5tY94+50LfPrppzuZfR2JPoXcrRnriP5OEI0Q0R2dBktrwjAhXCMsBdA/NGhJ4baQbLMdAFin687OZGl0QJGlAmmpWbrHxssV9b92b85W8uwE22HTncyrlfbbdpQIYUyMcHV770WC7OeV3I6mTlafGL6HcAfydFU7RVMnOX1KrxrgZVn2nXjcBZGOptfnsZXrHGXcaBTyLarEdyUGExt8gm994xwnvvTFbmRfxUebGx1Lu1/uqdNpKOr3IBYjWnaHIkefPZPd4Zshr6ERJupVfVQs9b+8nybJLmUnbbqr2q8N+tV9oN8kq9e090PKesFnVN0DlNSk5T2YXmI9OsLkxDinTyU5bJ+YPJvrIXVIrbrGUtmsxpFgvjizTNCtvJXrTNOkJ1ABtp6uxWBCoRBjo89y6FCKCxfe5U6m9TjJdsRUSuU+En3w/NjLvDcGlO/ygzeu8dcBK7t2FS0DMTNk9XHiQwr5WtEks5d42FPGmm1yYWmG+bylza5KEni0Nx47NoacuwFJy03z4RKkjvaSnV7CHBqr2tp6XWMVDRJH+Ev1V7X0luG6RxM+KM+8JAVe66Jy+JRdF9/vbTvY23U16JDHB7SpX30Cy9ROXj7l/mC116f97BtdHWEybvUxr8uiNp0q7Ryf78FyEbnlsCZAfdlgXdZJ2aJfjjpibTvOXsnY2vVWmpb2TJF42IrrbCgJnjtS287W3+uO5v3yPcJJy86FpRnmGakcde9tv6C2rcSlckUScfc6f/tV33+OGJuhe20Q3Ie87iKvbZvZ3fpM5smjY4T1GleS7WL22rG6fv52l9UwWi5t2TgJC5dmbJv2YGZgI7+GNmHtQtdRUHpAregO1ZfPD0cRs93rtkLXg/yfe+QRXn7py/zig1lmr15t6ZrtCPLXqloOHzzF66cPkvGRS4atKVrKsmzprNZguaYceVyF4ZjdqRip/KZUlhlOwNJ02hoI1CRnkiMM5JeYn75f5SIoSTKPAZFkhMXpNNftm97B2do6evWpnrWKAt96Zo34EbfDWu4xS9UyqAzRvKv+F5Rn29f6fG+l4wTA00yZ7oB42Ewz71liPYhN2y1Ta3n5l/sZM+3TfhFAJi6vMTW9XJkEn5QLrBhqxRc+5QzKapIzEyNQGdCfhuU0Ux73UKrHU+A6tc16jfiqetek6ZS9Wj2zETLx2D1mp9NsREd4ceQUZ7RlT90c26lN2rbWJgcZLlwL7P+qV+DtappZ0zsBB+RjJhiJFVm4dM0dYD2TS7DdnZ+6Ut3KqsFG5R66Zk8ujfturd2Hwjr5Begf8sg8l+9jmkUMAywJZ+taZ7dxxy6Lkhjl2NEEZpPY01avc1DkXnwHNh+6PsF89tln/PzyZX55fbGr5bh14zaXn3qKF/pvsrINIZmGOtm22qMz4FfkTz2ui5BkcmfRRBkaY9KzumqEthy8CrE00Uc5g0n26pLbkQwN3Ry1pHpNyz2WtaVYWylDUJ5tX2vbpE4yOBpBlRSwlRodNmu36dtk05bK1EJeLZe7gkk2Y8tVGxq6ua+STsQjPV1XLuzvPfK56wWdVMxNeUANY+hzFbVNR6veG0eqqne0Os1QZRANKLpfXZbtwSqvUUj2YFbqZlJkH4oCyM1sFGCTAJzdZjR1klRC5Y4Tf2nUFnmTIoOkJsZQvA9vNLN7VX9wJ+0NPPdQC32g0T1rubAkoBdZxlYo9f6/mo3VNbRY/eKhGe1c56h7tqpx1bUJplwus3TjBhcvXqK0BwQD2nWRNWqIkGfVMyy7N78XZxVLbo6pabPihthuHKnbY6pKv+nvHttKGbaz/MFPBMlV9dgpm7aSV6vl3jqmtZJtklSpHCEahr7IGJPuBpNy2NlFdJdgG229r1uLqac5rBYq7s2gfEKSyfUZzd5djHPafkpwJTB1s7KDcNNwJ+08np1Hw/r5Ndx9TLMHRbH2BxHbdd0/FKHHyTMaIaJrlsRzF2i4cPahKxNMPl/gZ+fPs7Gxta3CdsVgDvRvsLJpNdQ/PfoszxsrvL6B70NQW3GRmbU9sSpBS+0yLussLhj1qnhyL4pnBdWv7kOh2F4BPAwcsh855CDHkgnynk6/UbiHcWSQkR7ILtsrxgctQwvXRryxn6GDli1qI4u2nYaiGa7b83g0lYQFn8FxG2zaUplayaudcjfCTmdkSHMXKnUuLzcfJ/5QcWdFI0TQWbhUH7OpW4kHlL0uTQCsgTBvsvW+uV02qiEkaazmBjlmx5o2GuWjJBiWM9wpmKxcmYOjo8gyze1ew3pmjXgyxhBWrAuktutnLfbgWEJlZeEm2aOjTE4k2cxeY0k/yPEXTpEychX3dqks068YGPaua+CQFctZdTY+AWz1OofaB5casaMTTLFY5PyFd8mtterL9We7XrR84chLvN5nW3TzNucC4i+dwLkJIrLmv0W2t+PHX7D8EpuaVtkWO7uO4wFBzlosn/waswsGG9wkGx6tfoTT0NDNQeKsseTtZA3K0JQWrtWIMDmRBGoCjZ4dbUjSmL8q89yRcSZHPIH3mt85v92qTdspUyt5NSp3iNr2C7ZqSNKYn4ZnJkaZjHuDzZmKy2t+OcKL3vhDTgf7YYMBNQz6jaoyOivulKpCvn6wqC17bZohM8tSbh/HbddPW/2iRRs1et67lf6/sVrdzwPbwsxiJNzPy9oyFwtSU7vXlc/Q0LHeM7puD9xbqZ/j+ThzdI3ZK2nuVNptjilnGPM+upwc57jSbLdUz1ava5c9qWi5V97kL6lJzqjannwW/9eNrrybsocQpwPsLCU1WXnqzmE3vDwatR+XbvUe6XqQ/6HG3iK3GhATCHYD1mQbw7jieVw3GcbI+ceaBNtPqLDMlJ9joov2VxKjpMI6iwu0/C71ntzBCATbjdjBVFP7vpDfW98CQTPEBCMQCASCjiCO6xcIBAJBRxATjEAgEAg6gphgBAKBQNARxAQjEAgEgo4gJhiBQCAQdAQxwQgEAoGgI4gJRiAQCAQdYU++yb9XjorZaaxDDCPkOyQe9CC0etRIp+tgvUC4D/3qNVYMZc+/XOlqnXiOmn+Q9MSRMIJtZEcnmHNff5W33j6Ppu2es7lKj4/y/th+648mqpZtp+0RLXJV+porOO40rg63dVR57UDllNtR3dvpgadSvuKNPXmu2263bxBOuROKW57d0mc7Re0JBuB/ioFXBROqFUih/t5v5Trv+WOWaJrVV5TEaJUi7V5iRyeYRx/t5+zXvkpu7SPefucCn3766U5mX0fp8VHeP2Bw7q/edE9R3s4GjEaI6JZ2gtPhqlUCLbXEne40QceiGCaEa4SoAPqHBi3p3B0tpQclQhgTI2wpb7rHzlfXo5XjXkJmltmZLC0fphTAVo6W2Q777vyRNiaZK9ZAZw2+Yzxpbs9uabfhDuTpqnsymjrJ6VN61QAvy7LvxOMuJnQ0vT6P4OsiPBO7z4eXZly11SMjGNNL5G1F2mgU8m2os+8GuhKDiQ0+wbe+cY4TX/piN7IHLD2Ybx/o48dXO3dEf7/c42onKDI95hqrtv6GJVu6vKtWJEX9HsRiRMvuUOfouWey3ds59Kv7QL9JVg8TjTb//W5lt9q3VUJmlqwuE1aDVDn3LiU1ybHwPWanl1iPjjA5Mc7pU0kO26cHz+Z6SB1Sq66xFCerceSIL84s4ye1E3ydxvWrWXf3mtfQbM0dsLSlegLVUHcvXYvBhEIhxkaf5dChFBcuvMudTOtxkm2JqfTv5wTrvHfwJd7bbzVq7tYMZ2/6i6C1q2hZh2FSlKvFh7zUus+cVY67Yr0ByacJG+vclQZ4VHe33kpilGPhe3W6In5pfrDa635Wq6dhZsjq48SHFPK1IktmL/FwcNpV2ik+34N13Hiz+tbbxRqA9WWDdVkn5YhI2brxTj1eGNT4eyXMvpp6PXZsrGK7iLnGh0uQOtpLdtor+qRy+FS969JRvMza9XL+zlwq8NgLySobzl6pKZNfnR7AvsFtZ7e5OsJk3HaveN0uD9hOQdT2S8e9V2uDZvm5/Ty4P3jdSt70gj5vVOegcstqGC2XZkNJ8FwSFi7NsI7KMxM9mBnYyK+hTVg76HUUlB5QKxo8Wkvuq1JZbv26aIQIRfItioDtVroe5P/cI4/w8ktf5hcfzDJ79WpL12xLkL9fIda3n49uvcmJqxKlvgP8ZGKUb30yzWub9S26FUVLWZYt7VNs8SFbGOp00u+mG8S8mmbKdG+Cw2aaeXsZFElGWJxOc12SKKn/I2diEZRVgw0UomEZLXeNTcldYQWl+YyZZn76frVrSZJ5zL5uvaCTSjpyugrDMfvGY6Qmbcu/PGUPAiU1yZmJEZhesm9M1x0IjuhZ47J561uhTr3R0Q7X6utR6zKz61VlOzlOLdW2TXImabkug1QVJUljfnquOi/UlurUun1bbbsIIBOX15iaXq7EEJ6UC6wY6gO1Uy0lOU48bKJnDECptx2t5ef9vml/MBOMxIosXLrmDsR2O/p+3rRv+rQ5KkNhnfwC9A95JI/L9zHNIoYBlpyxda2zS7ljp6UkRjl2NIHZJH7W6nUlOc5zyTDacrWrTpF7qQwoe4SuTzCfffYZP798mV9eX9z5zDdv8/rHgAShzVv8+/VhXn28n9cCdjHt4Kdd7Wg8KIlRS/7UWWlGI6iSArZCYKV4ni2xtuxZ6eTdgXaDCGFZJ1s3MDdP0xdb9TE+pLBuxoizxmwe8LqmohFr5bfqkQq2r4tGYR37+zyV1dd6QScVa79sA6qreR/C1T6vjWM0osp2zb731qOde7nVOrVo3/baziSbsaWuDQ3d3FdJ54HaCQCZhF0Ob+DZocp2rea3WiMx3ai+eZMig6QmxlC8eRsBnzcrQ96n3DVYLiwJ6EWWsdU6vf///9s7t982rnvff8mHFNKMlAfPJcpFvBiqHZIyglCRnLa2LFsOChRNH4tuGClgFAj2n9CHjT5u7L/goC992Aj2+0mCuG5kUWzc+tCSDlTrmggSSSUOS84IB6BmmX4IyPOwZjgXzoWkSZF01+dJIrnua9Zvrd9vZr52qscnUCLGxsc1S1fc0tE4EFBYz9r62VC6HDVtqYEZmEajgd39fTx4sIr6IKLHVQ3BjgCTTl1kfhNCy2/iL8d0p3VFqmALfmp1XEvehuRtVOJRhnXHZf9dJ3maeRMcFlVEIyJmOHNxbw9Cd3ne2bdRt/HmX/WGCFkAJsQ5LFsOHg3BOAEMF+30d7v9283YtU/742QN8lO68dcEl+fV3nCI4Mmaop9qFnGreSee4vr5YVAdXHkGQmi8gwAQJQmoKJiMixgz0sgiRFWhcsd9Qk5dp5vSNQXOfnbbsI4CAzEw5XIFn9+7h2q1u5NCT2Iw1e/xFRbxh7e/x52DM9QnLuGjKQ1fHVThdhF14yIjlhld56J4P0aQs91mq096jSpfWuMzcioBbHsvoqX8CaKJCOKg8YmWOpc7z9OZNsqp2NnWWu+s079PxhXTeLa4ssyy6w0OMxEBwElndZNFiFCxvdrqw7fuRl8UY0EBgMn4ZdruMnQvEF14yoTebMCj5p5JJ/3dZv92NXYu+XQ9Tp3ScXkiZuLPcHjs014+hhkuj6MKweHjTWA+DY4D6oi6fh5YBxfCIYKyCizEJBxuH6Awn8byUgJnhQ3sqpept0ErIve4orvhOEzyGjTd6E7N0ljOcUC8xC9dnY8iKqjYyVQ872Rt3jA0QpyrganVarh3/0sUT7qcwDq9iMGEQ2f4Xw/+L6K/WsRXl+iAPtz41DX+0gvCpIBdQieuQWV3DUckROMz6xzef28Ry0lLoNnlVNJEU6CCPhvyxOWWUb88wyAoqwRXnUF+S9rj4jRETnF1I4RDCrYywDtLaSxHrYHUfNOVZcSbaDBTQ6GoAkJw3aztnZIEQN231cE4vaUkCeGKYmtH7nHet11eKBCb42INvIZJAbvFC7iqu27OFKXpIqGLkr3sdsewrf5te+w8Vs0ejFOntFWepV1GX4dDxLu9pAAtZn7eUPbwoBJCGB6fB9TB63oyPA6350+Qe5zFUXNcNrFiLB/WW5cTi7iqPx/kfdpsxTMdN46JkIjZmzcwa/n9qD93NJKKlqPyJH9dSuC2pIzkw4EMxr8i1ocdDToxIP1C1m+XHjVjM/Ag/0uNflwftcAcg/GvinEjTgsDNC58LI2UoGJnGyN3y/JInmAYDAaDMfywtykzGAwGoy8wA8NgMBiMvsAMDIPBYDD6AjMwDAaDwegLzMAwGAwGoy8wA8NgMBiMvsAMDIPBYDD6AjMwDAaDwegLI/kk/6i8Kobxr01dSuB25NnAXjNi6qz0RuJ40O1hjB7namDu/vYjfPbFPSjK4N/NNXP5Bv50aaLl84cbn+L3T3tz8VjFjx4dAzPzacR4u3LgKFyshgDUKNa9E+TUdcyK59tGU8OdtGit0O/pHDKUF4elv93mxKi/mDEIQ8xtwjIGbkqsVqVNwK4wCtjXBWtav3RWlU6nqudCpNaWouYgOFcD8+qrk7jzm1+jePItvvjzfTx//vw8i7dxeLCGawfm/1TRkkdGFyDrCbIIUTU0HKgYhvUilFPXsTBLhu5lmE5lSINRqPuLYl0wzrONGgEEFyG1yfg0XVTayMNr3PqHqRVDF985XCS9OS0NG+ZCbleZlFPXceuGalvgOY5zNTzmZkKForaW4Z9ORFlX4JRT15GalVDeUehboLnrkGWg3N7Lw8+VgcRgItNv4ePf3cW1n/5kEMW78vPLM/h2cwN/6eEuYJIb89VwKFVcZtmIMMp1bxfirVDVc2rqKRCJQG6YpqTe4CALQL4w/EY8TAooqBwEKUAxdQSpSwksCKfIZXZRkpNYXlrErRsJXNHfcJwrjiE1K9nSUFVMO4Zk8oO1PXhJGXmn22sasFJFBcY48PpcIYRgLEipdkAMLAYTDocxl34Xs7Mp3L//JY7y7cdJeh1Tqb+Rxn9MHOKuz+mlU0XLwDJ1cSdNLVo+M4/BgH037fwOMF04VT6G998bR0HfRdHdpOV/n3ytx/JGQ8H2agWv3UzQ33roqnRad2cZOxldj34+Da64DyTMdNZTkjNPq2ugGV8o1hCLim2VGdQXzjbKAgelqEsRB9THb4waDQ4X5+cgqKZLxIhnNPuW5FFQFxGN8yg7hbLIOKIWjRa3Njw6Hjc/c2rFSEks633k5XbppD1BmCcpOraGe68KqaPyjLHpdG4ZrqN2xt/+nXu9OUmAUszS6ywBbK+uoQQJ7yyNgeSBavkEypIIuVFBCTz4MUBqauwobbmv6g2u7XRWGfFhZ+BB/h+98go+/OUv8PdHOeTW19tK08sgf70xgX+/NIWHX3+GQ58B60bRkuM4qsFqQbKKO61nkSPWi2saZD2LFWJO9iski60yvTCxl8WKxUWVGguug2++JIZkpIbt1Q1zIoeBf2Y2ba6WeojDa93W3a0Mi/CTmBCxox/961ICtxNJyOVd/QKmfuoV66K8lAQyhrIjhyh3gpXMnm5UL+NiZQOHcC/Tr56GUZuImvLMDa3Y1Ku3+s3d6+M9RiGLTDJ/rEELhTClL1pnIR6v6WNVqqhIJQw5aB4zEX1hQzJwPN8hWWxlnjnGTXTpo2lc5Co41IL6t7M5V+eiiAoEal6DLgVqH9vA8Wz9vtu5VeeiPuMfNKda6x0XVJS3gcm4VZ78GQipQdMAKrmsXz76KeVIz4uPpbEwHwMJiJ8FpbPGfyq7a8g5XKA8N46WxWYIGLiB+eGHH/DXhw/xjyc7g6nA5Ou4xpfw372MvcBbQ9vYocup60jFJBwZ/n1ZhBTiAV090eCM42ksh5w0FztAX4wibVTEL98yQQ3TSC3NgW/jTqOu6h5QhrJn2aWViyhE0lQOGXqbjy2SwtbvywBAUMjrJwxNgUou0N9pHmX61VO/OG2nRn3x2cnsoiQH1AcBY1RWoCSmIfN5VDURsr5o2dDzi8Z5lEgEUej5yZbf+LbBDY8+etH2AAA4xPR60E2HfXxtY9tueccOCelu5pbP+AfPKUe9HVAXVgjAODgOusKp9W871eMTKBE67loH678zXZgUkFsr0GakFnErYt70YahxDqPu1MAMTKPRwO7+Ph48WEV9gIo0P788A3yTDYy9dOoiCxr00vY+5KW3cUWqNHfPnnctSS3JO8Ir33CI4Mmaou8KF3FLv5Pp0FuFt+O6d1uGNwRBoZFwSHEv06eeruhGgfd1b+v14YLrdFycRlLiUZamIaonLXLKYctJZ4bzdoN4tyGgEm3RXnuM3xpBfko3O7Tg8jqdW0fEe/x96+DKMxAyBp6nWxBRkoCKgsm4iDEjjSxCVBU6nucAvf5M4+O1mR0GBmJgyuUKPr93D9XqWVfpexWDqTdex9KUhq8Oqgi6OLpxkfkFiY0FZyESA1/Oo6qrX8blPJ7o9kpOJYDtXZQc3xkxEODEkiO9CMoEmJQugEdNr7hPvnwMM1weRxWCw8ebwHwaHAf3rVi3dQ8ow7hgAWAyfhlRTsVOGQBonsm4YhpoIyYRUL86F3Uv06eerjtWWYSIGsoaAC2gPlrwGFUrp0AigjiAwp4Z27Gh1zHKqdjZ1lqVFP362r9bXPN5kfZ0RMfliZiJP8Phcedzqw7/8e9kToVDBGUVWIhJONw+QGE+jeWlBM4KG9hVL+PqzRtIaUXkHld0NxyHSV6DphvdqVkayzk2Dj4e+KWr81G8HyPI7RjXyTREcmrL0+9mokFyrgamVqvh3v0vUTzpcpLq9CwGMzmBt3CGTLB96QvV4wMUhHTzVtitdQ7vv7eI5aQl4B0KIQwFW3siPrDGQIoqoAd+w6SA3eIFXNXdCGeK0rQR4ZBPvqQALWZ+3lD28KAS0i8qgqseQf6O6u5RhoECEctLCfqdJbAZhoKtDPDOUhrLUWtAVt/J+px6vdvlXU8DWwymg/oEjZFRr0LtOlJj3guOYbxFTnE1er7jCee4eVvicOjF29MJbZVnaZfR9+EQ6Xz+wmf8u5hThjfi9vwJco+zOGqOyyZWjKXFeutyYhFX+QCvhAte6cKkgF2Sdlwnw/NMlB8jKZk8Kk/y16UEbktKX56jGPWnqs//mY3hQE5dR5RsDp2vnBFMXUrgg6TdTT4MDxzL+u3Sw3gdDTzI/1KjH8mHMfjGOH/onVYqCm6uL8bQE67sYcXtiYQBjiUfSyMlqNjZxkC8MEGMpIEZlXeLGcFmBsN4DU1ld20oX+nBGE20/CYe5DG0G5aRdJExGAwGY/hhr+tnMBgMRl9gBobBYDAYfYEZGAaDwWD0BWZgGAwGg9EXmIFhMBgMRl9gBobBYDAYfYEZGAaDwWD0hZF80HJUXhXDGCymlkhvZHxH/fU8owAdMxHlIdWYZ3TGuRqYu7/9CJ99cQ+KMhxPt9cnLuF/lmYQ0Sfyw41P8funvZvUVoGjR8fAzHwaMd6uDjgKi5Xx3jBr3a3Kk73IO9p81XrI8T3tQ0NdcNj6qln/2n5f3jk3SNzGfVTmrBdW4S4DN1VTqyImYFcCBezXtjVtUDq3tHwsjYVIrS3ly1HjXA3Mq69O4s5vfo3iybf44s/38fz58/Ms3ka98Tr+a2kG325+hjtPQ6i/kcbf0nP44LuNQG2YtpFFiKqh00AFL6wLs5y63nwb8TDh/iJKU/uDXqRzuEg6Pxl4veRSI4Ag8ThyXOiT8WlIoZDfy5MD8+4rvAgBBJpAJXNHeYHw6r9RmLPtYC7kWds4yanruHVDtS3wHMe5Gh5zQ6RCUVvL8EpnxZjThliJlt/EDncdsgyUO1dfH2oGEoOJTL+Fj393F9d++pNBFG+hhMx3+p/flfAQE4hN9i73SW7MV6ehVHGZoSNAmBRQUDkIkq8SV0fU1FMgEoHcME1JvcFBFoB8YXgXs0npAqAeoKAKkOXg3486ozpn61ICC8IpcpldlOQklpcWcetGAlf0NxHnimNIzdqV/ah6pR1D2vjB2h7KHmW5pWvWg4siKZwir9i3TIQQjHmqko4uA4vBhMNhzKXfxexsCvfvf4mjfPtxkl7EVMKh7/Gnb36MP7w9ib8cnAFvTuFnpW/w+zP3HWinipZBGAJOmlq0fEaPzpK+i7LJ9zq+A0x3RZWP4f33xlHQd2D0hGH53ydf65G+0VCwvVrBazcT9Lc+ejC2tjjcDsaO19wR7wOJtyFoKv4fL+CCW94kj4K6iGicR9kpBkXGEbXokLi159HxuPmZUw9FSmI5SsfO6rJw5mPVf/Hrc+sYygKg7mkocSpSugCbFmptu+Hiq+ra81IopGus1BAVngWOI9WsnwbZO4WQMLXZt5BsvkLeb74Y3zXjUsUaYlEznXv/2ce90znrnFs7HvPR2e/0Mw4X5+cgqJu2/BaE05Z+tLfPvd85SYBSzNI+TgDbq2t6n46B5IFq+QTKEj2FlsCDHwOkphZOa/3cqDc433T1BoeZxDRqxSw0abpbaZ2RYuBB/h+98go+/OUv8PdHOeTW19tK08sgf+TSDXx1if5d/Pobz991o2jJcZwh9d5Esgo4rWeRI9bFbBpkPYsVYi5QV0gWW2V6MWEvixWLqyI1FlwH33xJDMlIDdurG+bFEwb+mdm0uUrqIQ6vWfPkoogKBGpeQ73BYyYG7GaydGGVEridSEIumwqLYkLETiaLJ7aFtzXvUkVFKhGBfLyLEnjMRPRFAcnA9rxDstjKPHPkLQLgEOVOsJLZaxrCi1wFh5rU9IOvGIuylMDtpSTQXNAD+rxFkbFVe93WdkeeRt3bV4nkEI2cIpfJoion8UHyBm4re5a2GX0n+cwluPTJZcxUNlz6j45NV3PWbW5bWlU3AAASxklEQVRZjIt3vxs/NeWj+WMNVfCQBQ5KcUM3Ln7ta+33uKCivA1Mxi8AxQNap8YzEFKDpgFUGlm/BPRTypFeFz6WxsJ8DCQg9hSUbmo2TQ1mJQTZRQad58bRsmCMOAM3MD/88AP++vAh/vFk51zLrU9cwh9+DHyy+in+eBaiMZlfLeI/zz7rSaDfSyfb2N3LqetIxSQcGb5sWYQU4gFdldLgjONpLIecIFdGU/OhVFGRirRREb98ywQ1TCO1NAc+8E4rDjE9D7rQ0N+HQwRHOwR8fA7Llt2qFWWvzeBluYhCJI1onEeJRBCF3mar68mvPa4QFPK6PLGmQCUXmvmI5AS5Y4s2i16+LAMlBPf5lCRAUzebioxl9W1EHXEkW9sd4xhuLqLBXdNsy56+yJUVVBJjIM22EdRwATwPgAvqI48+8aCrOes1t4L63ep3KptGuwoRAqeiUA4oV8dvzlEXVgjAODjOUO+2/m2nenwCJdK6eQjCmq7KJZAaO0HOQwvIUM182bSjBmZgGo0Gdvf38eDBKuoDEAy49MYUIqVvcEd3iYVD3yNTehcfTUwCzfCbSacusqAJU9reh7z0Nq5IlWYA1fMOHZfdTid45RsOETxZU/Qd4CJu6XdyHbq6kM0gP0XfxeqnAhQ3sZIhTbdON4Qtu9YZzly8222PcSPFi0HoTjYgq3pDhCwAE6IpsQwADcE4RQwW7z7qbmyAzuas59zyzJ00TxBmHqbRLsNy8vBtn9vAPQMhY+B5ej4QJQmoKJiMixgzypRFiKpik8/uFQ3dtRjiQ7h607KbEOdwS6DtQHzOdUM66gzEwJTLFXx+7x6q1daFvB16EYP5+mkJxaUf4+OJp80TzNIU8O33VbhJw3XjIiPOK8aCob2+oPvtq7r6ZVzO44lur+RUAtjeRcnxneELt7tW6AVUJjTwzKOmV9wnXz6GGS6PowrB4eNNYD4NjoP7Ns4Lbhy8ZUdqK7sb9PpGORU7brs9v/Z0UU4yrpgbgBaXl0+fyyJEqNhebY3ZtOzEPere0Th20bYX7iMHHc1Zr7kV1O8OSvkTRBMRxEFjXUCo4/aFQwRlFViISTjcPkBhnurbnxU2sKtextWbN5DSisg9ruhuPA6TvAZN30xNzdJYzrFx8PHAMx0h0CyuM1pfi3R2KAQe8L0haFQ5VwNTq9Vw7/6XKJ6063N2pxcxmPDZ1/i3TR5/u/kh7uif9fo5mCCqxwcoCOnmbZ9b6xzef28Ry0lLsFx3v2ztifjA6gsvqjCihGFSwG7xAq7qLoMzRWnaiHDIJ19SgBYzP28oe3hQCekXJMHVdoL8unvD2JlZy3YjKG9jERM5xdXF4dseOPP2rkk4pGArA7yzlMZy1BpszjddXn59PiUJgLpvq6Ox405JElBuXSycde9kHDvBr4/87vduZ9zbnrOec8u/31vqpylQQZ8zekIMb0Pn7TM8CrfnT5B7nMVRc9w2sWIsD9ZblxOLuMoHnZZa6Tbdy8pIKlqOypP8dSmB25LSl2cG2FPlLwdsHM+XupRo3nVnMAyGQNZvlz6357fOiYEH+V9q9KP8yxa4Y3QHjUdEoD223K6bEKAV3WNNjN4Truxhxe1APsD+52NppAQVO9vwdcGNIiN5gmGwne+o4nxmKOipbwZjlGEGhsFgMBh9gb2un8FgMBh9gRkYBoPBYPQFZmAYDAaD0ReYgWEwGAxGX2AGhsFgMBh9gRkYBoPBYPQFZmAYDAaD0RdG8kn+UXlVDKM7hvUhUlP/pHOpaNf8hrSdLxN0zESUX0K9+1HgXA3M3d9+hM++uAdFGQ4J3PrEJfzP0gwioRDQOMMnmQz+6KFo2VX+FnGlR8fAzHwaMb5VkXLYFxcvrXancuYwYGqmk6Zmjf17OiaG0uGw9X2z/rX9kdS998No2yheA14438wAuL+dwaruCdiVVQH7WmFN65fO6zs+lsZCpNaWCme/OVcD8+qrk7jzm1+jePItvvjzfTx//vw8i7dRb7yO/1qawbebn+HO0xDqb6Txt/cuY/XBAQ57NSiyCFE1NB6oToUh3gTQF9wZb6UdJrwMyiihEUBwiH8BwGR8msoVt5HHQPqBFyGAQBOofO+gF4gXwav/RuEaaAdzIc/axklOXcetG6ptgec4ztXwmBsiFYraWoZXOr/vtPwmdrjrkGWg3Lmae08ZSAwmMv0WPv7dXVz76U8GUTzlzSn8TDvEn77T///uG3yCKdyc7F0Rk9yYr8ZDqeIyoxg9oaaeApEI5IZpSuoNDrIA5AvDu5hNShcA9QAFVYAsB/9+1BnVa6AuJbAgnCKX2UVJTmJ5aRG3biRwRX8rcq44htSsXSmQKmnaMWSWH6ztwU1CyCtd0HeEEIx5qryeHwOLwYTDYcyl38XsbAr373+Jo3z7cZL+xVR4RN0FLTtWtAzCEJvS1KLlM3pMllxehOj8DjDdC1U+ZnNVOV1Xfvlaj9mNhoLt1Qpeu5mgv21HD8bWJp/6O1wJ1l2sV9uC8jV3yPtAgrq9mnUleRTURUTjPMpOYSsyjqjgX+9Hx+PmZ059GSmJ5SidC1aXhTMfqnPSKkjm3U5qANU9DSVORUoX9tJCIde25h7ndX16mifVl6khKjwLnBclQ9d+7xRCgo5LZXcNW0g2X2fvN//MMdDjUsUaYlEznXv/2edRp9eAc67ueMxvZ7/TzzhcnJ+DoG7a8lsQTlv6MWiO5R7nwUkClGKW9nEC2F5d0/t0DCQPVMsnUJboKbQEHvwYIDW1hVrr50a9wXmm8/tumBh4kP9Hr7yCD3/5C/z9UQ659fW20vQkyF/VUORncPfNA/z+KYA3f4w7EyE89MijG0VLjuOoRqsFySpgtZ5FjlgXn2mQ9SxWiLmgXCFZbJXp5MdeFisW10JqLLgOvvmSGJKRGrZXN8yJGQb+mdm0uTbqIQ6vWepupdFQgssp85iJAbuZLF0spQRuJ5KQy8ZC5902/3zpb8SEiJ1MFk9CZl0BujtOJQwJYx4zEX1RgNkIr/zfIVlsZZ45+kEEwCHKnWAls9c0mhe5Cg41qelDXzEWZSmB20tJIBPcTvqBU1GzVQfe1lZHnkbd7QqZfnCIRk6Ry2RRlZP4IHkDt5U9S9uMvpMCxsDZJ5cxU9lw6T/7POroGnCbqxbj4t3vxk9NOW7+WEMVPGSBg1Lc0I1LB3MMEuKCivI2MBm3SDk3noGQGjQNoDLNNK1xSjEULflYGgvzMZCA2JN/uuA8eW4cLQvQOTNwA/PDDz/grw8f4h9Pds613Kai5dyH+GoOwNk3+OT7M6Dam/z5WNpVY9vYucup60jFJBwZvmdZhBTiAV3N0OCM42ksh5wgV0ZTL6JUUZGKIBi/fMsENUwjtTQHvo07o6ynDsAM8geVEw4RHO0Q8PE5LFt2oEY637b51V9H2fPYuelqm9E4jxKJIAq9HKvrqY387RAU8hVaWU2BSi7Y23FskXnWy5dloITgMZySBGjqZlNR09Cjt8aRbG119F24uYh6VN2tLXv6glRWUEmMgTTbRlDDBfA8AC6ojzz6xIOurgGvuRrU71a/U9k02lWIEDgVhXJAuTqecwyGmyoEYBwcZyiOW/+2Uz0+gRJp3TwE4ZfO+Z2h4DloLaqBGZhGo4Hd/X08eLCK+oAEA8JPN3Ht6SYAPej/Kx6Zx3AV/enURRY0wKXtfchLb+OKVGku2p531EgtyTvCK99wiODJmqLv2BZxS7/z6rAbnV6fcoydPoqbWMkQu2F6gXyNGye8CFt2rTOcuXj3Kv/2IHQnG5BVvSFCFoAJcQ7LUUvdBOMUMVi8+6j9cXTSyTXgOVc9cyfNE4SZh2m0y7CcPHzb5zZwz0DIGHieng9ESQIqCibjIsaMMmURoqpQGecB4LXBPW8GYmDK5Qo+v3cP1apLsKMN+hGD+fn8u3jrmyz+4jEhunGREecMt2Bozy/ofvaqrn4Zl/N4otsrOZUAtndRcnxn+K7trhA64cuEBop51PSK++TLxzDD5XFUITh8vAnMp8FxcN92BeFXDjcO3rLL9KtfS9v88u2gXlFOxc621qpc+KL5O/JJxhVzQ9Hi8vJppyxChIrt1daYTctO3KPuHc2LLtr2wn3koKNrwGuuBvW7g1L+BNFEBHHQWBcQ6rh94RBBWQUWYhIOtw9QmE9jeSmBs8IGdtXLuHrzBlJaEbnHFd2Nx2GS16Dpp66pWRrLOTYOPh74pasjOE+/G4zOi3M1MLVaDffuf4niSbs+Ynd6EYOpNybw77cWcWeCjkbx6zXcOejO4HVL9fgABSHdvE1za53D++8tYjlpCYTr7pKtPREfWH3XRRXQA9VhUsBu8QKu6kf8M0Vp2ohwyCdfUoAWMz9vKHt4UAnpFxDB1Q6C/H7lGC6Lqzep76alfn5t88u3jZOvsYiJnOLq4vDtHzj7wdvyhkMKtjLAO0tpLEetweZ80+Xl184pSQDUfVsdjR13SpKAcuti4ax7J/OiE7odg3bmUdvXgOdc9e/3lvppClTQ54ye6ItzN+0zPBS350+Qe5zFUXPcNrFiLDfWW5cTi7jKB52WWvFM1+g+z/NkJBUtR+VJ/rqUwG1J6cs9/uwpcIYbbF6cL3Up0bzrzmAYFntZv1160M+xDTzI/1KjH70HHWhjvJzQeEQE2mPL7boJAVrRPdbE6D3hyh5W3A74A+x/PpZGSlCxsw1fF9x5MJInGAbbqTIozueLvJ76ZjAGATMwDAaDwegL7HX9DAaDwegLzMAwGAwGoy8wA8NgMBiMvsAMDIPBYDD6AjMwDAaDwegLzMAwGAwGoy8wA8NgMBiMvjCST/KPyqtiGL2HPWBq1U0JllhoKz/Wp32HjpmI8hCKgvWTczUwd3/7ET774h4UZXgka+lr+umblK0vuzQ+/1koBDTO8Ekmgz+e9W5iWIWSHh0DM/NpxPhWtcphv+C9dNedqprDgKl/Tl/17lycjTExVAtfpO/Ps6x+0Kx/bb8v79IbJEbbRvF688L5RgfA/a0OVlVQwK7ICtjXJWvawHSWd7IZ6pokPne+BubVVydx5ze/RvHkW3zx5/t4/vz5eRZvo/k2Zb6EhyW376jRuXZwhvobafxtaQ75/73h+Tr/jpFFiKqh10A1J6yCXnLqevMNs8OEl0EZJTQCCA4hLwCYjE9T6eEhK2sgfc6LEECgCVT2d1g2Cd3g1X+jcL21Ax9LYyFSw04maxsnOXUdt26oNilljuNcDY+5IVKhqK1leKUDzBPw/1ldMw10KATkNwcTg4lMv4WPf3cX1376k0EUDwAIh87wx9XPce3TTWScX06+jmt8Cf+9r8tbfvcNPtGmsPRm78qf5MZ89RpKFZdRZvSEmnoKRCKQG+byXm9wkAUgX+jtAnOeZfWSSekCoB6goAqQ5eDfjzqjer3VpQQWhFPkMrsoyUksLy3i1o0EruhvU84Vx5CatSsWUgVOO4Y884O1PbhJD3mloxpEY6YyqoOBxWDC4TDm0u9idjaF+/e/xFG+/ThJ32MqkzwipVLztBIOnSF/BlybmATQqhnTqdplEIZwlKYWLZ/Ro6vk8lJD53eAeeSv8jGbq8rpuvLL13osbjQUbK9W8NrNBP1tB1oxgfV3HO+tO0uvtgXla+5a94EEdUU160ryKKiLiMZ5lJ0iVWQcUcFSb4+6OfOXXOrecVkubXl0PG5+5tSlkZJYjupuCYvLwpmP4bJwCpl59yk1gOqehhKnIqULgmmh1nYbLj6qa0/zpLo0NUSFZ4FzsASJxpP2TiEkaD9XdtewhWTT5eI3183x1uNSxRpiUTOde//Z52yn15vzutjxuJac/U4/43Bxfg6CumnLb0E4belHe/vc+52TBCjFLO3jBLC9uqb36RhIHqiWT6As0VNoCTz4MUBqahK11s+NeoPzTseLEHAKNbaIZbG1rwYe5P/RK6/gw1/+An9/lENufb2tNP0O8l+amAA60OrrRu2S4ziqt2pBsopRrWeRI9YFYRpkPYsVYl7kV0gWW2U6IbGXxYrluJ8aC66Db74khmSkhu3VDXMChoF/ZjZt7oZ6iMNrlrpbaTSU4HLKPGZiwG4mSxcwKYHbiSTksrH4eLfNP1/6GzEhYieTxZOQWVeA7lhTCUOOmMdMRL9QYTai3uB86uaSv8v37Zfl3pZ3SBZbmWeOPhcBcIhyJ1jJ7DWN4EWugkNNavrQV4xFWUrg9lISyAT3Kf3AqcTZqgNva7cjT6PudmVNPzhEI6fIZbKoykl8kLyB28qepW1G30kB4+3sk8uYqWy49J99znZ0vbldFxbj4t3vxk9NGW/+WEMVPGSBg1Lc0I1LB/MZEuKCivI2MBm3SEA3noGQGjQNoPLONK1xSjnS68LH0liYj4EExJ780lW5cUzwImrFNazshJr9frFC447/HzO3EMK4JBkYAAAAAElFTkSuQmCC;" vertex="1" parent="1">
          <mxGeometry x="13.530000000000001" y="2300" width="290.47" height="173" as="geometry" />
        </mxCell>
        <mxCell id="Yg8QPh4uK6IByelMX-bM-33" style="edgeStyle=orthogonalEdgeStyle;rounded=0;orthogonalLoop=1;jettySize=auto;html=1;exitX=1;exitY=0.5;exitDx=0;exitDy=0;entryX=0;entryY=0.5;entryDx=0;entryDy=0;" edge="1" parent="1" source="Yg8QPh4uK6IByelMX-bM-30" target="Yg8QPh4uK6IByelMX-bM-32">
          <mxGeometry relative="1" as="geometry" />
        </mxCell>
        <mxCell id="Yg8QPh4uK6IByelMX-bM-30" value="xxxResolver.resolveArguments()" style="rounded=0;whiteSpace=wrap;html=1;" vertex="1" parent="1">
          <mxGeometry x="316.5" y="2320" width="189" height="30" as="geometry" />
        </mxCell>
        <mxCell id="Yg8QPh4uK6IByelMX-bM-32" value="接口&lt;br&gt;HandlerMethodArgumentResolver" style="rounded=0;whiteSpace=wrap;html=1;" vertex="1" parent="1">
          <mxGeometry x="560.5" y="2315" width="210" height="40" as="geometry" />
        </mxCell>
        <mxCell id="Yg8QPh4uK6IByelMX-bM-34" value="包括supportsParameter()、resolveArguments()两个方法" style="shape=note;whiteSpace=wrap;html=1;backgroundOutline=1;darkOpacity=0.05;shadow=1;fillColor=#FFF2CC;size=28;" vertex="1" parent="1">
          <mxGeometry x="555.5" y="2238" width="220" height="62" as="geometry" />
        </mxCell>
        <mxCell id="Yg8QPh4uK6IByelMX-bM-35" value="实现了" style="text;html=1;strokeColor=none;fillColor=none;align=center;verticalAlign=middle;whiteSpace=wrap;rounded=0;" vertex="1" parent="1">
          <mxGeometry x="501" y="2300" width="60" height="30" as="geometry" />
        </mxCell>
        <mxCell id="Yg8QPh4uK6IByelMX-bM-36" value="基于缓存机制，遍历每个Resolver，判断是否可以解析参数" style="shape=note;whiteSpace=wrap;html=1;backgroundOutline=1;darkOpacity=0.05;shadow=1;fillColor=#FFF2CC;size=28;" vertex="1" parent="1">
          <mxGeometry x="555.5" y="2380" width="220" height="62" as="geometry" />
        </mxCell>
      </root>
    </mxGraphModel>
  </diagram>
</mxfile>
